<svg width="64" height="64" viewBox="0 0 64 64" fill="none" xmlns="http://www.w3.org/2000/svg">
<rect y="64" width="64" height="64" rx="32" transform="rotate(-90 0 64)" fill="url(#paint0_linear)" fill-opacity="0.4"/>
<g opacity="0.2">
<path d="M34.0463 6.91047L31.7751 9.54077C31.6218 9.70424 31.3849 9.70424 31.2456 9.54077L28.9603 6.92533C28.8071 6.76186 28.5702 6.76186 28.4308 6.92533L26.1456 9.54077C25.9923 9.70424 25.7555 9.70424 25.6161 9.54077L23.3309 6.91047C23.1776 6.747 22.9407 6.747 22.8014 6.91047L20.5162 9.54077C20.3629 9.70424 20.126 9.70424 19.9867 9.54077L17.7015 6.91047C17.5482 6.747 17.3113 6.747 17.172 6.91047L14.8867 9.54077C14.7335 9.70424 14.4966 9.70424 14.3572 9.54077L12.3368 7.22254C12.1835 7.05907 11.9466 7.05907 11.8073 7.22254C11.654 7.386 11.654 7.66835 11.8073 7.83182L14.3572 10.7593C14.5105 10.9228 14.7474 10.9228 14.8867 10.7593L17.172 8.14389C17.3252 7.98042 17.5621 7.98042 17.7015 8.14389L19.9867 10.7593C20.14 10.9228 20.3768 10.9228 20.5162 10.7593L22.8014 8.14389C22.9547 7.98042 23.1916 7.98042 23.3309 8.14389L25.6161 10.7593C25.7694 10.9228 26.0063 10.9228 26.1456 10.7593L28.4308 8.14389C28.5841 7.98042 28.821 7.98042 28.9603 8.14389L31.2456 10.7593C31.3988 10.9228 31.6357 10.9228 31.7751 10.7593L34.0603 8.14389C34.2135 7.98042 34.4504 7.98042 34.5898 8.14389L36.6102 10.4621C36.7635 10.6256 37.0004 10.6256 37.1397 10.4621C37.2791 10.2987 37.2791 10.0163 37.1397 9.85285L34.5898 6.92533C34.4365 6.747 34.1996 6.747 34.0463 6.91047Z" fill="#3C91E6"/>
<g clip-path="url(#clip0)">
<path d="M34.0463 13.3811L31.775 16.0114C31.6217 16.1748 31.3849 16.1748 31.2455 16.0114L28.9603 13.3959C28.807 13.2325 28.5701 13.2325 28.4308 13.3959L26.1456 16.0114C25.9923 16.1748 25.7554 16.1748 25.6161 16.0114L23.3309 13.3811C23.1776 13.2176 22.9407 13.2176 22.8014 13.3811L20.5161 16.0114C20.3629 16.1748 20.126 16.1748 19.9866 16.0114L17.7014 13.3811C17.5481 13.2176 17.3113 13.2176 17.1719 13.3811L14.8867 16.0114C14.7334 16.1748 14.4965 16.1748 14.3572 16.0114L12.3367 13.6931C12.1835 13.5297 11.9466 13.5297 11.8072 13.6931C11.654 13.8566 11.654 14.1389 11.8072 14.3024L14.3572 17.2299C14.5105 17.3934 14.7474 17.3934 14.8867 17.2299L17.1719 14.6145C17.3252 14.451 17.5621 14.451 17.7014 14.6145L19.9866 17.2299C20.1399 17.3934 20.3768 17.3934 20.5161 17.2299L22.8014 14.6145C22.9546 14.451 23.1915 14.451 23.3309 14.6145L25.6161 17.2299C25.7694 17.3934 26.0062 17.3934 26.1456 17.2299L28.4308 14.6145C28.5841 14.451 28.821 14.451 28.9603 14.6145L31.2455 17.2299C31.3988 17.3934 31.6357 17.3934 31.775 17.2299L34.0602 14.6145C34.2135 14.451 34.4504 14.451 34.5897 14.6145L36.6102 16.9327C36.7635 17.0962 37.0004 17.0962 37.1397 16.9327C37.279 16.7693 37.279 16.4869 37.1397 16.3234L34.5897 13.3959C34.4365 13.2176 34.1996 13.2176 34.0463 13.3811Z" fill="#3C91E6"/>
</g>
<g clip-path="url(#clip1)">
<path d="M34.0463 19.8516L31.775 22.4819C31.6217 22.6453 31.3849 22.6453 31.2455 22.4819L28.9603 19.8664C28.807 19.703 28.5701 19.703 28.4308 19.8664L26.1456 22.4819C25.9923 22.6453 25.7554 22.6453 25.6161 22.4819L23.3309 19.8516C23.1776 19.6881 22.9407 19.6881 22.8014 19.8516L20.5161 22.4819C20.3629 22.6453 20.126 22.6453 19.9866 22.4819L17.7014 19.8516C17.5481 19.6881 17.3113 19.6881 17.1719 19.8516L14.8867 22.4819C14.7334 22.6453 14.4965 22.6453 14.3572 22.4819L12.3367 20.1636C12.1835 20.0002 11.9466 20.0002 11.8072 20.1636C11.654 20.3271 11.654 20.6095 11.8072 20.7729L14.3572 23.7004C14.5105 23.8639 14.7474 23.8639 14.8867 23.7004L17.1719 21.085C17.3252 20.9215 17.5621 20.9215 17.7014 21.085L19.9866 23.7004C20.1399 23.8639 20.3768 23.8639 20.5161 23.7004L22.8014 21.085C22.9546 20.9215 23.1915 20.9215 23.3309 21.085L25.6161 23.7004C25.7694 23.8639 26.0062 23.8639 26.1456 23.7004L28.4308 21.085C28.5841 20.9215 28.821 20.9215 28.9603 21.085L31.2455 23.7004C31.3988 23.8639 31.6357 23.8639 31.775 23.7004L34.0602 21.085C34.2135 20.9215 34.4504 20.9215 34.5897 21.085L36.6102 23.4032C36.7635 23.5667 37.0004 23.5667 37.1397 23.4032C37.279 23.2398 37.279 22.9574 37.1397 22.794L34.5897 19.8664C34.4365 19.6881 34.1996 19.6881 34.0463 19.8516Z" fill="#3C91E6"/>
</g>
<path d="M54.354 24.1412L52.0827 26.7715C51.9295 26.935 51.6926 26.935 51.5532 26.7715L49.268 24.1561C49.1147 23.9926 48.8779 23.9926 48.7385 24.1561L46.4533 26.7715C46.3 26.935 46.0631 26.935 45.9238 26.7715L43.6386 24.1412C43.4853 23.9778 43.2484 23.9778 43.1091 24.1412L40.8239 26.7715C40.6706 26.935 40.4337 26.935 40.2944 26.7715L38.0091 24.1412C37.8559 23.9778 37.619 23.9778 37.4796 24.1412L35.1944 26.7715C35.0412 26.935 34.8043 26.935 34.6649 26.7715L32.6445 24.4533C32.4912 24.2898 32.2543 24.2898 32.115 24.4533C31.9617 24.6168 31.9617 24.8991 32.115 25.0626L34.6649 27.9901C34.8182 28.1536 35.0551 28.1536 35.1944 27.9901L37.4796 25.3747C37.6329 25.2112 37.8698 25.2112 38.0091 25.3747L40.2944 27.9901C40.4476 28.1536 40.6845 28.1536 40.8239 27.9901L43.1091 25.3747C43.2624 25.2112 43.4992 25.2112 43.6386 25.3747L45.9238 27.9901C46.0771 28.1536 46.314 28.1536 46.4533 27.9901L48.7385 25.3747C48.8918 25.2112 49.1287 25.2112 49.268 25.3747L51.5532 27.9901C51.7065 28.1536 51.9434 28.1536 52.0827 27.9901L54.368 25.3747C54.5212 25.2112 54.7581 25.2112 54.8975 25.3747L56.9179 27.6929C57.0712 27.8564 57.3081 27.8564 57.4474 27.6929C57.5868 27.5294 57.5868 27.2471 57.4474 27.0836L54.8975 24.1561C54.7442 23.9778 54.5073 23.9778 54.354 24.1412Z" fill="#3C91E6"/>
<g clip-path="url(#clip2)">
<path d="M54.354 30.6118L52.0827 33.2421C51.9294 33.4056 51.6925 33.4056 51.5532 33.2421L49.268 30.6267C49.1147 30.4632 48.8778 30.4632 48.7385 30.6267L46.4533 33.2421C46.3 33.4056 46.0631 33.4056 45.9238 33.2421L43.6385 30.6118C43.4853 30.4484 43.2484 30.4484 43.109 30.6118L40.8238 33.2421C40.6706 33.4056 40.4337 33.4056 40.2943 33.2421L38.0091 30.6118C37.8558 30.4484 37.6189 30.4484 37.4796 30.6118L35.1944 33.2421C35.0411 33.4056 34.8042 33.4056 34.6649 33.2421L32.6444 30.9239C32.4911 30.7604 32.2543 30.7604 32.1149 30.9239C31.9616 31.0874 31.9616 31.3697 32.1149 31.5332L34.6649 34.4607C34.8182 34.6242 35.055 34.6242 35.1944 34.4607L37.4796 31.8453C37.6329 31.6818 37.8698 31.6818 38.0091 31.8453L40.2943 34.4607C40.4476 34.6242 40.6845 34.6242 40.8238 34.4607L43.109 31.8453C43.2623 31.6818 43.4992 31.6818 43.6385 31.8453L45.9238 34.4607C46.077 34.6242 46.3139 34.6242 46.4533 34.4607L48.7385 31.8453C48.8918 31.6818 49.1286 31.6818 49.268 31.8453L51.5532 34.4607C51.7065 34.6242 51.9434 34.6242 52.0827 34.4607L54.3679 31.8453C54.5212 31.6818 54.7581 31.6818 54.8974 31.8453L56.9179 34.1635C57.0712 34.327 57.308 34.327 57.4474 34.1635C57.5867 34 57.5867 33.7177 57.4474 33.5542L54.8974 30.6267C54.7441 30.4484 54.5073 30.4484 54.354 30.6118Z" fill="#3C91E6"/>
</g>
<g clip-path="url(#clip3)">
<path d="M54.354 37.0823L52.0827 39.7126C51.9294 39.8761 51.6925 39.8761 51.5532 39.7126L49.268 37.0972C49.1147 36.9337 48.8778 36.9337 48.7385 37.0972L46.4533 39.7126C46.3 39.8761 46.0631 39.8761 45.9238 39.7126L43.6385 37.0823C43.4853 36.9189 43.2484 36.9189 43.109 37.0823L40.8238 39.7126C40.6706 39.8761 40.4337 39.8761 40.2943 39.7126L38.0091 37.0823C37.8558 36.9189 37.6189 36.9189 37.4796 37.0823L35.1944 39.7126C35.0411 39.8761 34.8042 39.8761 34.6649 39.7126L32.6444 37.3944C32.4911 37.2309 32.2543 37.2309 32.1149 37.3944C31.9616 37.5579 31.9616 37.8402 32.1149 38.0037L34.6649 40.9312C34.8182 41.0947 35.055 41.0947 35.1944 40.9312L37.4796 38.3158C37.6329 38.1523 37.8698 38.1523 38.0091 38.3158L40.2943 40.9312C40.4476 41.0947 40.6845 41.0947 40.8238 40.9312L43.109 38.3158C43.2623 38.1523 43.4992 38.1523 43.6385 38.3158L45.9238 40.9312C46.077 41.0947 46.3139 41.0947 46.4533 40.9312L48.7385 38.3158C48.8918 38.1523 49.1286 38.1523 49.268 38.3158L51.5532 40.9312C51.7065 41.0947 51.9434 41.0947 52.0827 40.9312L54.3679 38.3158C54.5212 38.1523 54.7581 38.1523 54.8974 38.3158L56.9179 40.634C57.0712 40.7975 57.308 40.7975 57.4474 40.634C57.5867 40.4705 57.5867 40.1882 57.4474 40.0247L54.8974 37.0972C54.7441 36.9189 54.5073 36.9189 54.354 37.0823Z" fill="#3C91E6"/>
</g>
</g>
<mask id="mask0" mask-type="alpha" maskUnits="userSpaceOnUse" x="0" y="0" width="64" height="64">
<rect y="64" width="64" height="64" rx="32" transform="rotate(-90 0 64)" fill="#C4C4C4"/>
</mask>
<g mask="url(#mask0)">
<path d="M21.1883 20.1833C24.7187 17.0718 31.7454 37.2162 31.7058 38.7351C31.5473 44.8279 30.4642 51.1377 27.3867 52.9283C24.5489 52.9698 20.9506 52.317 18.3089 51.4509C18.1674 49.0847 17.1692 40.656 17.2164 37.0445C17.2617 33.7179 20.5053 20.7852 21.1883 20.1833Z" fill="#FBC08B"/>
<path d="M9.97833 79.7806C12.6709 69.4197 16.3277 57.7625 18.4316 50.8358C22.2507 49.7074 24.396 50.5131 27.6377 52.0396C26.7433 60.257 24.8697 78.0749 23.7432 88.8566C18.5165 86.6602 13.837 83.5714 9.97833 79.7806Z" fill="#FBC08B"/>
<g clip-path="url(#clip4)">
<path d="M40.3184 44.2921H24.6585C23.1182 44.2921 21.8576 43.0332 21.8576 41.494V7.10577C21.8576 5.56661 23.1178 4.30769 24.6585 4.30769H40.3187C41.859 4.30769 43.1196 5.56661 43.1196 7.10577V41.494C43.1192 43.0328 41.859 44.2921 40.3184 44.2921Z" fill="#3C91E6"/>
<path d="M42.0961 7.7356V41.1092C42.0961 42.2413 41.1755 43.1675 40.0506 43.1675H25.1114C23.9868 43.1675 23.0663 42.2413 23.0663 41.1092V7.7356C23.0663 6.60351 23.9865 5.67734 25.1114 5.67734H40.051C41.1751 5.67698 42.0961 6.60315 42.0961 7.7356Z" fill="#EBF4FC"/>
<path d="M-56 22.7692C-56 21.4098 -54.8979 20.3077 -53.5385 20.3077H-52.3077C-50.9482 20.3077 -49.8462 21.4098 -49.8462 22.7692V24C-49.8462 25.3595 -50.9482 26.4616 -52.3077 26.4616H-53.5385C-54.8979 26.4616 -56 25.3595 -56 24V22.7692Z" fill="#EBF4FC"/>
<path d="M-49.2308 22.7692C-49.2308 21.4098 -48.1287 20.3077 -46.7692 20.3077H-45.5385C-44.179 20.3077 -43.0769 21.4098 -43.0769 22.7692V24C-43.0769 25.3595 -44.179 26.4616 -45.5385 26.4616H-46.7692C-48.1287 26.4616 -49.2308 25.3595 -49.2308 24V22.7692Z" fill="#EBF4FC"/>
<path d="M-52.2999 17.2308C-52.9751 17.2308 -53.5953 17.0724 -54.1603 16.7557C-54.7253 16.439 -55.1732 16.0017 -55.5039 15.444C-55.8346 14.8794 -56 14.2425 -56 13.5333C-56 12.831 -55.8346 12.201 -55.5039 11.6433C-55.1732 11.0787 -54.7253 10.638 -54.1603 10.3213C-53.5953 10.0045 -52.9751 9.84616 -52.2999 9.84616C-51.6177 9.84616 -50.9976 10.0045 -50.4395 10.3213C-49.8745 10.638 -49.4301 11.0787 -49.1062 11.6433C-48.7755 12.201 -48.6101 12.831 -48.6101 13.5333C-48.6101 14.2425 -48.7755 14.8794 -49.1062 15.444C-49.4301 16.0017 -49.8745 16.439 -50.4395 16.7557C-51.0045 17.0724 -51.6246 17.2308 -52.2999 17.2308ZM-52.2999 15.9398C-51.8658 15.9398 -51.4834 15.8434 -51.1526 15.6506C-50.8219 15.4509 -50.5635 15.1686 -50.3775 14.8037C-50.1914 14.4387 -50.0984 14.0153 -50.0984 13.5333C-50.0984 13.0513 -50.1914 12.6313 -50.3775 12.2733C-50.5635 11.9083 -50.8219 11.6295 -51.1526 11.4367C-51.4834 11.2439 -51.8658 11.1475 -52.2999 11.1475C-52.734 11.1475 -53.1198 11.2439 -53.4575 11.4367C-53.7882 11.6295 -54.0466 11.9083 -54.2326 12.2733C-54.4187 12.6313 -54.5117 13.0513 -54.5117 13.5333C-54.5117 14.0153 -54.4187 14.4387 -54.2326 14.8037C-54.0466 15.1686 -53.7882 15.4509 -53.4575 15.6506C-53.1198 15.8434 -52.734 15.9398 -52.2999 15.9398Z" fill="#EBF4FC"/>
<path d="M-42.6242 9.94944V11.1165H-44.5466V17.1585H-45.9936V11.1165H-47.916V9.94944H-42.6242Z" fill="#EBF4FC"/>
<path d="M-36.3077 12.1803C-36.3077 12.5659 -36.4007 12.9274 -36.5868 13.2648C-36.7659 13.6022 -37.0518 13.8741 -37.4446 14.0807C-37.8305 14.2873 -38.3197 14.3905 -38.9122 14.3905H-40.1215V17.1585H-41.5685V9.94944H-38.9122C-38.3541 9.94944 -37.8787 10.0458 -37.4859 10.2386C-37.0932 10.4314 -36.8004 10.6965 -36.6074 11.0339C-36.4076 11.3713 -36.3077 11.7534 -36.3077 12.1803ZM-38.9743 13.2235C-38.5746 13.2235 -38.2783 13.134 -38.0854 12.9549C-37.8925 12.769 -37.796 12.5108 -37.796 12.1803C-37.796 11.478 -38.1888 11.1269 -38.9743 11.1269H-40.1215V13.2235H-38.9743Z" fill="#EBF4FC"/>
<path d="M-42.4615 22.7692C-42.4615 21.4098 -41.3595 20.3077 -40 20.3077H-38.7692C-37.4098 20.3077 -36.3077 21.4098 -36.3077 22.7692V24C-36.3077 25.3595 -37.4098 26.4616 -38.7692 26.4616H-40C-41.3595 26.4616 -42.4615 25.3595 -42.4615 24V22.7692Z" fill="#EBF4FC"/>
<path d="M59.0769 -6.15384H120.615V55.3846H59.0769V-6.15384Z" fill="#EBF4FC"/>
<path d="M40.0506 5.67702L25.2962 43.1672H25.1114C23.9868 43.1672 23.0663 42.241 23.0663 41.1089V7.73565C23.0663 6.60355 23.9865 5.67739 25.1114 5.67739H40.0506V5.67702Z" fill="#EBF4FC"/>
<path d="M35.631 6.54783H29.3462C28.8342 6.54783 28.4153 6.12928 28.4153 5.6178V5.4715C28.4153 4.96002 28.8342 4.54147 29.3462 4.54147H35.631C36.143 4.54147 36.5619 4.96002 36.5619 5.4715V5.6178C36.5616 6.12964 36.1426 6.54783 35.631 6.54783Z" fill="#3C91E6"/>
<rect x="24.311" y="31.2436" width="16.355" height="4.38185" rx="2.19093" fill="#D30000"/>
<rect x="24.6154" y="20.8319" width="5.01425" height="5.01424" rx="2.50712" fill="#8ABDF0"/>
<rect x="30.131" y="20.8319" width="5.01425" height="5.01424" rx="2.50712" fill="#8ABDF0"/>
<path d="M27.6303 18.3248C27.0801 18.3248 26.5748 18.1958 26.1144 17.9377C25.654 17.6796 25.2891 17.3233 25.0196 16.8689C24.7501 16.4089 24.6154 15.8899 24.6154 15.312C24.6154 14.7398 24.7501 14.2264 25.0196 13.772C25.2891 13.3119 25.654 12.9529 26.1144 12.6948C26.5748 12.4367 27.0801 12.3077 27.6303 12.3077C28.1861 12.3077 28.6914 12.4367 29.1462 12.6948C29.6065 12.9529 29.9687 13.3119 30.2325 13.772C30.502 14.2264 30.6368 14.7398 30.6368 15.312C30.6368 15.8899 30.502 16.4089 30.2325 16.8689C29.9687 17.3233 29.6065 17.6796 29.1462 17.9377C28.6858 18.1958 28.1805 18.3248 27.6303 18.3248ZM27.6303 17.2728C27.984 17.2728 28.2956 17.1943 28.5651 17.0372C28.8346 16.8745 29.0451 16.6445 29.1967 16.3471C29.3483 16.0498 29.4241 15.7048 29.4241 15.312C29.4241 14.9193 29.3483 14.5771 29.1967 14.2853C29.0451 13.988 28.8346 13.7608 28.5651 13.6037C28.2956 13.4466 27.984 13.368 27.6303 13.368C27.2766 13.368 26.9622 13.4466 26.6871 13.6037C26.4176 13.7608 26.207 13.988 26.0555 14.2853C25.9039 14.5771 25.8281 14.9193 25.8281 15.312C25.8281 15.7048 25.9039 16.0498 26.0555 16.3471C26.207 16.6445 26.4176 16.8745 26.6871 17.0372C26.9622 17.1943 27.2766 17.2728 27.6303 17.2728Z" fill="#8ABDF0"/>
<path d="M35.5141 12.3918V13.3428H33.9477V18.2659H32.7687V13.3428H31.2023V12.3918H35.5141Z" fill="#8ABDF0"/>
<path d="M40.661 14.2096C40.661 14.5238 40.5852 14.8183 40.4336 15.0932C40.2876 15.3681 40.0546 15.5897 39.7346 15.7581C39.4202 15.9264 39.0216 16.0105 38.5387 16.0105H37.5534V18.2659H36.3744V12.3918H38.5387C38.9935 12.3918 39.3809 12.4704 39.7009 12.6275C40.0209 12.7846 40.2595 13.0006 40.4167 13.2755C40.5795 13.5504 40.661 13.8618 40.661 14.2096ZM38.4882 15.0596C38.8138 15.0596 39.0552 14.9866 39.2125 14.8408C39.3697 14.6893 39.4483 14.4789 39.4483 14.2096C39.4483 13.6373 39.1282 13.3512 38.4882 13.3512H37.5534V15.0596H38.4882Z" fill="#8ABDF0"/>
<rect x="35.6467" y="20.8319" width="5.01425" height="5.01424" rx="2.50712" fill="#8ABDF0"/>
</g>
<path d="M24.7093 50.8772C25.7905 51.0376 28.8756 45.9468 26.8509 40.0446C29.6096 37.6671 31.0096 30.9781 28.8284 30.095C27.317 29.4837 19.5147 41.9088 19.5751 43.1693C19.6883 45.4807 24.7452 49.3771 24.7093 50.8772Z" fill="#FBC08B"/>
<path d="M26.8359 40.0786C27.2227 41.0144 27.5057 41.9975 27.6623 43.0108C27.817 44.0221 27.8416 45.0731 27.6416 46.1015C27.4491 47.1299 27.0151 48.1186 26.3981 48.9526C25.783 49.7904 24.9962 50.4753 24.1338 51.0074C24.8244 50.2659 25.4754 49.5092 25.9754 48.6696C26.4774 47.8337 26.8189 46.9242 27.0019 45.977C27.1849 45.0297 27.2151 44.0486 27.1585 43.0617C27.1019 42.0749 26.9623 41.0843 26.8359 40.0786Z" fill="#F7A079"/>
<path d="M40.4939 54.8955C37.0911 52.4922 33.6535 50.1704 33.2263 51.1661C32.657 52.493 37.9519 60.2788 43.2752 62.7448C45.2836 63.6727 45.7584 54.2765 40.4939 54.8955Z" fill="#FBC08B"/>
<path d="M35.4925 35.6871C36.1193 47.153 43.6191 60.7777 44.4448 61.183C47.7566 62.8081 54.3976 62.2925 54.6483 61.0734C55.5636 56.6188 54.2884 49.5702 51.003 46.1835C49.9005 45.0459 43.1285 44.8821 41.8613 45.5219C40.2387 42.6611 38.8413 37.968 38.4589 35.9686C37.6116 31.534 35.3187 32.492 35.4925 35.6871Z" fill="#FBC08B"/>
<path d="M24.1432 97.0739C25.5395 83.1845 28.051 67.6743 28.5755 58.2059C24.5621 55.7699 20.7129 54.6283 15.4598 54.634C12.0464 64.8402 4.93848 86.1016 1.23074 99.5457C9.32738 100.085 17.1146 99.2419 24.1432 97.0739Z" fill="#3C91E6"/>
<path d="M28.5755 58.2059C28.0831 57.9078 27.5944 57.6285 27.1038 57.3681C25.6263 65.2591 23.2394 73.667 19.9279 82.1882C17.5335 88.3452 14.8239 94.1322 11.9049 99.4401C16.1655 99.0589 20.2695 98.2683 24.1432 97.072C25.5377 83.1845 28.051 67.6743 28.5755 58.2059Z" fill="#3682C1"/>
<path d="M41.5522 59.837C41.5522 59.837 47.118 69.8311 47.5989 71.4554C50.2022 71.2872 53.8373 68.1794 54.8606 67.9658C54.8606 67.9658 53.8667 58.6884 53.9553 55.8372L41.5522 59.837Z" fill="#FBC08B"/>
<path d="M73.5991 98.8504C66.8605 86.3632 59.9836 72.0111 55.1007 63.6789C51.0249 63.2991 47.776 63.9581 44.2092 66.1996C47.5374 76.3921 54.4721 97.6224 59.3926 110.712C65.1948 107.731 70.0214 103.695 73.5991 98.8504Z" fill="#3C91E6"/>
<path d="M55.4107 63.8201C54.9693 63.7665 54.5401 63.7271 54.1194 63.7048C57.2514 70.9872 60.1098 79.0744 62.4816 87.6336C64.1953 93.8182 65.5338 99.8152 66.5061 105.491C68.8221 103.45 70.8387 101.123 72.5136 98.5476C66.2905 86.2139 59.9032 72.0558 55.4107 63.8201Z" fill="#3C91E6"/>
</g>
<defs>
<linearGradient id="paint0_linear" x1="56.5106" y1="114.435" x2="1.62787e-06" y2="85.473" gradientUnits="userSpaceOnUse">
<stop stop-color="#98C5F2"/>
<stop offset="1" stop-color="#8CC1F7"/>
</linearGradient>
<clipPath id="clip0">
<rect width="25.5415" height="4.08664" fill="white" transform="matrix(1 0 0 -1 11.6965 17.3484)"/>
</clipPath>
<clipPath id="clip1">
<rect width="25.5415" height="4.08664" fill="white" transform="matrix(1 0 0 -1 11.6965 23.8189)"/>
</clipPath>
<clipPath id="clip2">
<rect width="25.5415" height="4.08664" fill="white" transform="matrix(1 0 0 -1 32.0042 34.5791)"/>
</clipPath>
<clipPath id="clip3">
<rect width="25.5415" height="4.08664" fill="white" transform="matrix(1 0 0 -1 32.0042 41.0496)"/>
</clipPath>
<clipPath id="clip4">
<rect width="21.2616" height="39.9844" fill="white" transform="translate(21.8576 4.30769)"/>
</clipPath>
</defs>
</svg>
