<svg width="104" height="104" viewBox="0 0 104 104" fill="none" xmlns="http://www.w3.org/2000/svg">
<rect y="104" width="104" height="104" rx="52" transform="rotate(-90 0 104)" fill="url(#paint0_linear)" fill-opacity="0.4"/>
<g opacity="0.3">
<circle r="1.85338" transform="matrix(1 1.09038e-07 2.80371e-07 -1 22.8534 85.8007)" fill="#3C91E6"/>
<circle r="1.85338" transform="matrix(1 1.09038e-07 2.80371e-07 -1 31.5025 85.8007)" fill="#3C91E6"/>
<circle r="1.85338" transform="matrix(1 1.09037e-07 2.80372e-07 -1 40.1516 85.8007)" fill="#3C91E6"/>
<circle r="1.85338" transform="matrix(1 1.09038e-07 2.80369e-07 -1 48.8008 85.8007)" fill="#3C91E6"/>
<circle r="1.85338" transform="matrix(1 1.09037e-07 2.80372e-07 -1 57.4498 85.8007)" fill="#3C91E6"/>
<circle r="1.85338" transform="matrix(1 7.14571e-08 5.00539e-07 -1 22.8534 77.1516)" fill="#3C91E6"/>
<circle r="1.85338" transform="matrix(1 7.14575e-08 5.00534e-07 -1 31.5025 77.1515)" fill="#3C91E6"/>
<circle r="1.85338" transform="matrix(1 7.14575e-08 5.00534e-07 -1 40.1516 77.1515)" fill="#3C91E6"/>
<circle r="1.85338" transform="matrix(1 7.1458e-08 5.00528e-07 -1 48.8008 77.1515)" fill="#3C91E6"/>
<circle r="1.85338" transform="matrix(1 7.14575e-08 5.00534e-07 -1 57.4498 77.1515)" fill="#3C91E6"/>
<circle r="1.85338" transform="matrix(1 7.14575e-08 5.00533e-07 -1 22.8534 68.5025)" fill="#3C91E6"/>
<circle r="1.85338" transform="matrix(1 7.1457e-08 5.00539e-07 -1 31.5025 68.5025)" fill="#3C91E6"/>
<circle r="1.85338" transform="matrix(1 7.1457e-08 5.00539e-07 -1 40.1516 68.5025)" fill="#3C91E6"/>
<circle r="1.85338" transform="matrix(1 7.14575e-08 5.00533e-07 -1 48.8008 68.5025)" fill="#3C91E6"/>
<circle r="1.85338" transform="matrix(1 7.1457e-08 5.00539e-07 -1 57.4498 68.5025)" fill="#3C91E6"/>
<circle r="1.85338" transform="matrix(1 7.14583e-08 5.00527e-07 -1 22.8534 59.8534)" fill="#3C91E6"/>
<circle r="1.85338" transform="matrix(1 7.14581e-08 5.00529e-07 -1 31.5025 59.8533)" fill="#3C91E6"/>
<circle r="1.85338" transform="matrix(1 7.14581e-08 5.00529e-07 -1 40.1516 59.8533)" fill="#3C91E6"/>
<circle r="1.85338" transform="matrix(1 7.14585e-08 5.00524e-07 -1 48.8008 59.8533)" fill="#3C91E6"/>
<circle r="1.85338" transform="matrix(1 7.14581e-08 5.00529e-07 -1 57.4498 59.8533)" fill="#3C91E6"/>
</g>
<mask id="mask0" mask-type="alpha" maskUnits="userSpaceOnUse" x="0" y="0" width="104" height="104">
<rect y="104" width="104" height="104" rx="52" transform="rotate(-90 0 104)" fill="#C4C4C4"/>
</mask>
<g mask="url(#mask0)">
<path d="M73.763 33.2061C68.4143 28.492 57.7684 59.012 57.8284 61.3133C58.0685 70.5442 59.7094 80.1038 64.3721 82.8167C68.6716 82.8796 74.1232 81.8905 78.1255 80.5783C78.3399 76.9935 79.8522 64.2235 79.7807 58.7518C79.7121 53.7119 74.7979 34.118 73.763 33.2061Z" fill="#FBC08B"/>
<path d="M90.7468 123.5C86.6673 107.802 81.1271 90.1409 77.9396 79.6464C72.1535 77.9369 68.9031 79.1576 63.9918 81.4703C65.3468 93.9201 68.1856 120.915 69.8922 137.25C77.8109 133.923 84.9006 129.243 90.7468 123.5Z" fill="#FBC08B"/>
<g clip-path="url(#clip0)">
<path d="M17.0983 40.0161L23.239 17.0988C23.843 14.8447 26.1796 13.4937 28.432 14.0972L78.757 27.5817C81.0094 28.1853 82.3576 30.5231 81.7535 32.7777L75.6127 55.6955C75.0087 57.9496 72.6721 59.3007 70.4196 58.6971L20.0947 45.2126C17.8429 44.6087 16.4942 42.2707 17.0983 40.0161Z" fill="#3C91E6"/>
<path d="M69.8981 56.952L21.058 43.8654C19.4013 43.4215 18.4069 41.7111 18.848 40.0649L24.706 18.2023C25.147 16.5566 26.8633 15.5726 28.5201 16.0165L77.3602 29.1032C79.0169 29.5471 80.0114 31.2569 79.5703 32.9031L73.7121 54.7662C73.2718 56.4115 71.5553 57.3961 69.8981 56.952Z" fill="#EBF4FC"/>
<path d="M73.7139 54.7661L24.6352 18.4732L24.7077 18.2027C25.1486 16.557 26.865 15.573 28.5217 16.0169L77.3613 29.1034C79.018 29.5474 80.0126 31.2572 79.5715 32.9034L73.7134 54.766L73.7139 54.7661Z" fill="#EBF4FC"/>
<rect x="28.8479" y="22.1725" width="12.5004" height="2.8847" rx="1.44235" transform="rotate(15 28.8479 22.1725)" fill="#847F82"/>
<rect x="27.1058" y="28.6741" width="29.8086" height="2.8847" rx="1.44235" transform="rotate(15 27.1058 28.6741)" fill="#847F82"/>
<rect x="25.3636" y="35.1758" width="29.8086" height="2.8847" rx="1.44235" transform="rotate(15 25.3636 35.1758)" fill="#847F82"/>
<g clip-path="url(#clip1)">
<path d="M69.6656 31.4504C66.2476 30.5346 62.7303 32.5653 61.8144 35.9833C60.8986 39.4013 62.9293 42.9186 66.3473 43.8345C69.7653 44.7503 73.2826 42.7196 74.1985 39.3016C75.1143 35.8836 73.0836 32.3663 69.6656 31.4504ZM69.1678 33.308C70.1957 33.5835 70.8031 34.6355 70.5277 35.6634C70.2523 36.6913 69.2002 37.2987 68.1724 37.0232C67.1445 36.7478 66.5371 35.6958 66.8125 34.6679C67.0879 33.64 68.14 33.0326 69.1678 33.308ZM66.8119 42.1007C66.0762 41.9036 65.4007 41.5274 64.8456 41.0059C64.2906 40.4843 63.8733 39.8334 63.6309 39.1114C63.9796 37.8842 66.6187 37.8679 67.8571 38.1997C69.0893 38.5299 71.3729 39.8652 71.0613 41.1024C70.4904 41.6065 69.8035 41.9614 69.0621 42.1356C68.3206 42.3098 67.5476 42.2978 66.8119 42.1007Z" fill="#D30000"/>
</g>
</g>
<g clip-path="url(#clip2)">
<path d="M18.4039 55.8733L18.4039 32.1477C18.4039 29.814 20.3112 27.9043 22.6431 27.9043L74.7434 27.9043C77.0753 27.9043 78.9826 29.8135 78.9826 32.1477L78.9826 55.8739C78.9826 58.2075 77.0753 60.1173 74.7434 60.1173L22.6431 60.1173C20.3118 60.1167 18.4039 58.2075 18.4039 55.8733Z" fill="#3C91E6"/>
<path d="M73.7879 58.5666L23.2249 58.5666C21.5098 58.5666 20.1066 57.1719 20.1066 55.4676L20.1066 32.8338C20.1066 31.1301 21.5098 29.7353 23.2249 29.7353L73.7879 29.7354C75.5031 29.7354 76.9063 31.1295 76.9063 32.8338L76.9063 55.4682C76.9068 57.1714 75.5036 58.5666 73.7879 58.5666Z" fill="#EBF4FC"/>
<path d="M76.908 55.4676L20.1083 33.1138L20.1083 32.8338C20.1083 31.1301 21.5115 29.7353 23.2266 29.7353L73.7891 29.7354C75.5043 29.7354 76.9074 31.1295 76.9074 32.8338L76.9074 55.4676L76.908 55.4676Z" fill="#EBF4FC"/>
<rect x="25.1349" y="35.5968" width="12.5004" height="2.8847" rx="1.44235" fill="#847F82"/>
<rect x="25.1349" y="42.3278" width="29.8086" height="2.8847" rx="1.44235" fill="#847F82"/>
<rect x="25.1349" y="49.0587" width="29.8086" height="2.8847" rx="1.44235" fill="#847F82"/>
<path d="M66.963 33.9942C63.4245 33.9942 60.5526 36.8661 60.5526 40.4046C60.5526 43.9432 63.4245 46.8151 66.963 46.8151C70.5016 46.8151 73.3735 43.9432 73.3735 40.4046C73.3735 36.8661 70.5016 33.9942 66.963 33.9942ZM66.963 35.9173C68.0272 35.9173 68.8862 36.7763 68.8862 37.8405C68.8862 38.9046 68.0272 39.7636 66.963 39.7636C65.8989 39.7636 65.0399 38.9046 65.0399 37.8405C65.0399 36.7763 65.8989 35.9173 66.963 35.9173ZM66.963 45.0202C66.2014 45.0202 65.4516 44.8317 64.7804 44.4715C64.1093 44.1114 63.5378 43.5907 63.1168 42.956C63.136 41.6803 65.6809 40.9816 66.963 40.9816C68.2387 40.9816 70.7901 41.6803 70.8093 42.956C70.3883 43.5907 69.8167 44.1114 69.1456 44.4715C68.4745 44.8317 67.7247 45.0202 66.963 45.0202Z" fill="#D30000"/>
</g>
<path d="M68.4286 79.7093C66.7905 79.9523 62.1165 72.2394 65.1839 63.2972C61.0044 59.6952 58.8832 49.5609 62.188 48.223C64.4778 47.2968 76.2987 66.1216 76.2072 68.0313C76.0357 71.5332 68.3743 77.4366 68.4286 79.7093Z" fill="#FBC08B"/>
<path d="M65.2068 63.3487C64.6208 64.7666 64.192 66.256 63.9547 67.7912C63.7203 69.3235 63.6831 70.9158 63.9861 72.4738C64.2777 74.0318 64.9352 75.5298 65.87 76.7934C66.802 78.0626 67.9941 79.1004 69.3005 79.9065C68.2542 78.783 67.268 77.6367 66.5104 76.3645C65.75 75.0981 65.2325 73.7202 64.9552 72.2851C64.6779 70.85 64.6322 69.3635 64.718 67.8684C64.8037 66.3732 65.0153 64.8724 65.2068 63.3487Z" fill="#F7A079"/>
<path d="M69.2863 149.7C67.1708 128.657 63.3658 105.158 62.5711 90.8126C68.6516 87.122 74.4835 85.3924 82.4422 85.401C87.6137 100.864 98.3826 133.076 104 153.445C91.7331 154.262 79.9351 152.985 69.2863 149.7Z" fill="#3C91E6"/>
<path d="M62.5711 90.8126C63.3172 90.3609 64.0576 89.9378 64.8009 89.5433C67.0393 101.499 70.6556 114.237 75.6727 127.147C79.3004 136.475 83.4056 145.243 87.8281 153.285C81.373 152.707 75.1552 151.509 69.2862 149.697C67.1736 128.657 63.3658 105.158 62.5711 90.8126Z" fill="#3682C1"/>
</g>
<defs>
<linearGradient id="paint0_linear" x1="91.8298" y1="185.957" x2="2.64528e-06" y2="138.894" gradientUnits="userSpaceOnUse">
<stop stop-color="#98C5F2"/>
<stop offset="1" stop-color="#8CC1F7"/>
</linearGradient>
<clipPath id="clip0">
<rect width="32.2125" height="60.5787" fill="white" transform="translate(82.8518 28.6789) rotate(105)"/>
</clipPath>
<clipPath id="clip1">
<rect width="15.3851" height="15.3851" fill="white" transform="translate(62.567 28.2211) rotate(15)"/>
</clipPath>
<clipPath id="clip2">
<rect width="32.2125" height="60.5787" fill="white" transform="translate(78.9826 27.9043) rotate(90)"/>
</clipPath>
</defs>
</svg>
