<svg width="64" height="64" viewBox="0 0 64 64" fill="none" xmlns="http://www.w3.org/2000/svg">
<rect x="-0.5" y="-0.5" width="63" height="63" rx="31.5" transform="matrix(-1.19249e-08 -1 -1 1.19249e-08 63 63)" fill="#CCF5E0" stroke="#CCF5E0"/>
<rect width="40" height="40" rx="20" transform="matrix(-1.19249e-08 -1 -1 1.19249e-08 52 52)" fill="#00CC66"/>
<path d="M35.5925 23.0272C34.6804 22.0423 33.4063 21.5 32 21.5C30.5863 21.5 29.308 22.0391 28.4 23.0178C27.4822 24.0073 27.035 25.3522 27.14 26.8044C27.3482 29.6694 29.5283 32 32 32C34.4718 32 36.6482 29.6698 36.8596 26.8053C36.966 25.3662 36.516 24.0242 35.5925 23.0272Z" fill="white"/>
<path fill-rule="evenodd" clip-rule="evenodd" d="M34.4295 42.5C33.5454 41.5981 33.0002 40.3627 33.0002 39C33.0002 36.8441 34.3647 35.0069 36.2772 34.3048C34.956 33.7798 33.491 33.5 32.0003 33.5C29.7582 33.5 27.5743 34.1323 25.8503 35.2812C23.9096 36.5755 22.675 38.4191 22.2793 40.6137C22.1884 41.1167 22.3112 41.6141 22.6159 41.9783C22.7543 42.1441 22.928 42.2769 23.1242 42.3672C23.3204 42.4574 23.5343 42.5028 23.7503 42.5H34.4295Z" fill="white"/>
<path d="M36 38.5L38 41L42 37" stroke="white" stroke-width="2" stroke-linecap="round" stroke-linejoin="round"/>
</svg>
