<svg width="53" height="53" viewBox="0 0 53 53" fill="none" xmlns="http://www.w3.org/2000/svg">
<circle cx="26.5" cy="26.5" r="26.5" fill="#F2F3F4"/>
<path d="M20.3189 29.5035L19.4835 32.6222L16.4301 32.6868C15.5176 30.9943 15 29.0578 15 27C15 25.0101 15.4839 23.1336 16.3418 21.4813H16.3424L19.0608 21.9797L20.2516 24.6818C20.0024 25.4084 19.8665 26.1884 19.8665 27C19.8666 27.8809 20.0262 28.7249 20.3189 29.5035Z" fill="#FBBB00"/>
<path d="M38.7903 24.7582C38.9282 25.4841 39 26.2338 39 27C39 27.8591 38.9097 28.6971 38.7376 29.5055C38.1535 32.2563 36.6271 34.6582 34.5126 36.358L34.5119 36.3574L31.088 36.1827L30.6034 33.1576C32.0065 32.3347 33.103 31.047 33.6805 29.5055H27.2638V24.7582H33.7742H38.7903Z" fill="#518EF8"/>
<path d="M34.5119 36.3574L34.5125 36.358C32.4561 38.011 29.8437 39 27 39C22.4301 39 18.4569 36.4457 16.4301 32.6868L20.3189 29.5035C21.3323 32.2081 23.9413 34.1334 27 34.1334C28.3147 34.1334 29.5464 33.778 30.6033 33.1576L34.5119 36.3574Z" fill="#28B446"/>
<path d="M34.6596 17.7626L30.7721 20.9453C29.6782 20.2615 28.3852 19.8666 27 19.8666C23.8721 19.8666 21.2143 21.8802 20.2516 24.6818L16.3424 21.4813H16.3417C18.3389 17.6308 22.3622 15 27 15C29.9116 15 32.5813 16.0372 34.6596 17.7626Z" fill="#F14336"/>
</svg>
