<svg width="160" height="206" viewBox="0 0 160 206" fill="none" xmlns="http://www.w3.org/2000/svg">
<rect y="205.333" width="160" height="160" rx="80" transform="rotate(-90 0 205.333)" fill="url(#paint0_linear)"/>
<path d="M132.122 55.3628L127.458 60.7636C127.143 61.0993 126.657 61.0993 126.371 60.7636L121.679 55.3933C121.364 55.0577 120.878 55.0577 120.591 55.3933L115.899 60.7636C115.585 61.0993 115.098 61.0993 114.812 60.7636L110.12 55.3628C109.805 55.0272 109.319 55.0272 109.033 55.3628L104.34 60.7636C104.026 61.0993 103.539 61.0993 103.253 60.7636L98.5608 55.3628C98.2461 55.0272 97.7597 55.0272 97.4736 55.3628L92.7813 60.7636C92.4666 61.0993 91.9802 61.0993 91.6941 60.7636L87.5455 56.0036C87.2307 55.668 86.7444 55.668 86.4582 56.0036C86.1435 56.3392 86.1435 56.919 86.4582 57.2546L91.6941 63.2657C92.0088 63.6014 92.4952 63.6014 92.7813 63.2657L97.4736 57.8954C97.7883 57.5598 98.2747 57.5598 98.5608 57.8954L103.253 63.2657C103.568 63.6014 104.054 63.6014 104.34 63.2657L109.033 57.8954C109.347 57.5598 109.834 57.5598 110.12 57.8954L114.812 63.2657C115.127 63.6014 115.613 63.6014 115.899 63.2657L120.591 57.8954C120.906 57.5598 121.393 57.5598 121.679 57.8954L126.371 63.2657C126.686 63.6014 127.172 63.6014 127.458 63.2657L132.15 57.8954C132.465 57.5598 132.952 57.5598 133.238 57.8954L137.386 62.6555C137.701 62.9911 138.187 62.9911 138.474 62.6555C138.76 62.3198 138.76 61.7401 138.474 61.4044L133.238 55.3933C132.923 55.0272 132.437 55.0272 132.122 55.3628Z" fill="#1B76BC" fill-opacity="0.2"/>
<g clip-path="url(#clip0)">
<path d="M132.122 68.6488L127.458 74.0496C127.144 74.3852 126.657 74.3852 126.371 74.0496L121.679 68.6793C121.364 68.3436 120.878 68.3436 120.592 68.6793L115.899 74.0496C115.585 74.3852 115.098 74.3852 114.812 74.0496L110.12 68.6488C109.805 68.3131 109.319 68.3131 109.033 68.6488L104.34 74.0496C104.026 74.3852 103.539 74.3852 103.253 74.0496L98.5609 68.6488C98.2462 68.3131 97.7598 68.3131 97.4737 68.6488L92.7814 74.0496C92.4667 74.3852 91.9803 74.3852 91.6942 74.0496L87.5456 69.2895C87.2308 68.9539 86.7444 68.9539 86.4583 69.2895C86.1436 69.6252 86.1436 70.2049 86.4583 70.5406L91.6942 76.5517C92.0089 76.8873 92.4953 76.8873 92.7814 76.5517L97.4737 71.1813C97.7884 70.8457 98.2748 70.8457 98.5609 71.1813L103.253 76.5517C103.568 76.8873 104.054 76.8873 104.34 76.5517L109.033 71.1813C109.347 70.8457 109.834 70.8457 110.12 71.1813L114.812 76.5517C115.127 76.8873 115.613 76.8873 115.899 76.5517L120.592 71.1813C120.906 70.8457 121.393 70.8457 121.679 71.1813L126.371 76.5517C126.686 76.8873 127.172 76.8873 127.458 76.5517L132.151 71.1813C132.465 70.8457 132.952 70.8457 133.238 71.1813L137.386 75.9414C137.701 76.277 138.187 76.277 138.474 75.9414C138.76 75.6057 138.76 75.026 138.474 74.6904L133.238 68.6793C132.923 68.3131 132.437 68.3131 132.122 68.6488Z" fill="#1B76BC" fill-opacity="0.2"/>
</g>
<g clip-path="url(#clip1)">
<path d="M132.122 81.9347L127.458 87.3355C127.144 87.6711 126.657 87.6711 126.371 87.3355L121.679 81.9652C121.364 81.6295 120.878 81.6295 120.592 81.9652L115.899 87.3355C115.585 87.6711 115.098 87.6711 114.812 87.3355L110.12 81.9347C109.805 81.599 109.319 81.599 109.033 81.9347L104.34 87.3355C104.026 87.6711 103.539 87.6711 103.253 87.3355L98.5609 81.9347C98.2462 81.599 97.7598 81.599 97.4737 81.9347L92.7814 87.3355C92.4667 87.6711 91.9803 87.6711 91.6942 87.3355L87.5456 82.5755C87.2308 82.2398 86.7444 82.2398 86.4583 82.5755C86.1436 82.9111 86.1436 83.4908 86.4583 83.8265L91.6942 89.8376C92.0089 90.1732 92.4953 90.1732 92.7814 89.8376L97.4737 84.4673C97.7884 84.1316 98.2748 84.1316 98.5609 84.4673L103.253 89.8376C103.568 90.1732 104.054 90.1732 104.34 89.8376L109.033 84.4673C109.347 84.1316 109.834 84.1316 110.12 84.4673L114.812 89.8376C115.127 90.1732 115.613 90.1732 115.899 89.8376L120.592 84.4673C120.906 84.1316 121.393 84.1316 121.679 84.4673L126.371 89.8376C126.686 90.1732 127.172 90.1732 127.458 89.8376L132.151 84.4673C132.465 84.1316 132.952 84.1316 133.238 84.4673L137.386 89.2273C137.701 89.563 138.187 89.563 138.474 89.2273C138.76 88.8917 138.76 88.3119 138.474 87.9763L133.238 81.9652C132.923 81.599 132.437 81.599 132.122 81.9347Z" fill="#1B76BC" fill-opacity="0.2"/>
</g>
<mask id="mask0" mask-type="alpha" maskUnits="userSpaceOnUse" x="0" y="0" width="160" height="206">
<path fill-rule="evenodd" clip-rule="evenodd" d="M160 0H0V125.333C0 169.516 35.8172 205.333 80 205.333C124.183 205.333 160 169.516 160 125.333V0Z" fill="#C4C4C4"/>
</mask>
<g mask="url(#mask0)">
<path d="M50.5696 50.6911C60.4585 41.9755 80.1412 98.4019 80.0302 102.657C79.5862 119.723 76.5524 137.397 67.932 142.413C59.9828 142.529 49.9037 140.701 42.5042 138.275C42.1078 131.647 39.3119 108.037 39.444 97.9209C39.5708 88.6029 48.6563 52.3771 50.5696 50.6911Z" fill="#FBC08B"/>
<path d="M19.1695 217.629C26.7117 188.607 36.9547 155.954 42.8478 136.552C53.5454 133.391 59.5548 135.648 68.635 139.924C66.1298 162.941 60.8814 212.851 57.7261 243.051C43.0857 236.899 29.978 228.247 19.1695 217.629Z" fill="#FBC08B"/>
<g clip-path="url(#clip2)">
<path d="M103.71 117.381H59.8453C55.5308 117.381 52 113.874 52 109.587V13.7944C52 9.50686 55.5298 6 59.8453 6H103.711C108.026 6 111.557 9.50686 111.557 13.7944V109.587C111.556 113.873 108.026 117.381 103.71 117.381Z" fill="#3C91E6"/>
<path d="M108.69 15.5496V108.516C108.69 111.669 106.111 114.249 102.96 114.249H61.1139C57.964 114.249 55.3854 111.669 55.3854 108.516V15.5496C55.3854 12.3961 57.963 9.81612 61.1139 9.81612H102.961C106.11 9.81511 108.69 12.395 108.69 15.5496Z" fill="#EBF4FC"/>
<path d="M102.96 9.81442L61.6317 114.248H61.1139C57.964 114.248 55.3854 111.668 55.3854 108.514V15.549C55.3854 12.3954 57.963 9.81543 61.1139 9.81543H102.96V9.81442Z" fill="#EBF4FC"/>
<path d="M90.5804 12.2401H72.9763C71.5422 12.2401 70.3686 11.0742 70.3686 9.64944V9.24192C70.3686 7.81713 71.5422 6.65121 72.9763 6.65121H90.5804C92.0145 6.65121 93.1881 7.81713 93.1881 9.24192V9.64944C93.1871 11.0752 92.0135 12.2401 90.5804 12.2401Z" fill="#3C91E6"/>
<rect x="58.8719" y="86.1756" width="45.812" height="12.2062" rx="4" fill="#D30000"/>
<rect x="59.1111" y="51.9669" width="45.2582" height="8.83978" rx="4.41989" fill="#66C7EF"/>
<rect x="59.1111" y="66.1105" width="45.2582" height="8.83978" rx="4.41989" fill="#66C7EF"/>
<path d="M81.5556 19C74.3874 19 68.5556 24.8319 68.5556 32C68.5556 39.1681 74.3874 45 81.5556 45C88.7237 45 94.5556 39.1681 94.5556 32C94.5556 24.8319 88.7237 19 81.5556 19ZM78.4168 26.3013C79.2087 25.4619 80.3231 25 81.5556 25C82.7881 25 83.8924 25.465 84.6874 26.3088C85.4931 27.1637 85.8849 28.3125 85.7924 29.5475C85.6074 32 83.7074 34 81.5556 34C79.4037 34 77.4999 32 77.3187 29.5469C77.2268 28.3019 77.6181 27.1494 78.4168 26.3013ZM81.5556 43C80.0871 43.001 78.6334 42.7071 77.2807 42.1357C75.9279 41.5643 74.7037 40.7271 73.6806 39.6737C74.2665 38.8381 75.0132 38.1276 75.8768 37.5837C77.4699 36.5625 79.4862 36 81.5556 36C83.6249 36 85.6412 36.5625 87.2324 37.5837C88.0968 38.1273 88.8441 38.8379 89.4306 39.6737C88.4075 40.7272 87.1833 41.5645 85.8306 42.1359C84.4778 42.7073 83.0241 43.0011 81.5556 43Z" fill="#8ABDF0"/>
</g>
<path d="M60.4323 136.668C63.4608 137.117 72.1024 122.857 66.4312 106.325C74.1584 99.665 78.0801 80.9284 71.9702 78.4549C67.7367 76.7424 45.8818 111.546 46.0509 115.077C46.368 121.552 60.5327 132.466 60.4323 136.668Z" fill="#FBC08B"/>
<path d="M66.3889 106.42C67.4724 109.041 68.2652 111.795 68.7038 114.633C69.1372 117.466 69.206 120.41 68.6457 123.291C68.1066 126.171 66.891 128.941 65.1627 131.277C63.4396 133.623 61.2357 135.542 58.8203 137.032C60.7547 134.955 62.5781 132.836 63.9787 130.484C65.3847 128.142 66.3413 125.595 66.854 122.942C67.3667 120.288 67.4512 117.54 67.2927 114.776C67.1341 112.012 66.743 109.237 66.3889 106.42Z" fill="#F7A079"/>
<path d="M104.457 147.952C94.9631 141.026 85.3802 134.328 84.2802 137.108C82.8143 140.814 97.8732 162.974 112.633 170.169C118.202 172.877 118.837 146.465 104.457 147.952Z" fill="#FBC08B"/>
<path d="M90.5956 93.581C93.0668 125.782 114.414 164.382 116.692 165.56C125.826 170.284 143.892 169.169 144.494 165.761C146.693 153.308 142.748 133.469 133.568 123.803C130.488 120.556 112.02 119.76 108.608 121.491C103.996 113.384 99.8746 100.147 98.6992 94.5185C96.0949 82.0343 89.9091 84.6079 90.5956 93.581Z" fill="#FBC08B"/>
<path d="M58.8466 266.069C62.7578 227.163 69.7926 183.718 71.2619 157.196C60.02 150.373 49.2379 147.175 34.5235 147.191C24.9623 175.779 5.05239 235.334 -5.33331 272.993C17.3461 274.504 39.1587 272.142 58.8466 266.069Z" fill="#3C91E6"/>
<path d="M71.262 157.196C69.8825 156.361 68.5136 155.579 67.1394 154.849C63.001 176.953 56.315 200.504 47.0392 224.373C40.3321 241.619 32.7424 257.829 24.5659 272.697C36.5003 271.629 47.9959 269.414 58.8467 266.064C62.7526 227.163 69.7926 183.718 71.262 157.196Z" fill="#3682C1"/>
<path d="M107.611 161.765C107.611 161.765 123.201 189.759 124.548 194.309C131.84 193.838 142.022 185.133 144.889 184.534C144.889 184.534 142.105 158.547 142.353 150.561L107.611 161.765Z" fill="#FBC08B"/>
<path d="M193.32 272.624C174.696 237.169 155.474 196.502 142.075 172.807C131.776 171.351 123.696 172.871 115.03 178.77C124.77 207.498 145.063 267.338 159.196 304.295C173.384 296.554 184.976 285.777 193.32 272.624Z" fill="#3C91E6"/>
<path d="M146.171 172.625C144.976 172.451 143.814 172.318 142.677 172.232C151.528 192.748 159.682 215.497 166.548 239.539C171.509 256.91 175.446 273.736 178.378 289.645C184.523 284.072 189.844 277.679 194.229 270.578C176.759 235.781 158.747 195.879 146.171 172.625Z" fill="#3C91E6"/>
</g>
<defs>
<linearGradient id="paint0_linear" x1="10.0322" y1="242.632" x2="156.399" y2="344.497" gradientUnits="userSpaceOnUse">
<stop stop-color="#EBF4FC"/>
<stop offset="1" stop-color="#EBF4FC" stop-opacity="0"/>
</linearGradient>
<clipPath id="clip0">
<rect width="52.4444" height="8.39111" fill="white" transform="matrix(1 0 0 -1 86.2309 76.795)"/>
</clipPath>
<clipPath id="clip1">
<rect width="52.4444" height="8.39111" fill="white" transform="matrix(1 0 0 -1 86.2309 90.0809)"/>
</clipPath>
<clipPath id="clip2">
<rect width="59.5555" height="111.381" fill="white" transform="translate(52 6)"/>
</clipPath>
</defs>
</svg>
