<svg width="64" height="64" viewBox="0 0 64 64" fill="none" xmlns="http://www.w3.org/2000/svg">
<rect width="64" height="64" rx="32" transform="matrix(-1.19249e-08 -1 -1 1.19249e-08 64 64)" fill="#CCF5E0"/>
<rect width="40" height="40" rx="20" transform="matrix(-1.19249e-08 -1 -1 1.19249e-08 52 52)" fill="#00CC66"/>
<path d="M32 22C29.243 22 27 24.243 27 27V30H26C25.4696 30 24.9609 30.2107 24.5858 30.5858C24.2107 30.9609 24 31.4696 24 32V40C24 40.5304 24.2107 41.0391 24.5858 41.4142C24.9609 41.7893 25.4696 42 26 42H38C38.5304 42 39.0391 41.7893 39.4142 41.4142C39.7893 41.0391 40 40.5304 40 40V32C40 31.4696 39.7893 30.9609 39.4142 30.5858C39.0391 30.2107 38.5304 30 38 30H37V27C37 24.243 34.757 22 32 22ZM29 27C29 25.346 30.346 24 32 24C33.654 24 35 25.346 35 27V30H29V27ZM33 37.723V40H31V37.723C30.6504 37.5228 30.3697 37.2213 30.1948 36.8584C30.02 36.4954 29.9593 36.0879 30.0207 35.6898C30.0821 35.2916 30.2627 34.9214 30.5388 34.6279C30.8148 34.3345 31.1733 34.1316 31.567 34.046C31.8594 33.9813 32.1626 33.9832 32.4542 34.0513C32.7459 34.1194 33.0185 34.2521 33.252 34.4397C33.4855 34.6272 33.6739 34.8647 33.8034 35.1348C33.9328 35.4049 34 35.7005 34 36C33.9994 36.3497 33.9067 36.6932 33.7311 36.9956C33.5556 37.2981 33.3034 37.549 33 37.723Z" fill="white"/>
</svg>
