<svg width="590" height="174" viewBox="0 0 590 174" fill="none" xmlns="http://www.w3.org/2000/svg">
<path opacity="0.3" d="M0 78.8119C20.9835 61.1497 55.4617 49.9229 87.6562 55.2666C109.811 58.9531 129.549 67.6879 149.806 75.1125C170.063 82.5242 192.351 88.8441 214.966 87.0457C264.452 83.1022 295.608 42.9351 344.634 36.6409C396.789 29.9485 451.079 64.0142 499.719 48.9724C534.85 38.1181 552.274 4.78467 590 0.198914V173.199H0V78.8119Z" fill="url(#paint0_linear)"/>
<path opacity="0.45" d="M0 87.6808C31.7035 90.6897 49.2762 87.5908 75.6007 79.3739C93.2944 73.8559 108.204 65.9889 129.287 63.5998C155.041 60.6908 181.642 66.9685 201.481 74.6556C221.336 82.3428 238.165 91.7693 261.48 97.3272C309.892 108.873 371.881 100.216 415.518 85.5116C434.388 79.154 451.459 71.6967 472.007 66.4087C492.555 61.1207 518.118 58.1718 540.516 61.8104C558.919 64.7993 572.462 71.7367 590 75.5753V173.199H0V87.6808Z" fill="url(#paint1_linear)"/>
<defs>
<linearGradient id="paint0_linear" x1="288.571" y1="23.0423" x2="301.606" y2="195.057" gradientUnits="userSpaceOnUse">
<stop stop-color="#3C91E6"/>
<stop offset="1" stop-color="#2390FF" stop-opacity="0"/>
</linearGradient>
<linearGradient id="paint1_linear" x1="295" y1="60.1989" x2="295" y2="173.199" gradientUnits="userSpaceOnUse">
<stop stop-color="#3C91E6"/>
<stop offset="1" stop-color="#3C91E6" stop-opacity="0"/>
</linearGradient>
</defs>
</svg>
