<svg width="64" height="64" viewBox="0 0 64 64" fill="none" xmlns="http://www.w3.org/2000/svg">
<rect width="64" height="64" rx="32" transform="matrix(-1.19249e-08 -1 -1 1.19249e-08 64 64)" fill="#FDF1CC"/>
<rect width="40" height="40" rx="20" transform="matrix(-1.19249e-08 -1 -1 1.19249e-08 52 52)" fill="#F5B700"/>
<path d="M29.6 30.8V27.2C29.6 25.88 30.68 24.8 32 24.8C33.32 24.8 34.4 25.88 34.4 27.2H36.8C36.8 24.548 34.652 22.4 32 22.4C29.348 22.4 27.2 24.548 27.2 27.2V30.8H26C25.34 30.8 24.8 31.34 24.8 32V40.4C24.8 41.06 25.34 41.6 26 41.6H38C38.66 41.6 39.2 41.06 39.2 40.4V32C39.2 31.34 38.66 30.8 38 30.8H29.6ZM30.8 39.2L31.232 36.62C30.62 36.332 30.2 35.72 30.2 35C30.2 34.004 31.004 33.2 32 33.2C32.996 33.2 33.8 34.004 33.8 35C33.8 35.72 33.38 36.332 32.768 36.62L33.2 39.2H30.8Z" fill="white"/>
</svg>
