<svg width="180" height="180" viewBox="0 0 180 180" fill="none" xmlns="http://www.w3.org/2000/svg">
<rect width="180" height="180" rx="90" fill="url(#paint0_linear)" fill-opacity="0.4"/>
<g opacity="0.3">
<g clip-path="url(#clip0)">
<path d="M141.566 95.257L136.631 100.972C136.298 101.328 135.783 101.328 135.48 100.972L130.514 95.2893C130.181 94.9341 129.667 94.9341 129.364 95.2893L124.398 100.972C124.065 101.328 123.551 101.328 123.248 100.972L118.282 95.257C117.949 94.9018 117.434 94.9018 117.132 95.257L112.166 100.972C111.833 101.328 111.318 101.328 111.015 100.972L106.05 95.257C105.717 94.9018 105.202 94.9018 104.899 95.257L99.9335 100.972C99.6004 101.328 99.0857 101.328 98.7829 100.972L94.3926 95.9351C94.0595 95.5799 93.5448 95.5799 93.242 95.9351C92.9089 96.2903 92.9089 96.9038 93.242 97.259L98.7829 103.62C99.116 103.976 99.6307 103.976 99.9335 103.62L104.899 97.9371C105.232 97.5819 105.747 97.5819 106.05 97.9371L111.015 103.62C111.348 103.976 111.863 103.976 112.166 103.62L117.132 97.9371C117.465 97.5819 117.979 97.5819 118.282 97.9371L123.248 103.62C123.581 103.976 124.096 103.976 124.398 103.62L129.364 97.9371C129.697 97.5819 130.212 97.5819 130.514 97.9371L135.48 103.62C135.813 103.976 136.328 103.976 136.631 103.62L141.596 97.9371C141.929 97.5819 142.444 97.5819 142.747 97.9371L147.137 102.975C147.47 103.33 147.985 103.33 148.288 102.975C148.591 102.619 148.591 102.006 148.288 101.651L142.747 95.2893C142.414 94.9018 141.899 94.9018 141.566 95.257Z" fill="#3C91E6"/>
</g>
<g clip-path="url(#clip1)">
<path d="M141.566 109.318L136.631 115.033C136.298 115.388 135.783 115.388 135.48 115.033L130.514 109.35C130.181 108.995 129.667 108.995 129.364 109.35L124.398 115.033C124.065 115.388 123.551 115.388 123.248 115.033L118.282 109.318C117.949 108.962 117.434 108.962 117.132 109.318L112.166 115.033C111.833 115.388 111.318 115.388 111.015 115.033L106.05 109.318C105.717 108.962 105.202 108.962 104.899 109.318L99.9335 115.033C99.6004 115.388 99.0857 115.388 98.7829 115.033L94.3926 109.996C94.0595 109.641 93.5448 109.641 93.242 109.996C92.9089 110.351 92.9089 110.964 93.242 111.32L98.7829 117.681C99.116 118.036 99.6307 118.036 99.9335 117.681L104.899 111.998C105.232 111.643 105.747 111.643 106.05 111.998L111.015 117.681C111.348 118.036 111.863 118.036 112.166 117.681L117.132 111.998C117.465 111.643 117.979 111.643 118.282 111.998L123.248 117.681C123.581 118.036 124.096 118.036 124.398 117.681L129.364 111.998C129.697 111.643 130.212 111.643 130.514 111.998L135.48 117.681C135.813 118.036 136.328 118.036 136.631 117.681L141.596 111.998C141.929 111.643 142.444 111.643 142.747 111.998L147.137 117.035C147.47 117.39 147.985 117.39 148.288 117.035C148.591 116.68 148.591 116.066 148.288 115.711L142.747 109.35C142.414 108.962 141.899 108.962 141.566 109.318Z" fill="#3C91E6"/>
</g>
<g clip-path="url(#clip2)">
<path d="M141.566 123.377L136.631 129.093C136.298 129.448 135.783 129.448 135.48 129.093L130.514 123.409C130.181 123.054 129.667 123.054 129.364 123.409L124.398 129.093C124.065 129.448 123.551 129.448 123.248 129.093L118.282 123.377C117.949 123.022 117.434 123.022 117.132 123.377L112.166 129.093C111.833 129.448 111.318 129.448 111.015 129.093L106.05 123.377C105.717 123.022 105.202 123.022 104.899 123.377L99.9335 129.093C99.6004 129.448 99.0857 129.448 98.7829 129.093L94.3926 124.055C94.0595 123.7 93.5448 123.7 93.242 124.055C92.9089 124.41 92.9089 125.024 93.242 125.379L98.7829 131.74C99.116 132.096 99.6307 132.096 99.9335 131.74L104.899 126.057C105.232 125.702 105.747 125.702 106.05 126.057L111.015 131.74C111.348 132.096 111.863 132.096 112.166 131.74L117.132 126.057C117.465 125.702 117.979 125.702 118.282 126.057L123.248 131.74C123.581 132.096 124.096 132.096 124.398 131.74L129.364 126.057C129.697 125.702 130.212 125.702 130.514 126.057L135.48 131.74C135.813 132.096 136.328 132.096 136.631 131.74L141.596 126.057C141.929 125.702 142.444 125.702 142.747 126.057L147.137 131.095C147.47 131.45 147.985 131.45 148.288 131.095C148.591 130.739 148.591 130.126 148.288 129.771L142.747 123.409C142.414 123.022 141.899 123.022 141.566 123.377Z" fill="#3C91E6"/>
</g>
</g>
<mask id="mask0" mask-type="alpha" maskUnits="userSpaceOnUse" x="0" y="0" width="180" height="180">
<rect width="180" height="180" rx="90" fill="#C4C4C4"/>
</mask>
<g mask="url(#mask0)">
<path d="M132 24V39.5L140 29L132 24Z" fill="#FFAC46"/>
<path d="M145 32.5L136 42.5L148.5 38L145 32.5Z" fill="#FFAC46"/>
<path d="M26.668 94.749L37.6281 83.7889L24.5466 85.5566L26.668 94.749Z" fill="#FFAC46"/>
<path d="M23.486 79.5462L36.921 78.8391L24.9002 73.1823L23.486 79.5462Z" fill="#FFAC46"/>
<path d="M59.794 56.6816C67.8953 49.5416 84.02 95.7679 83.9291 99.2535C83.5653 113.235 81.08 127.714 74.0178 131.823C67.5056 131.919 59.2484 130.42 53.1865 128.433C52.8618 123.003 50.5713 103.661 50.6795 95.3739C50.7834 87.7402 58.2266 58.0629 59.794 56.6816Z" fill="#FBC08B"/>
<path d="M34.0703 193.442C40.2491 169.666 48.6405 142.916 53.4684 127.021C62.2322 124.431 67.1553 126.28 74.5942 129.783C72.5418 148.64 68.2422 189.528 65.6572 214.269C53.6633 209.229 42.925 202.141 34.0703 193.442Z" fill="#FBC08B"/>
<g clip-path="url(#clip3)">
<rect width="72.8208" height="9.4667" transform="matrix(-1 1.04948e-07 1.04948e-07 1 124.711 77.7796)" fill="#EBF4FC"/>
<rect width="15.2924" height="16.7488" transform="matrix(-1 1.04948e-07 1.04948e-07 1 75.1914 53.7483)" fill="#EBF4FC"/>
<path d="M51.8906 91.6153C51.8906 94.0295 52.8496 96.3447 54.5567 98.0518C56.2638 99.7589 58.5791 100.718 60.9932 100.718L115.609 100.718C118.023 100.718 120.338 99.7589 122.045 98.0518C123.752 96.3447 124.711 94.0294 124.711 91.6153L124.711 87.064L51.8906 87.064L51.8906 91.6153Z" fill="#3C91E6"/>
<path fill-rule="evenodd" clip-rule="evenodd" d="M51.8906 77.9618L51.8906 55.2053C51.8906 52.7912 52.8496 50.4759 54.5567 48.7688C56.2638 47.0618 58.5791 46.1027 60.9932 46.1027L115.609 46.1027C118.023 46.1027 120.338 47.0617 122.045 48.7688C123.752 50.4759 124.711 52.7912 124.711 55.2053L124.711 77.9618L51.8906 77.9618ZM65.5445 68.8592C64.3374 68.8592 63.1798 68.3797 62.3263 67.5262C61.4727 66.6727 60.9932 65.515 60.9932 64.3079L60.9932 59.7566C60.9932 58.5496 61.4727 57.3919 62.3263 56.5384C63.1798 55.6848 64.3374 55.2053 65.5445 55.2053L70.0958 55.2053C71.3029 55.2053 72.4605 55.6848 73.3141 56.5384C74.1676 57.3919 74.6471 58.5496 74.6471 59.7566L74.6471 64.3079C74.6471 65.515 74.1676 66.6727 73.3141 67.5262C72.4605 68.3797 71.3029 68.8592 70.0958 68.8592L65.5445 68.8592Z" fill="#3C91E6"/>
<rect width="22.0319" height="3.58915" rx="1.79457" transform="matrix(-0.999931 -0.0117324 -0.0117323 0.999931 118.648 53.7183)" fill="#EBF4FC"/>
<rect width="15.5529" height="3.58913" rx="1.79457" transform="matrix(-0.999931 -0.0117323 -0.0117324 0.999931 118.5 59.2775)" fill="#EBF4FC"/>
</g>
<path d="M67.8763 127.115C70.3574 127.483 77.4368 115.801 72.7908 102.257C79.1211 96.8011 82.334 81.4515 77.3285 79.4251C73.8603 78.0222 55.956 106.535 56.0946 109.427C56.3543 114.731 67.9586 123.673 67.8763 127.115Z" fill="#FBC08B"/>
<path d="M72.7552 102.335C73.6428 104.483 74.2923 106.739 74.6517 109.064C75.0067 111.385 75.063 113.797 74.604 116.157C74.1624 118.516 73.1665 120.785 71.7506 122.699C70.3391 124.622 68.5335 126.193 66.5547 127.414C68.1394 125.713 69.6333 123.976 70.7807 122.05C71.9325 120.131 72.7162 118.044 73.1362 115.871C73.5562 113.697 73.6255 111.446 73.4956 109.181C73.3657 106.916 73.0453 104.643 72.7552 102.335Z" fill="#F7A079"/>
<path d="M66.5784 233.125C69.7826 201.252 75.5457 165.66 76.7494 143.933C67.5396 138.343 58.7066 135.723 46.652 135.736C38.8192 159.157 22.5083 207.946 14 238.797C32.5798 240.035 50.4494 238.1 66.5784 233.125Z" fill="#3C91E6"/>
<path d="M76.7511 143.933C75.6209 143.248 74.4995 142.608 73.3737 142.01C69.9834 160.118 64.506 179.412 56.907 198.966C51.4123 213.095 45.1945 226.375 38.4961 238.555C48.2731 237.68 57.6907 235.866 66.5801 233.121C69.7799 201.252 75.5473 165.66 76.7511 143.933Z" fill="#3682C1"/>
</g>
<defs>
<linearGradient id="paint0_linear" x1="158.936" y1="141.849" x2="4.57837e-06" y2="60.3928" gradientUnits="userSpaceOnUse">
<stop stop-color="#98C5F2"/>
<stop offset="1" stop-color="#8CC1F7"/>
</linearGradient>
<clipPath id="clip0">
<rect width="55.5" height="8.88" fill="white" transform="matrix(1 0 0 -1 93 103.88)"/>
</clipPath>
<clipPath id="clip1">
<rect width="55.5" height="8.88" fill="white" transform="matrix(1 0 0 -1 93 117.941)"/>
</clipPath>
<clipPath id="clip2">
<rect width="55.5" height="8.88" fill="white" transform="matrix(1 0 0 -1 93 132)"/>
</clipPath>
<clipPath id="clip3">
<rect width="72.8208" height="72.8208" fill="white" transform="matrix(1 -1.92371e-07 -1.92371e-07 -1 51.8906 109.821)"/>
</clipPath>
</defs>
</svg>
