<svg width="56" height="56" viewBox="0 0 56 56" fill="none" xmlns="http://www.w3.org/2000/svg">
<circle cx="28" cy="28" r="28" fill="#F7FAFC"/>
<path fill-rule="evenodd" clip-rule="evenodd" d="M35.6825 23.1668H41.3287V23.1171C41.3287 18.6382 38.6134 16 34.0185 16H21.9782C17.382 16 14.6667 18.6382 14.6667 23.1171V30.25C15.7414 29.464 17.0665 29 18.5 29C22.0899 29 25 31.9101 25 35.5C25 37.2465 24.3112 38.8321 23.1904 40H34.0232C38.6182 40 41.3334 37.3514 41.3334 32.8725V32.4645H35.6825C33.049 32.4611 30.918 30.3764 30.9216 27.8088C30.9263 25.2469 33.0549 23.1715 35.6825 23.1668ZM28.5062 23.1565H20.9862C20.4232 23.1542 19.9681 22.707 19.9705 22.1581C19.9728 21.6115 20.4268 21.1689 20.9862 21.1666H28.5109C29.0739 21.1643 29.5337 21.608 29.5361 22.1569C29.5385 22.707 29.0833 23.1542 28.5204 23.1565H28.5109H28.5062Z" fill="#3C91E6"/>
<path d="M19 32V38.5" stroke="#3C91E6" stroke-width="2" stroke-linecap="round"/>
<path d="M19 32L16.5 34.5" stroke="#3C91E6" stroke-width="2" stroke-linecap="round"/>
<path d="M19 32L21.5 34.5" stroke="#3C91E6" stroke-width="2" stroke-linecap="round"/>
<path opacity="0.4" d="M33.3834 28.3955C33.6622 29.6638 34.7741 30.556 36.0436 30.5328H40.3769C40.905 30.5328 41.3335 30.0954 41.3335 29.5547V26.1793C41.3324 25.6397 40.905 25.2011 40.3769 25.2H35.9416C34.4976 25.2046 33.3312 26.4032 33.3335 27.8803C33.3335 28.0532 33.3505 28.2261 33.3834 28.3955Z" fill="#8ABDF0"/>
<ellipse cx="36.0001" cy="27.8665" rx="1.33333" ry="1.33333" fill="#3C91E6"/>
</svg>
