<svg width="56" height="56" viewBox="0 0 56 56" fill="none" xmlns="http://www.w3.org/2000/svg">
<circle cx="28" cy="28" r="28" fill="#F7FAFC"/>
<path d="M34.8636 22.0786C35.7838 22.0879 37.063 22.0919 38.1481 22.0879C38.7039 22.0866 38.9864 21.4159 38.6009 21.0119C37.2069 19.5479 34.7131 16.9279 33.2861 15.4293C32.8914 15.0146 32.2009 15.2999 32.2009 15.8746V19.3893C32.2009 20.8639 33.4036 22.0786 34.8636 22.0786Z" fill="#8ABDF0"/>
<path fill-rule="evenodd" clip-rule="evenodd" d="M37.7839 24.0342C38.0942 24.0306 38.4321 24.0267 38.7391 24.0267C39.0691 24.0267 39.3332 24.2934 39.3332 24.6267V35.3467C39.3332 38.6534 36.6797 41.3334 33.4058 41.3334H23.846C25.1684 40.1436 25.9999 38.4189 25.9999 36.5C25.9999 32.9101 23.0897 30 19.4999 30C18.4842 30 17.5229 30.233 16.6665 30.6484V20.6801C16.6665 17.3734 19.3332 14.6667 22.6203 14.6667H29.6698C30.013 14.6667 30.2771 14.9467 30.2771 15.2801V19.5734C30.2771 22.0134 32.2705 24.0134 34.6863 24.0267C35.2506 24.0267 35.7481 24.031 36.1834 24.0347C36.5221 24.0375 36.8232 24.0401 37.0889 24.0401C37.2769 24.0401 37.5205 24.0373 37.7839 24.0342Z" fill="#3C91E6"/>
<path d="M20.5 39.5L20.5 33" stroke="#3C91E6" stroke-width="2" stroke-linecap="round"/>
<path d="M20.5 39.5L23 37" stroke="#3C91E6" stroke-width="2" stroke-linecap="round"/>
<path d="M20.5 39.5L18 37" stroke="#3C91E6" stroke-width="2" stroke-linecap="round"/>
<path fill-rule="evenodd" clip-rule="evenodd" d="M31.0825 33.8534H23.901C23.3597 33.8534 22.9109 33.4 22.9109 32.8534C22.9109 32.3067 23.3597 31.8667 23.901 31.8667H31.0825C31.6238 31.8667 32.0726 32.3067 32.0726 32.8534C32.0726 33.4 31.6238 33.8534 31.0825 33.8534Z" fill="white"/>
<path fill-rule="evenodd" clip-rule="evenodd" d="M23.901 25.2H28.363C28.9043 25.2 29.3531 25.6533 29.3531 26.2C29.3531 26.7466 28.9043 27.1866 28.363 27.1866H23.901C23.3597 27.1866 22.9109 26.7466 22.9109 26.2C22.9109 25.6533 23.3597 25.2 23.901 25.2Z" fill="white"/>
</svg>
