<svg width="56" height="56" viewBox="0 0 56 56" fill="none" xmlns="http://www.w3.org/2000/svg">
<circle cx="28" cy="28" r="28" fill="#F7FAFC"/>
<g clip-path="url(#clip0)">
<path d="M25.5 30L20.5 30.5V39L21 39.5L24 40L27 42L33 43L35.5 41.5L40.5 38L43 34.5L42.5 32L40.5 31.5L38.5 32.5L36 35L35 33.5L31.5 31.5L29.5 31L25.5 30Z" fill="#D8E9FA"/>
<path d="M43.999 33.7681C43.999 32.0631 42.611 30.6751 40.907 30.6751C40.833 30.6751 40.761 30.6881 40.689 30.6921C40.995 29.9681 41.163 29.1621 41.163 28.2771C41.163 26.2121 38.523 21.4751 36.8 19.9091C35.856 20.1121 34.852 20.2221 33.811 20.2221C32.737 20.2221 31.707 20.1051 30.737 19.8901C29.035 21.2651 26.054 26.1481 26.054 28.2781C26.054 28.6371 26.087 28.9791 26.146 29.3051C25.632 29.2701 25.109 29.2501 24.576 29.2501C23.197 29.2501 21.869 29.3991 20.613 29.6741C20.576 29.2171 20.55 28.9381 20.55 28.9381H12.36C12.36 28.9381 12.001 31.9381 12.001 35.6351C12.001 39.3321 12.36 42.3301 12.36 42.3301H20.549C20.549 42.3301 20.621 41.5471 20.699 40.4361C21.918 40.2311 23.166 40.5531 24.607 41.4491C26.435 42.6411 28.687 43.3501 31.125 43.3501C33.597 43.3501 35.72 42.6211 37.485 41.3951L37.487 41.3971C37.508 41.3821 37.528 41.3671 37.555 41.3431C38.055 40.9911 38.528 40.6021 38.969 40.1751C39.315 39.8211 39.784 39.3681 40.487 38.6801C42.848 36.3601 43.139 35.9011 43.139 35.9011C43.139 35.9011 43.134 35.9011 43.13 35.9011C43.667 35.3481 43.999 34.5981 43.999 33.7681ZM31.831 25.7201C31.907 25.5361 32.016 25.3721 32.15 25.2301C32.29 25.0851 32.452 24.9661 32.638 24.8731C32.826 24.7771 33.029 24.7151 33.25 24.6821V24.1451H34.388V24.7641C34.556 24.8111 34.707 24.8771 34.843 24.9571V24.7151H35.982V26.4201H34.836C34.744 26.3181 34.653 26.2271 34.567 26.1491C34.479 26.0711 34.387 26.0041 34.291 25.9541C34.192 25.9041 34.088 25.8641 33.972 25.8371C33.855 25.8101 33.72 25.7961 33.562 25.7961C33.334 25.7961 33.161 25.8511 33.038 25.9581C32.917 26.0671 32.855 26.1831 32.855 26.3081C32.855 26.6601 33.234 26.8921 33.995 27.0071C34.466 27.0771 34.841 27.1931 35.12 27.3511C35.396 27.5111 35.609 27.6841 35.757 27.8721C35.903 28.0581 35.997 28.2431 36.038 28.4251C36.079 28.6081 36.1 28.7531 36.1 28.8661C36.1 29.0831 36.057 29.2861 35.969 29.4701C35.882 29.6581 35.764 29.8241 35.612 29.9621C35.463 30.1031 35.28 30.2161 35.074 30.3041C34.865 30.3901 34.637 30.4411 34.393 30.4581V30.9701H33.255V30.3041C33.193 30.2771 33.139 30.2511 33.079 30.2261C33.021 30.2051 32.969 30.1771 32.913 30.1501V30.4001H31.775V28.6951H32.913C33.012 28.8041 33.105 28.8961 33.202 28.9761C33.296 29.0541 33.392 29.1211 33.495 29.1691C33.596 29.2221 33.706 29.2591 33.827 29.2841C33.95 29.3061 34.089 29.3181 34.247 29.3181C34.452 29.3181 34.622 29.2771 34.759 29.1931C34.895 29.1091 34.962 29.0011 34.962 28.8641C34.962 28.7511 34.925 28.6521 34.856 28.5661C34.787 28.4831 34.696 28.4131 34.585 28.3511C34.475 28.2921 34.354 28.2451 34.221 28.2101C34.087 28.1751 33.956 28.1461 33.825 28.1241C33.364 28.0541 32.997 27.9431 32.721 27.7981C32.446 27.6521 32.233 27.4931 32.083 27.3191C31.936 27.1451 31.835 26.9671 31.79 26.7861C31.743 26.6061 31.721 26.4441 31.721 26.3041C31.716 26.1011 31.755 25.9051 31.831 25.7201ZM42.12 34.9791C41.706 35.3891 39.956 37.1941 39.48 37.6601C38.252 38.8651 37.679 39.4301 37.411 39.7421L37.404 39.7371C37.216 39.9061 37.019 40.0571 36.818 40.2051C35.234 41.2761 33.261 41.9181 31.124 41.9181C28.966 41.9181 26.978 41.2681 25.388 40.1801H25.378C24.001 39.3421 22.388 38.8261 20.792 38.9831C20.856 37.8811 20.907 36.6741 20.907 35.6371C20.907 34.1941 20.807 32.4261 20.716 31.0671C21.929 30.7941 23.226 30.6411 24.573 30.6411C28.69 30.6411 32.333 32.0021 34.564 34.1351C34.827 34.4281 34.993 34.8131 34.993 35.2371C34.993 36.1511 34.249 36.8951 33.335 36.8951C33.303 36.8951 33.27 36.8851 33.232 36.8831L33.228 36.9011C32.375 36.8721 31.04 36.5141 28.786 35.6511L28.274 36.9951C30.657 37.9011 32.227 38.3111 33.34 38.3391V38.3291C34.735 38.3271 35.912 37.3951 36.295 36.1281V36.1301C36.777 35.3291 38.582 33.6611 39.607 32.7491V32.7511C39.619 32.7371 39.628 32.7301 39.636 32.7221C39.825 32.5541 39.99 32.4101 40.107 32.3091C40.324 32.1711 40.548 32.1141 40.906 32.1141C41.818 32.1141 42.562 32.8581 42.562 33.7721C42.564 34.2271 42.361 34.6571 42.12 34.9791Z" fill="#3C91E6"/>
<path d="M31.128 18.8741C31.128 18.8741 32.518 19.2041 33.88 19.2041C35.241 19.2041 36.137 19.0111 36.137 19.0111C36.928 18.6221 38.706 14.5211 37.663 13.0751C36.497 11.4621 34.548 14.9681 33.648 14.6081C32.752 14.2491 30.84 12.3791 29.579 13.1411C28.483 13.8041 30.266 18.2331 31.128 18.8741Z" fill="#8ABDF0"/>
</g>
<defs>
<clipPath id="clip0">
<rect width="31.999" height="31.999" fill="white" transform="translate(12 12)"/>
</clipPath>
</defs>
</svg>
