<svg width="56" height="56" viewBox="0 0 56 56" fill="none" xmlns="http://www.w3.org/2000/svg">
<circle cx="28" cy="28" r="28" fill="#F7FAFC"/>
<path fill-rule="evenodd" clip-rule="evenodd" d="M16 34.4934V24.3428H40V34.5748C40 38.7601 37.3655 41.3334 33.1504 41.3334H22.8364C18.6608 41.3334 16 38.7068 16 34.4934ZM22.6125 31.2134C22.0066 31.2414 21.506 30.7601 21.4797 30.1481C21.4797 29.5347 21.9539 29.0281 22.5598 29.0001C23.1526 29.0001 23.6399 29.4681 23.6531 30.0667C23.6795 30.6814 23.2053 31.1881 22.6125 31.2134ZM28.0264 31.2134C27.4204 31.2414 26.9199 30.7601 26.8935 30.1481C26.8935 29.5347 27.3677 29.0281 27.9737 29.0001C28.5664 29.0001 29.0538 29.4681 29.067 30.0667C29.0933 30.6814 28.6191 31.1881 28.0264 31.2134ZM33.4007 36.1201C32.7947 36.1068 32.3074 35.6001 32.3074 34.9868C32.2942 34.3735 32.7816 33.8681 33.3875 33.8548H33.4007C34.0198 33.8548 34.5203 34.3615 34.5203 34.9868C34.5203 35.6135 34.0198 36.1201 33.4007 36.1201ZM26.8935 34.9868C26.9199 35.6001 27.4204 36.0815 28.0264 36.0535C28.6191 36.0281 29.0933 35.5215 29.067 34.9081C29.0538 34.3081 28.5664 33.8401 27.9737 33.8401C27.3677 33.8681 26.8935 34.3735 26.8935 34.9868ZM21.4665 34.9868C21.4929 35.6001 21.9934 36.0815 22.5993 36.0535C23.1921 36.0281 23.6663 35.5215 23.6399 34.9081C23.6268 34.3081 23.1394 33.8401 22.5466 33.8401C21.9407 33.8681 21.4665 34.3735 21.4665 34.9868ZM32.3205 30.1347C32.3205 29.5214 32.7947 29.0281 33.4006 29.0147C33.9934 29.0147 34.4676 29.4934 34.494 30.0814C34.5071 30.6947 34.0329 31.2014 33.4402 31.2134C32.8342 31.2267 32.3337 30.7601 32.3205 30.1481V30.1347Z" fill="#3C91E6"/>
<path opacity="0.4" d="M16.0044 24.3427C16.0215 23.56 16.0874 22.0067 16.2112 21.5067C16.8435 18.6947 18.9906 16.908 22.0597 16.6533H33.9412C36.984 16.9213 39.1574 18.72 39.7897 21.5067C39.9122 21.9933 39.9781 23.5587 39.9952 24.3427H16.0044Z" fill="#8ABDF0"/>
<path d="M23.0731 20.7867C23.6527 20.7867 24.0874 20.3481 24.0874 19.7601V15.6947C24.0874 15.1067 23.6527 14.6667 23.0731 14.6667C22.4935 14.6667 22.0588 15.1067 22.0588 15.6947V19.7601C22.0588 20.3481 22.4935 20.7867 23.0731 20.7867Z" fill="#3C91E6"/>
<path d="M32.9266 20.7867C33.493 20.7867 33.9409 20.3481 33.9409 19.7601V15.6947C33.9409 15.1067 33.493 14.6667 32.9266 14.6667C32.347 14.6667 31.9124 15.1067 31.9124 15.6947V19.7601C31.9124 20.3481 32.347 20.7867 32.9266 20.7867Z" fill="#3C91E6"/>
</svg>
