<svg width="56" height="32" viewBox="0 0 56 32" fill="none" xmlns="http://www.w3.org/2000/svg">
<rect width="29.9996" height="3.89995" transform="matrix(-1 1.04948e-07 1.04948e-07 1 43 17.5502)" fill="#EBF4FC"/>
<rect width="6.29993" height="6.89991" transform="matrix(-1 1.04948e-07 1.04948e-07 1 22.5977 7.65015)" fill="#EBF4FC"/>
<path d="M13 23.25C13 24.2446 13.3951 25.1984 14.0983 25.9017C14.8016 26.6049 15.7554 27 16.75 27L39.2497 27C40.2443 27 41.1981 26.6049 41.9013 25.9017C42.6046 25.1984 42.9997 24.2446 42.9997 23.25L42.9997 21.3751L13 21.3751L13 23.25Z" fill="#3C91E6"/>
<path fill-rule="evenodd" clip-rule="evenodd" d="M13 17.6253L13 8.25042C13 7.25587 13.3951 6.30205 14.0983 5.5988C14.8016 4.89554 15.7554 4.50046 16.75 4.50046L39.2497 4.50045C40.2442 4.50045 41.1981 4.89554 41.9013 5.59879C42.6046 6.30204 42.9996 7.25586 42.9996 8.25041L42.9996 17.6253L13 17.6253ZM18.6249 13.8753C18.1277 13.8753 17.6507 13.6778 17.2991 13.3262C16.9475 12.9746 16.75 12.4976 16.75 12.0004L16.75 10.1254C16.75 9.62812 16.9475 9.15121 17.2991 8.79958C17.6507 8.44796 18.1277 8.25041 18.6249 8.25041L20.4999 8.25041C20.9972 8.25041 21.4741 8.44796 21.8257 8.79958C22.1773 9.15121 22.3749 9.62812 22.3749 10.1254L22.3749 12.0004C22.3749 12.4976 22.1773 12.9746 21.8257 13.3262C21.4741 13.6778 20.9972 13.8753 20.4999 13.8753L18.6249 13.8753Z" fill="#3C91E6"/>
<rect width="9.07637" height="1.47861" rx="0.739304" transform="matrix(-0.999931 -0.0117324 -0.0117323 0.999931 40.5039 7.63782)" fill="#EBF4FC"/>
<rect width="6.40728" height="1.4786" rx="0.7393" transform="matrix(-0.999931 -0.0117323 -0.0117324 0.999931 40.4414 9.92798)" fill="#EBF4FC"/>
</svg>
