<svg width="24" height="24" viewBox="0 0 24 24" fill="none" xmlns="http://www.w3.org/2000/svg">
<rect width="20" height="2.6" transform="matrix(-1 1.04948e-07 1.04948e-07 1 22 13.6999)" fill="white"/>
<rect width="4.2" height="4.6" transform="matrix(-1 1.04948e-07 1.04948e-07 1 8.39844 7.09998)" fill="white"/>
<path d="M2 17.5C2 18.163 2.26339 18.7989 2.73223 19.2677C3.20107 19.7366 3.83696 20 4.5 20L19.5 20C20.163 20 20.7989 19.7366 21.2678 19.2677C21.7366 18.7989 22 18.163 22 17.5L22 16.25L2 16.25L2 17.5Z" fill="#D6D4D5"/>
<path fill-rule="evenodd" clip-rule="evenodd" d="M2 13.75L2 7.49997C2 6.83693 2.26339 6.20104 2.73223 5.7322C3.20107 5.26336 3.83696 4.99997 4.5 4.99997L19.5 4.99997C20.163 4.99997 20.7989 5.26336 21.2678 5.7322C21.7366 6.20104 22 6.83692 22 7.49997L22 13.75L2 13.75ZM5.75 11.25C5.41848 11.25 5.10054 11.1183 4.86612 10.8839C4.6317 10.6494 4.5 10.3315 4.5 9.99997L4.5 8.74997C4.5 8.41845 4.63169 8.10051 4.86612 7.86609C5.10054 7.63167 5.41848 7.49997 5.75 7.49997L7 7.49997C7.33152 7.49997 7.64946 7.63166 7.88388 7.86608C8.1183 8.10051 8.25 8.41845 8.25 8.74997L8.25 9.99997C8.25 10.3315 8.1183 10.6494 7.88388 10.8839C7.64946 11.1183 7.33152 11.25 7 11.25L5.75 11.25Z" fill="#D6D4D5"/>
<rect width="8.13209" height="1.53527" rx="0.767635" transform="matrix(-0.999931 -0.0117324 -0.0117324 0.999931 20.1484 7.09518)" fill="white"/>
<rect width="6.65283" height="1.53527" rx="0.767634" transform="matrix(-0.999931 -0.0117324 -0.0117324 0.999931 19.8945 9.29254)" fill="white"/>
</svg>
