<svg width="24" height="24" viewBox="0 0 24 24" fill="none" xmlns="http://www.w3.org/2000/svg">
<path fill-rule="evenodd" clip-rule="evenodd" d="M18 3H6V5H4V11H6H18H20V5H18V3Z" fill="#8ABDF0"/>
<rect x="5" y="12" width="6" height="5" fill="#8ABDF0"/>
<path d="M21.999 8C21.9991 7.81852 21.9496 7.64045 21.856 7.485L19.147 2.97C18.9685 2.67484 18.7171 2.43057 18.4169 2.26069C18.1168 2.09081 17.7779 2.00104 17.433 2H6.56499C5.86699 2 5.20999 2.372 4.85099 2.971L2.14199 7.485C2.04834 7.64045 1.9989 7.81852 1.99899 8C1.99899 9.005 2.38499 9.914 2.99899 10.618V20C2.99899 20.2652 3.10435 20.5196 3.29189 20.7071C3.47942 20.8946 3.73378 21 3.99899 21H11.999C12.2642 21 12.5186 20.8946 12.7061 20.7071C12.8936 20.5196 12.999 20.2652 12.999 20V15H16.999V20C16.999 20.2652 17.1044 20.5196 17.2919 20.7071C17.4794 20.8946 17.7338 21 17.999 21H19.999C20.2642 21 20.5186 20.8946 20.7061 20.7071C20.8936 20.5196 20.999 20.2652 20.999 20V10.618C21.613 9.914 21.999 9.005 21.999 8ZM19.983 8.251C19.9215 8.73391 19.6861 9.17785 19.3209 9.49977C18.9558 9.82169 18.4858 9.99953 17.999 10C16.896 10 15.999 9.103 15.999 8C15.999 7.932 15.974 7.872 15.96 7.808L15.98 7.804L15.219 4H17.433L19.983 8.251ZM10.006 8.065L10.818 4H13.179L13.992 8.065C13.957 9.138 13.079 10 11.999 10C10.919 10 10.041 9.138 10.006 8.065ZM6.56499 4H8.77899L8.01899 7.804L8.03899 7.808C8.02399 7.872 7.99899 7.932 7.99899 8C7.99899 9.103 7.10199 10 5.99899 10C5.51218 9.99953 5.04223 9.82169 4.67705 9.49977C4.31188 9.17785 4.07651 8.73391 4.01499 8.251L6.56499 4ZM9.99899 16H5.99899V13H9.99899V16Z" fill="#3C91E6"/>
</svg>
