<svg width="65" height="65" viewBox="0 0 65 65" fill="none" xmlns="http://www.w3.org/2000/svg">
<rect y="1.0001" width="64" height="64" rx="32" transform="rotate(-0.258217 0 1.0001)" fill="url(#paint0_linear)"/>
<path d="M13.1117 9.38411L12.1204 11.3678L9.9284 11.6973C9.7025 11.7314 9.51543 11.8902 9.44483 12.1067C9.37423 12.3238 9.43246 12.5621 9.59483 12.7221L11.1744 14.2781L10.8103 16.4653C10.7726 16.6901 10.8656 16.9172 11.0503 17.0513C11.2338 17.1854 11.4786 17.2025 11.6821 17.099L13.6505 16.0777L15.619 17.099C15.826 17.2059 16.0704 17.1831 16.2508 17.0513C16.4355 16.9172 16.5284 16.6901 16.4908 16.4653L16.1267 14.2781L17.7062 12.7221C17.8686 12.5621 17.9268 12.3238 17.8562 12.1067C17.7856 11.8902 17.5986 11.7314 17.3727 11.6973L15.1807 11.3678L14.1894 9.38411C14.0876 9.17997 13.8691 9.07788 13.6505 9.07788C13.432 9.07788 13.2134 9.17997 13.1117 9.38411Z" fill="#F9D466"/>
<path d="M20.6864 17.8284C20.4276 17.689 20.1093 17.7531 19.927 17.9808C18.5439 19.711 16.4579 20.7028 14.253 20.7028C14.0497 20.7028 13.8497 20.6888 13.6506 20.6723C9.94582 20.3645 7.02409 17.2568 7.02409 13.4739C7.02409 9.9971 9.50317 6.97076 12.9193 6.33365C13.207 6.27952 13.4141 6.02715 13.4112 5.73478C13.4082 5.44241 13.1953 5.19414 12.9064 5.14707C12.3063 5.04823 11.7616 5 11.241 5C5.59397 5 1 9.63413 1 15.2811C1 20.9281 5.59397 25.5622 11.241 25.5622C12.0698 25.5622 12.8706 25.3928 13.6506 25.2032C17.008 24.3873 19.8278 21.9339 20.9683 18.5497C21.0618 18.2726 20.943 17.9684 20.6864 17.8284Z" fill="#F9D466"/>
<path d="M20.9682 18.5497C21.0618 18.2726 20.9429 17.9685 20.6864 17.8285C20.4276 17.689 20.1093 17.7532 19.927 17.9808C18.5439 19.711 16.4579 20.7028 14.253 20.7028C14.0496 20.7028 13.8497 20.6889 13.6506 20.6723V25.2032C17.008 24.3873 19.8278 21.9339 20.9682 18.5497Z" fill="#F5B700"/>
<path d="M16.2508 17.0513C16.4356 16.9172 16.5285 16.6901 16.4909 16.4653L16.1267 14.2781L17.7063 12.7221C17.8687 12.5621 17.9269 12.3238 17.8563 12.1067C17.7857 11.8902 17.5986 11.7314 17.3727 11.6973L15.1808 11.3678L14.1895 9.38411C14.0877 9.17997 13.8692 9.07788 13.6506 9.07788V16.0776L15.619 17.0989C15.8261 17.2059 16.0705 17.1831 16.2508 17.0513Z" fill="#F5B700"/>
<g clip-path="url(#clip0)">
<path d="M24.6256 39.1267L22.2247 41.9072C22.0626 42.08 21.8122 42.08 21.6649 41.9072L19.2492 39.1424C19.0872 38.9696 18.8368 38.9696 18.6895 39.1424L16.2738 41.9072C16.1117 42.08 15.8613 42.08 15.714 41.9072L13.2983 39.1267C13.1363 38.9539 12.8859 38.9539 12.7386 39.1267L10.3229 41.9072C10.1608 42.08 9.91042 42.08 9.76312 41.9072L7.34741 39.1267C7.18538 38.9539 6.93497 38.9539 6.78767 39.1267L4.37196 41.9072C4.20993 42.08 3.95952 42.08 3.81222 41.9072L1.67638 39.4566C1.51435 39.2838 1.26394 39.2838 1.11664 39.4566C0.95461 39.6294 0.95461 39.9278 1.11664 40.1006L3.81222 43.1953C3.97425 43.3681 4.22466 43.3681 4.37196 43.1953L6.78767 40.4305C6.9497 40.2577 7.20011 40.2577 7.34741 40.4305L9.76312 43.1953C9.92515 43.3681 10.1756 43.3681 10.3229 43.1953L12.7386 40.4305C12.9006 40.2577 13.151 40.2577 13.2983 40.4305L15.714 43.1953C15.8761 43.3681 16.1265 43.3681 16.2738 43.1953L18.6895 40.4305C18.8515 40.2577 19.1019 40.2577 19.2492 40.4305L21.6649 43.1953C21.827 43.3681 22.0774 43.3681 22.2247 43.1953L24.6404 40.4305C24.8024 40.2577 25.0528 40.2577 25.2001 40.4305L27.336 42.8811C27.498 43.0539 27.7484 43.0539 27.8957 42.8811C28.043 42.7083 28.043 42.4099 27.8957 42.2371L25.2001 39.1424C25.0381 38.9539 24.7877 38.9539 24.6256 39.1267Z" fill="#F6CCCC"/>
</g>
<g clip-path="url(#clip1)">
<path d="M24.6256 45.9668L22.2247 48.7473C22.0626 48.9201 21.8122 48.9201 21.6649 48.7473L19.2492 45.9825C19.0872 45.8097 18.8368 45.8097 18.6895 45.9825L16.2738 48.7473C16.1117 48.9201 15.8613 48.9201 15.714 48.7473L13.2983 45.9668C13.1363 45.794 12.8859 45.794 12.7386 45.9668L10.3229 48.7473C10.1608 48.9201 9.91042 48.9201 9.76312 48.7473L7.34741 45.9668C7.18538 45.794 6.93497 45.794 6.78767 45.9668L4.37196 48.7473C4.20993 48.9201 3.95952 48.9201 3.81222 48.7473L1.67638 46.2966C1.51435 46.1238 1.26394 46.1238 1.11664 46.2966C0.95461 46.4694 0.95461 46.7679 1.11664 46.9407L3.81222 50.0354C3.97425 50.2082 4.22466 50.2082 4.37196 50.0354L6.78767 47.2706C6.9497 47.0978 7.20011 47.0978 7.34741 47.2706L9.76312 50.0354C9.92515 50.2082 10.1756 50.2082 10.3229 50.0354L12.7386 47.2706C12.9006 47.0978 13.151 47.0978 13.2983 47.2706L15.714 50.0354C15.8761 50.2082 16.1265 50.2082 16.2738 50.0354L18.6895 47.2706C18.8515 47.0978 19.1019 47.0978 19.2492 47.2706L21.6649 50.0354C21.827 50.2082 22.0774 50.2082 22.2247 50.0354L24.6404 47.2706C24.8024 47.0978 25.0528 47.0978 25.2001 47.2706L27.336 49.7212C27.498 49.894 27.7484 49.894 27.8957 49.7212C28.043 49.5484 28.043 49.25 27.8957 49.0772L25.2001 45.9825C25.0381 45.794 24.7877 45.794 24.6256 45.9668Z" fill="#F6CCCC"/>
</g>
<g clip-path="url(#clip2)">
<path d="M24.6256 52.8068L22.2247 55.5874C22.0626 55.7602 21.8122 55.7602 21.6649 55.5874L19.2492 52.8226C19.0872 52.6498 18.8368 52.6498 18.6895 52.8226L16.2738 55.5874C16.1117 55.7602 15.8613 55.7602 15.714 55.5874L13.2983 52.8068C13.1363 52.634 12.8859 52.634 12.7386 52.8068L10.3229 55.5874C10.1608 55.7602 9.91042 55.7602 9.76312 55.5874L7.34741 52.8068C7.18538 52.634 6.93497 52.634 6.78767 52.8068L4.37196 55.5874C4.20993 55.7602 3.95952 55.7602 3.81222 55.5874L1.67638 53.1367C1.51435 52.9639 1.26394 52.9639 1.11664 53.1367C0.95461 53.3095 0.95461 53.608 1.11664 53.7808L3.81222 56.8755C3.97425 57.0483 4.22466 57.0483 4.37196 56.8755L6.78767 54.1107C6.9497 53.9379 7.20011 53.9379 7.34741 54.1107L9.76312 56.8755C9.92515 57.0483 10.1756 57.0483 10.3229 56.8755L12.7386 54.1107C12.9006 53.9379 13.151 53.9379 13.2983 54.1107L15.714 56.8755C15.8761 57.0483 16.1265 57.0483 16.2738 56.8755L18.6895 54.1107C18.8515 53.9379 19.1019 53.9379 19.2492 54.1107L21.6649 56.8755C21.827 57.0483 22.0774 57.0483 22.2247 56.8755L24.6404 54.1107C24.8024 53.9379 25.0528 53.9379 25.2001 54.1107L27.336 56.5613C27.498 56.7341 27.7484 56.7341 27.8957 56.5613C28.043 56.3885 28.043 56.09 27.8957 55.9172L25.2001 52.8226C25.0381 52.634 24.7877 52.634 24.6256 52.8068Z" fill="#F6CCCC"/>
</g>
<path d="M34.7987 22.8399C34.5257 22.8399 34.2563 22.7146 34.082 22.4776C33.2736 21.3792 31.835 20.1192 29.5714 20.3609C26.9063 20.6448 24.9272 19.7966 23.7361 19.0353C23.3224 18.7708 23.2015 18.2212 23.4658 17.8075C23.7301 17.3937 24.28 17.2729 24.6935 17.5372C25.645 18.1452 27.2309 18.8226 29.3831 18.593C32.6496 18.2461 34.6263 20.2174 35.514 21.4239C35.805 21.8192 35.7203 22.3758 35.3248 22.6668C35.1661 22.7835 34.9817 22.8399 34.7987 22.8399Z" fill="#3C91E6"/>
<path d="M25.4915 27.5606C25.3328 27.5606 25.1724 27.5183 25.0272 27.4291C24.6087 27.1723 24.4779 26.6249 24.7347 26.2064C25.8742 24.3501 27.9624 23.0742 30.7737 22.5169C32.8234 22.1106 34.5433 22.2218 34.6153 22.2269C35.1051 22.2605 35.475 22.6847 35.4414 23.1746C35.4078 23.664 34.9825 24.0311 34.4947 24.0007C34.4331 23.9966 28.3968 23.6387 26.2499 27.1365C26.0821 27.41 25.7902 27.5606 25.4915 27.5606Z" fill="#3C91E6"/>
<path d="M38.8914 61.6248C53.4909 61.6248 61.5636 40.2101 38.5087 23.6703C37.9352 23.2589 37.5946 22.5964 37.6023 21.8906C37.6086 21.3074 37.7934 20.7411 38.1279 20.2633C39.2072 18.722 40.7608 16.0854 41.6925 13.9617C41.9156 13.4532 41.5963 12.9061 40.9995 12.9061C39.6147 12.9062 39.6147 12 38.2299 12C36.8451 12 36.8451 12.9062 35.4602 12.9062C34.28 12.9062 33.7959 11.8909 33.2221 12.6294C31.5489 14.783 37.28 22.3562 37.28 22.3562C11.9688 38.9957 20.13 61.6249 35.0741 61.6249H38.8914V61.6248Z" fill="#8ABDF0"/>
<path d="M44.6306 22.3561C44.6306 22.3561 50.4468 14.8073 48.7743 12.6419C48.2043 11.9039 47.7183 12.9062 46.5394 12.9062C45.1544 12.9061 45.1544 12 43.7694 12C42.3845 12 42.3845 12.9061 40.9995 12.9061C40.9313 12.9061 40.8691 12.9023 40.8073 12.8981C40.2508 15.2834 37.7432 18.9994 36.3082 20.9891C36.8733 21.8184 37.2802 22.3559 37.2802 22.3559C36.9426 22.5779 36.6121 22.8011 36.2864 23.0252C60.4696 39.6473 52.3778 61.6246 37.5878 61.6246H46.9262C61.9155 61.6248 70.0262 39.0509 44.6306 22.3561Z" fill="#3C91E6"/>
<path d="M45.7121 25.0411C42.3325 25.8946 38.9937 25.8946 35.6135 25.0411C34.4371 24.744 33.7702 23.4211 34.1935 22.2185C34.1982 22.2051 34.2029 22.1916 34.2077 22.1781C34.5626 21.1699 35.5693 20.6042 36.556 20.8519C39.3233 21.5467 42.0013 21.5469 44.7695 20.8519C45.7561 20.6042 46.7628 21.1699 47.1178 22.1781C47.1225 22.1916 47.1272 22.2051 47.132 22.2185C47.5554 23.4211 46.8885 24.744 45.7121 25.0411Z" fill="#D30000"/>
<path d="M33.88 46.2162C33.88 47.2242 33.7707 48.1015 33.552 48.8482C33.3387 49.5895 33.04 50.2029 32.656 50.6882C32.2773 51.1735 31.8267 51.5362 31.304 51.7762C30.7867 52.0109 30.2267 52.1282 29.624 52.1282C29.0213 52.1282 28.4613 52.0109 27.944 51.7762C27.432 51.5362 26.9867 51.1735 26.608 50.6882C26.2293 50.2029 25.9333 49.5895 25.72 48.8482C25.5067 48.1015 25.4 47.2242 25.4 46.2162C25.4 45.2029 25.5067 44.3255 25.72 43.5842C25.9333 42.8429 26.2293 42.2295 26.608 41.7442C26.9867 41.2589 27.432 40.8989 27.944 40.6642C28.4613 40.4242 29.0213 40.3042 29.624 40.3042C30.2267 40.3042 30.7867 40.4242 31.304 40.6642C31.8267 40.8989 32.2773 41.2589 32.656 41.7442C33.04 42.2295 33.3387 42.8429 33.552 43.5842C33.7707 44.3255 33.88 45.2029 33.88 46.2162ZM31.84 46.2162C31.84 45.3789 31.7787 44.6855 31.656 44.1362C31.5333 43.5869 31.368 43.1495 31.16 42.8242C30.9573 42.4989 30.7227 42.2722 30.456 42.1442C30.1893 42.0109 29.912 41.9442 29.624 41.9442C29.3413 41.9442 29.0667 42.0109 28.8 42.1442C28.5387 42.2722 28.3067 42.4989 28.104 42.8242C27.9013 43.1495 27.7387 43.5869 27.616 44.1362C27.4987 44.6855 27.44 45.3789 27.44 46.2162C27.44 47.0535 27.4987 47.7469 27.616 48.2962C27.7387 48.8455 27.9013 49.2829 28.104 49.6082C28.3067 49.9335 28.5387 50.1629 28.8 50.2962C29.0667 50.4242 29.3413 50.4882 29.624 50.4882C29.912 50.4882 30.1893 50.4242 30.456 50.2962C30.7227 50.1629 30.9573 49.9335 31.16 49.6082C31.368 49.2829 31.5333 48.8455 31.656 48.2962C31.7787 47.7469 31.84 47.0535 31.84 46.2162Z" fill="white"/>
<path d="M40.2412 43.2322C40.2412 43.6695 40.1666 44.0642 40.0172 44.4162C39.8732 44.7682 39.6786 45.0695 39.4332 45.3202C39.1879 45.5655 38.9026 45.7549 38.5772 45.8882C38.2519 46.0215 37.9132 46.0882 37.5612 46.0882C37.1772 46.0882 36.8226 46.0215 36.4972 45.8882C36.1719 45.7549 35.8892 45.5655 35.6492 45.3202C35.4146 45.0695 35.2306 44.7682 35.0972 44.4162C34.9639 44.0642 34.8972 43.6695 34.8972 43.2322C34.8972 42.7842 34.9639 42.3789 35.0972 42.0162C35.2306 41.6535 35.4146 41.3469 35.6492 41.0962C35.8892 40.8455 36.1719 40.6535 36.4972 40.5202C36.8226 40.3815 37.1772 40.3122 37.5612 40.3122C37.9452 40.3122 38.2999 40.3815 38.6252 40.5202C38.9559 40.6535 39.2412 40.8455 39.4812 41.0962C39.7212 41.3469 39.9079 41.6535 40.0412 42.0162C40.1746 42.3789 40.2412 42.7842 40.2412 43.2322ZM38.7212 43.2322C38.7212 42.9229 38.6892 42.6642 38.6252 42.4562C38.5666 42.2482 38.4839 42.0802 38.3772 41.9522C38.2759 41.8242 38.1532 41.7335 38.0092 41.6802C37.8706 41.6215 37.7212 41.5922 37.5612 41.5922C37.4012 41.5922 37.2519 41.6215 37.1132 41.6802C36.9746 41.7335 36.8546 41.8242 36.7532 41.9522C36.6572 42.0802 36.5799 42.2482 36.5212 42.4562C36.4626 42.6642 36.4332 42.9229 36.4332 43.2322C36.4332 43.5309 36.4626 43.7815 36.5212 43.9842C36.5799 44.1815 36.6572 44.3415 36.7532 44.4642C36.8546 44.5869 36.9746 44.6749 37.1132 44.7282C37.2519 44.7815 37.4012 44.8082 37.5612 44.8082C37.7212 44.8082 37.8706 44.7815 38.0092 44.7282C38.1532 44.6749 38.2759 44.5869 38.3772 44.4642C38.4839 44.3415 38.5666 44.1815 38.6252 43.9842C38.6892 43.7815 38.7212 43.5309 38.7212 43.2322ZM44.0892 40.7442C44.1586 40.6642 44.2386 40.5922 44.3292 40.5282C44.4252 40.4642 44.5586 40.4322 44.7292 40.4322H46.1692L37.5772 51.7042C37.5079 51.7895 37.4252 51.8615 37.3292 51.9202C37.2332 51.9735 37.1159 52.0002 36.9772 52.0002H35.5052L44.0892 40.7442ZM46.7772 49.2802C46.7772 49.7175 46.7026 50.1122 46.5532 50.4642C46.4092 50.8162 46.2146 51.1175 45.9692 51.3682C45.7239 51.6135 45.4386 51.8055 45.1132 51.9442C44.7879 52.0775 44.4492 52.1442 44.0972 52.1442C43.7132 52.1442 43.3586 52.0775 43.0332 51.9442C42.7079 51.8055 42.4252 51.6135 42.1852 51.3682C41.9506 51.1175 41.7666 50.8162 41.6332 50.4642C41.4999 50.1122 41.4332 49.7175 41.4332 49.2802C41.4332 48.8322 41.4999 48.4269 41.6332 48.0642C41.7666 47.7015 41.9506 47.3949 42.1852 47.1442C42.4252 46.8935 42.7079 46.7015 43.0332 46.5682C43.3586 46.4295 43.7132 46.3602 44.0972 46.3602C44.4812 46.3602 44.8359 46.4295 45.1612 46.5682C45.4919 46.7015 45.7746 46.8935 46.0092 47.1442C46.2492 47.3949 46.4359 47.7015 46.5692 48.0642C46.7079 48.4269 46.7772 48.8322 46.7772 49.2802ZM45.2492 49.2802C45.2492 48.9709 45.2199 48.7122 45.1612 48.5042C45.1026 48.2962 45.0199 48.1282 44.9132 48.0002C44.8119 47.8722 44.6892 47.7815 44.5452 47.7282C44.4066 47.6695 44.2572 47.6402 44.0972 47.6402C43.9372 47.6402 43.7879 47.6695 43.6492 47.7282C43.5106 47.7815 43.3906 47.8722 43.2892 48.0002C43.1879 48.1282 43.1079 48.2962 43.0492 48.5042C42.9959 48.7122 42.9692 48.9709 42.9692 49.2802C42.9692 49.5789 42.9959 49.8295 43.0492 50.0322C43.1079 50.2349 43.1879 50.3975 43.2892 50.5202C43.3906 50.6429 43.5106 50.7309 43.6492 50.7842C43.7879 50.8375 43.9372 50.8642 44.0972 50.8642C44.2572 50.8642 44.4066 50.8375 44.5452 50.7842C44.6892 50.7309 44.8119 50.6429 44.9132 50.5202C45.0199 50.3975 45.1026 50.2349 45.1612 50.0322C45.2199 49.8295 45.2492 49.5789 45.2492 49.2802Z" fill="white"/>
<defs>
<linearGradient id="paint0_linear" x1="4.01286" y1="15.9197" x2="62.5595" y2="56.6657" gradientUnits="userSpaceOnUse">
<stop offset="0.0001" stop-color="#D8E9FA"/>
<stop offset="0.708333" stop-color="#E2EFFB" stop-opacity="0.8"/>
<stop offset="1" stop-color="#EBF4FC" stop-opacity="0"/>
</linearGradient>
<clipPath id="clip0">
<rect width="27" height="4.32" fill="white" transform="matrix(1 0 0 -1 1 43.3201)"/>
</clipPath>
<clipPath id="clip1">
<rect width="27" height="4.32" fill="white" transform="matrix(1 0 0 -1 1 50.1602)"/>
</clipPath>
<clipPath id="clip2">
<rect width="27" height="4.32" fill="white" transform="matrix(1 0 0 -1 1 57.0003)"/>
</clipPath>
</defs>
</svg>
