<svg width="64" height="64" viewBox="0 0 64 64" fill="none" xmlns="http://www.w3.org/2000/svg">
<rect width="64" height="64" rx="32" fill="url(#paint0_linear)"/>
<g opacity="0.4">
<circle cx="9.5" cy="8.5" r="1.5" fill="#66C7EF"/>
<circle cx="16.5" cy="8.5" r="1.5" fill="#66C7EF"/>
<circle cx="23.5" cy="8.5" r="1.5" fill="#66C7EF"/>
<circle cx="30.5" cy="8.5" r="1.5" fill="#66C7EF"/>
<circle cx="37.5" cy="8.5" r="1.5" fill="#66C7EF"/>
</g>
<g opacity="0.4">
<circle cx="9.5" cy="15.5" r="1.5" fill="#66C7EF"/>
<circle cx="16.5" cy="15.5" r="1.5" fill="#66C7EF"/>
<circle cx="23.5" cy="15.5" r="1.5" fill="#66C7EF"/>
<circle cx="30.5" cy="15.5" r="1.5" fill="#66C7EF"/>
<circle cx="37.5" cy="15.5" r="1.5" fill="#66C7EF"/>
</g>
<g opacity="0.4">
<circle cx="9.5" cy="22.5" r="1.5" fill="#66C7EF"/>
<circle cx="16.5" cy="22.5" r="1.5" fill="#66C7EF"/>
<circle cx="23.5" cy="22.5" r="1.5" fill="#66C7EF"/>
<circle cx="30.5" cy="22.5" r="1.5" fill="#66C7EF"/>
<circle cx="37.5" cy="22.5" r="1.5" fill="#66C7EF"/>
</g>
<g opacity="0.4">
<circle cx="9.5" cy="29.5" r="1.5" fill="#66C7EF"/>
<circle cx="16.5" cy="29.5" r="1.5" fill="#66C7EF"/>
<circle cx="23.5" cy="29.5" r="1.5" fill="#66C7EF"/>
<circle cx="30.5" cy="29.5" r="1.5" fill="#66C7EF"/>
<circle cx="37.5" cy="29.5" r="1.5" fill="#66C7EF"/>
</g>
<path d="M30.0871 18.0957C29.8832 18.0957 29.682 18.0021 29.5518 17.8251C28.948 17.0048 27.8737 16.0637 26.183 16.2442C24.1926 16.4562 22.7145 15.8228 21.8249 15.2542C21.5159 15.0567 21.4256 14.6461 21.623 14.3372C21.8204 14.0282 22.2311 13.9379 22.5399 14.1353C23.2506 14.5894 24.435 15.0953 26.0424 14.9238C28.482 14.6648 29.9583 16.1371 30.6213 17.0381C30.8387 17.3334 30.7754 17.7491 30.4801 17.9664C30.3615 18.0536 30.2238 18.0957 30.0871 18.0957Z" fill="#D30000"/>
<path d="M23.136 21.6215C23.0175 21.6215 22.8977 21.5899 22.7892 21.5233C22.4766 21.3315 22.3789 20.9226 22.5707 20.6101C23.4218 19.2237 24.9814 18.2708 27.081 17.8545C28.6119 17.5511 29.8964 17.6342 29.9502 17.6379C30.316 17.663 30.5922 17.9799 30.5671 18.3457C30.5421 18.7113 30.2244 18.9854 29.8601 18.9628C29.8141 18.9597 25.3058 18.6924 23.7024 21.3047C23.5771 21.509 23.3591 21.6215 23.136 21.6215Z" fill="#D30000"/>
<path d="M33.1438 47.0629C44.0476 47.0629 50.0768 31.069 32.8579 18.7161C32.4296 18.4088 32.1753 17.9141 32.181 17.3869C32.1857 16.9513 32.3238 16.5284 32.5736 16.1715C33.3797 15.0204 34.54 13.0512 35.2358 11.4651C35.4025 11.0853 35.164 10.6768 34.7182 10.6768C33.684 10.6768 33.684 10 32.6497 10C31.6155 10 31.6155 10.6768 30.5811 10.6768C29.6997 10.6768 29.3381 9.91853 28.9096 10.4701C27.6599 12.0785 31.9403 17.7346 31.9403 17.7346C13.0363 30.1621 19.1316 47.063 30.2928 47.063H33.1438V47.0629Z" fill="#8ABDF0"/>
<path d="M37.4301 17.7345C37.4301 17.7345 41.774 12.0967 40.5249 10.4794C40.0992 9.92824 39.7362 10.6768 38.8558 10.6768C37.8213 10.6768 37.8213 10 36.7869 10C35.7525 10 35.7526 10.6768 34.7182 10.6768C34.6672 10.6768 34.6208 10.6739 34.5746 10.6707C34.159 12.4522 32.2862 15.2276 31.2144 16.7136C31.6365 17.333 31.9404 17.7345 31.9404 17.7345C31.6882 17.9002 31.4414 18.067 31.1981 18.2343C49.2597 30.6487 43.2162 47.0628 32.1701 47.0628H39.1446C50.3396 47.0629 56.3971 30.2033 37.4301 17.7345Z" fill="#3C91E6"/>
<path d="M38.238 19.7399C35.7139 20.3774 33.2202 20.3774 30.6957 19.7399C29.8171 19.518 29.319 18.53 29.6352 17.6318C29.6387 17.6218 29.6422 17.6117 29.6458 17.6017C29.9109 16.8487 30.6627 16.4261 31.3997 16.6112C33.4665 17.1301 35.4666 17.1302 37.534 16.6112C38.2709 16.4261 39.0227 16.8487 39.2879 17.6017C39.2914 17.6117 39.2949 17.6218 39.2984 17.6318C39.6147 18.53 39.1166 19.518 38.238 19.7399Z" fill="#D30000"/>
<path d="M14.5052 49.9628L24.1178 53.5407C24.9342 53.8446 25.7983 54.0002 26.6695 54.0002H36.576C37.9623 54.0002 39.3202 53.6063 40.4912 52.8642L52.8952 45.0043C53.7136 44.2777 53.8652 43.0565 53.2496 42.1517C52.5759 41.1617 51.4616 40.9896 50.2353 41.5694L38.1589 46.8867L38.1731 44.9274C38.0132 43.3192 36.7749 42.0285 35.1748 41.8021L27.8206 40.9554C26.1241 40.7154 25.2764 40.1468 23.7974 39.2817C21.7783 38.1006 19.4812 37.478 17.142 37.478H14.5052V49.9628Z" fill="#FBC08B"/>
<path d="M23.534 51.6343C24.3923 51.9537 25.3007 52.1173 26.2165 52.1173H36.6309C37.7397 52.1173 38.8307 51.877 39.8315 51.4189L47.1137 46.8044C47.7903 46.3757 48.2198 45.6294 48.1978 44.8287C48.1862 44.4041 48.0564 43.979 47.8021 43.6054C47.8021 43.6054 47.5804 43.2254 47.3526 42.8387L38.1589 46.8867L38.1731 44.9274C38.0132 43.3192 36.7749 42.0285 35.1748 41.8021L27.8206 40.9554C26.1241 40.7154 25.2764 40.1468 23.7974 39.2817C21.7783 38.1006 19.4812 37.478 17.142 37.478H14.5052V48.2736L23.534 51.6343Z" fill="#FBC08B"/>
<path d="M53.2496 42.1514C52.5759 41.1614 51.4616 40.9894 50.2353 41.5692L46.9136 43.0318C47.0744 43.2864 47.2024 43.4897 47.2024 43.4897C47.8181 44.3945 47.6664 45.6157 46.848 46.3424L39.6204 50.9221C38.6685 51.3579 37.6306 51.5865 36.5759 51.5865H26.6695C25.7984 51.5865 24.9343 51.4309 24.1179 51.127L14.5052 47.549V49.9625L24.1179 53.5405C24.9343 53.8444 25.7984 54 26.6695 54H34.7633H36.5761C37.9625 54 39.3203 53.6061 40.4914 52.864L52.8953 45.0041C53.7135 44.2774 53.8653 43.0562 53.2496 42.1514Z" fill="#F7A079"/>
<path d="M37.2716 42.9087L37.2713 42.956L37.3025 42.9422C37.2923 42.9309 37.2818 42.9199 37.2716 42.9087Z" fill="#F5DBCC"/>
<path d="M38.1589 46.8853H30.6498C30.2831 46.8853 29.9858 46.5881 29.9858 46.2213C29.9858 45.8545 30.283 45.5574 30.6498 45.5574H38.1686L38.1589 46.8853Z" fill="#F7A079"/>
<path fill-rule="evenodd" clip-rule="evenodd" d="M7.85398 53C3.61301 48.1278 0.822452 41.9598 0.154907 35.1686C0.787567 35.0614 1.52186 35 2.305 35H12.695C15.0726 35 17 35.5657 17 36.2636V51.7364C17 52.4343 15.0726 53 12.695 53H7.85398Z" fill="#D30000"/>
<path d="M28.0117 32.6356C28.3609 32.6356 28.6642 32.5929 28.9215 32.5076C29.1834 32.4222 29.397 32.3054 29.5624 32.1572C29.7324 32.0045 29.8588 31.8248 29.9415 31.6182C30.0242 31.4116 30.0655 31.1847 30.0655 30.9377C30.0655 30.4436 29.8978 30.064 29.5624 29.799C29.2316 29.534 28.7239 29.4015 28.0393 29.4015H26.8539V32.6356H28.0117ZM32.7809 37.7428H31.1062C30.7892 37.7428 30.5594 37.6216 30.417 37.379L28.3219 34.2594C28.2438 34.1426 28.1565 34.0595 28.06 34.0101C27.9681 33.9607 27.8303 33.936 27.6465 33.936H26.8539V37.7428H25V28H28.0393C28.7147 28 29.2936 28.0696 29.7761 28.2089C30.2631 28.3436 30.6605 28.5345 30.9683 28.7816C31.2808 29.0286 31.5105 29.3251 31.6575 29.671C31.8046 30.0124 31.8781 30.3897 31.8781 30.8029C31.8781 31.1308 31.8275 31.4408 31.7264 31.7327C31.63 32.0247 31.4875 32.2897 31.2991 32.5278C31.1154 32.7659 30.8856 32.9747 30.61 33.1544C30.3389 33.3341 30.0288 33.4756 29.6796 33.5789C29.799 33.6463 29.9093 33.7271 30.0104 33.8214C30.1115 33.9113 30.2033 34.0191 30.286 34.1449L32.7809 37.7428Z" fill="white"/>
<path d="M35.1964 35.9506C35.3894 36.1797 35.5984 36.3414 35.8235 36.4357C36.0533 36.53 36.3014 36.5772 36.5679 36.5772C36.8252 36.5772 37.0572 36.53 37.2639 36.4357C37.4707 36.3414 37.6453 36.1976 37.7877 36.0045C37.9347 35.8113 38.0473 35.5688 38.1254 35.2768C38.2035 34.9803 38.2426 34.6322 38.2426 34.2325C38.2426 33.8282 38.2081 33.4868 38.1392 33.2083C38.0749 32.9253 37.9807 32.6962 37.8566 32.5211C37.7326 32.3459 37.581 32.2179 37.4018 32.137C37.2272 32.0561 37.0273 32.0157 36.8022 32.0157C36.4484 32.0157 36.1475 32.0898 35.8994 32.2381C35.6512 32.3818 35.4169 32.5862 35.1964 32.8512V35.9506ZM35.1068 31.7732C35.3962 31.4542 35.7248 31.196 36.0923 30.9983C36.4599 30.8007 36.8918 30.7019 37.388 30.7019C37.7739 30.7019 38.1254 30.7805 38.4424 30.9377C38.7641 31.0949 39.0397 31.324 39.2695 31.6249C39.5038 31.9214 39.683 32.2897 39.807 32.7299C39.9357 33.1656 40 33.6665 40 34.2325C40 34.749 39.9288 35.2274 39.7864 35.6676C39.6439 36.1078 39.4395 36.4896 39.173 36.813C38.9111 37.1364 38.5918 37.3902 38.215 37.5744C37.8429 37.7541 37.4247 37.8439 36.9607 37.8439C36.5656 37.8439 36.2279 37.7855 35.9476 37.6687C35.6673 37.5474 35.4169 37.3812 35.1964 37.1701V40H33.4941V30.8299H34.5348C34.7553 30.8299 34.9 30.9309 34.969 31.1331L35.1068 31.7732Z" fill="white"/>
<defs>
<linearGradient id="paint0_linear" x1="4.01286" y1="14.9196" x2="62.5595" y2="55.6656" gradientUnits="userSpaceOnUse">
<stop offset="0.0001" stop-color="#D8E9FA"/>
<stop offset="0.708333" stop-color="#E2EFFB" stop-opacity="0.8"/>
<stop offset="1" stop-color="#EBF4FC" stop-opacity="0"/>
</linearGradient>
</defs>
</svg>
