<svg width="64" height="64" viewBox="0 0 64 64" fill="none" xmlns="http://www.w3.org/2000/svg">
<rect x="64" y="64" width="64" height="64" rx="32" transform="rotate(-180 64 64)" fill="url(#paint0_linear)"/>
<g opacity="0.4">
<circle cx="9.5" cy="3.5" r="1.5" fill="#66C7EF"/>
<circle cx="16.5" cy="3.5" r="1.5" fill="#66C7EF"/>
<circle cx="23.5" cy="3.5" r="1.5" fill="#66C7EF"/>
<circle cx="30.5" cy="3.5" r="1.5" fill="#66C7EF"/>
<circle cx="37.5" cy="3.5" r="1.5" fill="#66C7EF"/>
</g>
<g opacity="0.4">
<circle cx="9.5" cy="10.5" r="1.5" fill="#66C7EF"/>
<circle cx="16.5" cy="10.5" r="1.5" fill="#66C7EF"/>
<circle cx="23.5" cy="10.5" r="1.5" fill="#66C7EF"/>
<circle cx="30.5" cy="10.5" r="1.5" fill="#66C7EF"/>
<circle cx="37.5" cy="10.5" r="1.5" fill="#66C7EF"/>
</g>
<g opacity="0.4">
<circle cx="9.5" cy="17.5" r="1.5" fill="#66C7EF"/>
<circle cx="16.5" cy="17.5" r="1.5" fill="#66C7EF"/>
<circle cx="23.5" cy="17.5" r="1.5" fill="#66C7EF"/>
<circle cx="30.5" cy="17.5" r="1.5" fill="#66C7EF"/>
<circle cx="37.5" cy="17.5" r="1.5" fill="#66C7EF"/>
</g>
<g opacity="0.4">
<circle cx="9.5" cy="24.5" r="1.5" fill="#66C7EF"/>
<circle cx="16.5" cy="24.5" r="1.5" fill="#66C7EF"/>
<circle cx="23.5" cy="24.5" r="1.5" fill="#66C7EF"/>
<circle cx="30.5" cy="24.5" r="1.5" fill="#66C7EF"/>
<circle cx="37.5" cy="24.5" r="1.5" fill="#66C7EF"/>
</g>
<path d="M33.5397 18.0957C33.7436 18.0957 33.9448 18.0021 34.075 17.8251C34.6788 17.0048 35.7532 16.0637 37.4438 16.2442C39.4342 16.4562 40.9124 15.8228 41.802 15.2542C42.1109 15.0567 42.2012 14.6461 42.0038 14.3372C41.8064 14.0282 41.3958 13.9379 41.0869 14.1353C40.3763 14.5894 39.1918 15.0953 37.5844 14.9238C35.1448 14.6648 33.6685 16.1371 33.0055 17.0381C32.7882 17.3334 32.8514 17.7491 33.1468 17.9664C33.2653 18.0536 33.403 18.0957 33.5397 18.0957Z" fill="#D30000"/>
<path d="M40.4909 21.6215C40.6094 21.6215 40.7292 21.5899 40.8376 21.5233C41.1502 21.3315 41.2479 20.9226 41.0561 20.6101C40.205 19.2237 38.6455 18.2708 36.5458 17.8545C35.0149 17.5511 33.7304 17.6342 33.6766 17.6379C33.3108 17.663 33.0346 17.9799 33.0597 18.3457C33.0848 18.7113 33.4024 18.9854 33.7667 18.9628C33.8128 18.9597 38.321 18.6924 39.9245 21.3047C40.0498 21.509 40.2678 21.6215 40.4909 21.6215Z" fill="#D30000"/>
<path d="M30.4831 47.0629C19.5792 47.0629 13.55 31.069 30.7689 18.7161C31.1972 18.4088 31.4516 17.9141 31.4458 17.3869C31.4411 16.9513 31.3031 16.5284 31.0533 16.1715C30.2472 15.0204 29.0868 13.0512 28.391 11.4651C28.2244 11.0853 28.4628 10.6768 28.9086 10.6768C29.9429 10.6768 29.9429 10 30.9771 10C32.0114 10 32.0114 10.6768 33.0457 10.6768C33.9271 10.6768 34.2887 9.91853 34.7172 10.4701C35.9669 12.0785 31.6865 17.7346 31.6865 17.7346C50.5905 30.1621 44.4953 47.063 33.334 47.063H30.4831V47.0629Z" fill="#8ABDF0"/>
<path d="M26.1967 17.7345C26.1967 17.7345 21.8528 12.0967 23.1019 10.4794C23.5276 9.92824 23.8906 10.6768 24.7711 10.6768C25.8055 10.6768 25.8055 10 26.8399 10C27.8743 10 27.8743 10.6768 28.9086 10.6768C28.9596 10.6768 29.0061 10.6739 29.0522 10.6707C29.4678 12.4522 31.3407 15.2276 32.4124 16.7136C31.9903 17.333 31.6865 17.7345 31.6865 17.7345C31.9386 17.9002 32.1854 18.067 32.4287 18.2343C14.3671 30.6487 20.4106 47.0628 31.4568 47.0628H24.4822C13.2872 47.0629 7.22968 30.2033 26.1967 17.7345Z" fill="#3C91E6"/>
<path d="M25.3889 19.7399C27.9129 20.3774 30.4066 20.3774 32.9311 19.7399C33.8097 19.518 34.3078 18.53 33.9916 17.6318C33.9881 17.6218 33.9846 17.6117 33.9811 17.6017C33.716 16.8487 32.9641 16.4261 32.2272 16.6112C30.1604 17.1301 28.1603 17.1302 26.0929 16.6112C25.356 16.4261 24.6041 16.8487 24.339 17.6017C24.3355 17.6117 24.3319 17.6218 24.3284 17.6318C24.0122 18.53 24.5102 19.518 25.3889 19.7399Z" fill="#D30000"/>
<path d="M29.0117 31.6356C29.3609 31.6356 29.6642 31.5929 29.9215 31.5076C30.1834 31.4222 30.397 31.3054 30.5624 31.1572C30.7324 31.0045 30.8588 30.8248 30.9415 30.6182C31.0242 30.4116 31.0655 30.1847 31.0655 29.9377C31.0655 29.4436 30.8978 29.064 30.5624 28.799C30.2316 28.534 29.7239 28.4015 29.0393 28.4015H27.8539V31.6356H29.0117ZM33.7809 36.7428H32.1062C31.7892 36.7428 31.5594 36.6216 31.417 36.379L29.3219 33.2594C29.2438 33.1426 29.1565 33.0595 29.06 33.0101C28.9681 32.9607 28.8303 32.936 28.6465 32.936H27.8539V36.7428H26V27H29.0393C29.7147 27 30.2936 27.0696 30.7761 27.2089C31.2631 27.3436 31.6605 27.5345 31.9683 27.7816C32.2808 28.0286 32.5105 28.3251 32.6575 28.671C32.8046 29.0124 32.8781 29.3897 32.8781 29.8029C32.8781 30.1308 32.8275 30.4408 32.7264 30.7327C32.63 31.0247 32.4875 31.2897 32.2991 31.5278C32.1154 31.7659 31.8856 31.9747 31.61 32.1544C31.3389 32.3341 31.0288 32.4756 30.6796 32.5789C30.799 32.6463 30.9093 32.7271 31.0104 32.8214C31.1115 32.9113 31.2033 33.0191 31.286 33.1449L33.7809 36.7428Z" fill="white"/>
<path d="M36.1964 34.9506C36.3894 35.1797 36.5984 35.3414 36.8235 35.4357C37.0533 35.53 37.3014 35.5772 37.5679 35.5772C37.8252 35.5772 38.0572 35.53 38.2639 35.4357C38.4707 35.3414 38.6453 35.1976 38.7877 35.0045C38.9347 34.8113 39.0473 34.5688 39.1254 34.2768C39.2035 33.9803 39.2426 33.6322 39.2426 33.2325C39.2426 32.8282 39.2081 32.4868 39.1392 32.2083C39.0749 31.9253 38.9807 31.6962 38.8566 31.5211C38.7326 31.3459 38.581 31.2179 38.4018 31.137C38.2272 31.0561 38.0273 31.0157 37.8022 31.0157C37.4484 31.0157 37.1475 31.0898 36.8994 31.2381C36.6512 31.3818 36.4169 31.5862 36.1964 31.8512V34.9506ZM36.1068 30.7732C36.3962 30.4542 36.7248 30.196 37.0923 29.9983C37.4599 29.8007 37.8918 29.7019 38.388 29.7019C38.7739 29.7019 39.1254 29.7805 39.4424 29.9377C39.7641 30.0949 40.0397 30.324 40.2695 30.6249C40.5038 30.9214 40.683 31.2897 40.807 31.7299C40.9357 32.1656 41 32.6665 41 33.2325C41 33.749 40.9288 34.2274 40.7864 34.6676C40.6439 35.1078 40.4395 35.4896 40.173 35.813C39.9111 36.1364 39.5918 36.3902 39.215 36.5744C38.8429 36.7541 38.4247 36.8439 37.9607 36.8439C37.5656 36.8439 37.2279 36.7855 36.9476 36.6687C36.6673 36.5474 36.4169 36.3812 36.1964 36.1701V39H34.4941V29.8299H35.5348C35.7553 29.8299 35.9 29.9309 35.969 30.1331L36.1068 30.7732Z" fill="white"/>
<path d="M49.1216 49.9628L39.509 53.5407C38.6926 53.8446 37.8285 54.0002 36.9574 54.0002H27.0508C25.6645 54.0002 24.3067 53.6063 23.1356 52.8642L10.7316 45.0043C9.91326 44.2777 9.76158 43.0565 10.3772 42.1517C11.0509 41.1617 12.1653 40.9896 13.3915 41.5694L25.4679 46.8867L25.4537 44.9274C25.6136 43.3192 26.8519 42.0285 28.452 41.8021L35.8062 40.9554C37.5027 40.7154 38.3504 40.1468 39.8294 39.2817C41.8485 38.1006 44.1456 37.478 46.4848 37.478H49.1216V49.9628Z" fill="#FBC08B"/>
<path d="M40.0928 51.6343C39.2345 51.9537 38.3261 52.1173 37.4103 52.1173H26.9959C25.8872 52.1173 24.7961 51.877 23.7953 51.4189L16.5131 46.8044C15.8365 46.3757 15.407 45.6294 15.429 44.8287C15.4407 44.4041 15.5704 43.979 15.8247 43.6054C15.8247 43.6054 16.0464 43.2254 16.2743 42.8387L25.4679 46.8867L25.4537 44.9274C25.6136 43.3192 26.8519 42.0285 28.452 41.8021L35.8062 40.9554C37.5027 40.7154 38.3504 40.1468 39.8294 39.2817C41.8485 38.1006 44.1456 37.478 46.4848 37.478H49.1216V48.2736L40.0928 51.6343Z" fill="#FBC08B"/>
<path d="M10.3773 42.1514C11.0509 41.1614 12.1653 40.9894 13.3915 41.5692L16.7133 43.0318C16.5524 43.2864 16.4244 43.4897 16.4244 43.4897C15.8088 44.3945 15.9604 45.6157 16.7788 46.3424L24.0064 50.9221C24.9584 51.3579 25.9962 51.5865 27.0509 51.5865H36.9573C37.8284 51.5865 38.6926 51.4309 39.509 51.127L49.1216 47.549V49.9625L39.509 53.5405C38.6926 53.8444 37.8284 54 36.9573 54H28.8635H27.0507C25.6643 54 24.3065 53.6061 23.1355 52.864L10.7315 45.0041C9.91328 44.2774 9.76152 43.0562 10.3773 42.1514Z" fill="#F7A079"/>
<path d="M26.3552 42.9087L26.3555 42.956L26.3243 42.9422C26.3345 42.9309 26.345 42.9199 26.3552 42.9087Z" fill="#F5DBCC"/>
<path d="M25.468 46.8853H32.9771C33.3438 46.8853 33.6411 46.5881 33.6411 46.2213C33.6411 45.8545 33.3439 45.5574 32.9771 45.5574H25.4583L25.468 46.8853Z" fill="#F7A079"/>
<path fill-rule="evenodd" clip-rule="evenodd" d="M55.7728 53C60.0138 48.1278 62.8044 41.9598 63.4719 35.1686C62.8393 35.0614 62.105 35 61.3218 35H50.9318C48.5542 35 46.6268 35.5657 46.6268 36.2636V51.7364C46.6268 52.4343 48.5542 53 50.9318 53H55.7728Z" fill="#D30000"/>
<defs>
<linearGradient id="paint0_linear" x1="68.0129" y1="78.9196" x2="126.559" y2="119.666" gradientUnits="userSpaceOnUse">
<stop offset="0.0001" stop-color="#D8E9FA"/>
<stop offset="0.708333" stop-color="#E2EFFB" stop-opacity="0.8"/>
<stop offset="1" stop-color="#EBF4FC" stop-opacity="0"/>
</linearGradient>
</defs>
</svg>
