<svg width="64" height="64" viewBox="0 0 64 64" fill="none" xmlns="http://www.w3.org/2000/svg">
<rect width="64" height="64" rx="32" fill="url(#paint0_linear)"/>
<g clip-path="url(#clip0)">
<path d="M60.6256 28.1266L58.2247 30.9071C58.0626 31.0799 57.8122 31.0799 57.6649 30.9071L55.2492 28.1423C55.0872 27.9695 54.8368 27.9695 54.6895 28.1423L52.2738 30.9071C52.1117 31.0799 51.8613 31.0799 51.714 30.9071L49.2983 28.1266C49.1363 27.9538 48.8859 27.9538 48.7386 28.1266L46.3229 30.9071C46.1608 31.0799 45.9104 31.0799 45.7631 30.9071L43.3474 28.1266C43.1854 27.9538 42.935 27.9538 42.7877 28.1266L40.372 30.9071C40.2099 31.0799 39.9595 31.0799 39.8122 30.9071L37.6764 28.4565C37.5143 28.2837 37.2639 28.2837 37.1166 28.4565C36.9546 28.6293 36.9546 28.9277 37.1166 29.1005L39.8122 32.1952C39.9742 32.368 40.2247 32.368 40.372 32.1952L42.7877 29.4304C42.9497 29.2576 43.2001 29.2576 43.3474 29.4304L45.7631 32.1952C45.9252 32.368 46.1756 32.368 46.3229 32.1952L48.7386 29.4304C48.9006 29.2576 49.151 29.2576 49.2983 29.4304L51.714 32.1952C51.8761 32.368 52.1265 32.368 52.2738 32.1952L54.6895 29.4304C54.8515 29.2576 55.1019 29.2576 55.2492 29.4304L57.6649 32.1952C57.827 32.368 58.0774 32.368 58.2247 32.1952L60.6404 29.4304C60.8024 29.2576 61.0528 29.2576 61.2001 29.4304L63.336 31.881C63.498 32.0538 63.7484 32.0538 63.8957 31.881C64.043 31.7082 64.043 31.4098 63.8957 31.237L61.2001 28.1423C61.0381 27.9538 60.7877 27.9538 60.6256 28.1266Z" fill="#F6CCCC"/>
</g>
<g clip-path="url(#clip1)">
<path d="M60.6256 34.9667L58.2247 37.7472C58.0626 37.92 57.8122 37.92 57.6649 37.7472L55.2492 34.9824C55.0872 34.8096 54.8368 34.8096 54.6895 34.9824L52.2738 37.7472C52.1117 37.92 51.8613 37.92 51.714 37.7472L49.2983 34.9667C49.1363 34.7939 48.8859 34.7939 48.7386 34.9667L46.3229 37.7472C46.1608 37.92 45.9104 37.92 45.7631 37.7472L43.3474 34.9667C43.1854 34.7939 42.935 34.7939 42.7877 34.9667L40.372 37.7472C40.2099 37.92 39.9595 37.92 39.8122 37.7472L37.6764 35.2966C37.5143 35.1238 37.2639 35.1238 37.1166 35.2966C36.9546 35.4694 36.9546 35.7678 37.1166 35.9406L39.8122 39.0353C39.9742 39.2081 40.2247 39.2081 40.372 39.0353L42.7877 36.2705C42.9497 36.0977 43.2001 36.0977 43.3474 36.2705L45.7631 39.0353C45.9252 39.2081 46.1756 39.2081 46.3229 39.0353L48.7386 36.2705C48.9006 36.0977 49.151 36.0977 49.2983 36.2705L51.714 39.0353C51.8761 39.2081 52.1265 39.2081 52.2738 39.0353L54.6895 36.2705C54.8515 36.0977 55.1019 36.0977 55.2492 36.2705L57.6649 39.0353C57.827 39.2081 58.0774 39.2081 58.2247 39.0353L60.6404 36.2705C60.8024 36.0977 61.0528 36.0977 61.2001 36.2705L63.336 38.7211C63.498 38.8939 63.7484 38.8939 63.8957 38.7211C64.043 38.5483 64.043 38.2499 63.8957 38.0771L61.2001 34.9824C61.0381 34.7939 60.7877 34.7939 60.6256 34.9667Z" fill="#F6CCCC"/>
</g>
<g clip-path="url(#clip2)">
<path d="M60.6256 41.8068L58.2247 44.5873C58.0626 44.7601 57.8122 44.7601 57.6649 44.5873L55.2492 41.8225C55.0872 41.6497 54.8368 41.6497 54.6895 41.8225L52.2738 44.5873C52.1117 44.7601 51.8613 44.7601 51.714 44.5873L49.2983 41.8068C49.1363 41.634 48.8859 41.634 48.7386 41.8068L46.3229 44.5873C46.1608 44.7601 45.9104 44.7601 45.7631 44.5873L43.3474 41.8068C43.1854 41.634 42.935 41.634 42.7877 41.8068L40.372 44.5873C40.2099 44.7601 39.9595 44.7601 39.8122 44.5873L37.6764 42.1366C37.5143 41.9638 37.2639 41.9638 37.1166 42.1366C36.9546 42.3094 36.9546 42.6079 37.1166 42.7807L39.8122 45.8754C39.9742 46.0482 40.2247 46.0482 40.372 45.8754L42.7877 43.1106C42.9497 42.9378 43.2001 42.9378 43.3474 43.1106L45.7631 45.8754C45.9252 46.0482 46.1756 46.0482 46.3229 45.8754L48.7386 43.1106C48.9006 42.9378 49.151 42.9378 49.2983 43.1106L51.714 45.8754C51.8761 46.0482 52.1265 46.0482 52.2738 45.8754L54.6895 43.1106C54.8515 42.9378 55.1019 42.9378 55.2492 43.1106L57.6649 45.8754C57.827 46.0482 58.0774 46.0482 58.2247 45.8754L60.6404 43.1106C60.8024 42.9378 61.0528 42.9378 61.2001 43.1106L63.336 45.5612C63.498 45.734 63.7484 45.734 63.8957 45.5612C64.043 45.3884 64.043 45.09 63.8957 44.9172L61.2001 41.8225C61.0381 41.634 60.7877 41.634 60.6256 41.8068Z" fill="#F6CCCC"/>
</g>
<path d="M29.6085 35.2305H32.3524V46.2543H29.6085V35.2305Z" fill="#3C91E6"/>
<rect x="18.1796" y="9.99997" width="25.6411" height="25.6411" fill="#3C91E6"/>
<path d="M51.0001 14C51.0001 11.7908 49.2092 9.99997 47.0001 9.99997H34.356C32.4151 9.99997 30.7542 11.3934 30.4169 13.3048L28.8454 22.2099C28.7643 22.6698 28.7643 23.1403 28.8454 23.6002L30.4169 32.5054C30.7542 34.4168 32.4151 35.8102 34.356 35.8102H47.0001C49.2092 35.8102 51.0001 34.0194 51.0001 31.8102V14Z" fill="#3C91E6"/>
<path d="M11 14C11 11.7909 12.7909 10 15 10H27C29.2091 10 31 11.7909 31 14V31.8103C31 34.0194 29.2091 35.8103 27 35.8103H15C12.7909 35.8103 11 34.0194 11 31.8103V14Z" fill="#3C91E6"/>
<path d="M47.5868 25.3536V20.4567C43.7138 20.4315 40.5686 17.2863 40.5435 13.4132H31.0001L28.7228 22.9051L31.0001 32.3969H40.5435C40.5686 28.5238 43.7138 25.3787 47.5868 25.3536Z" fill="#8ABDF0"/>
<path d="M21.4566 13.4132C21.4314 17.2863 18.2862 20.4315 14.4132 20.4567V25.3536C18.2862 25.3787 21.4314 28.5239 21.4566 32.3969H30.9999V13.4132H21.4566Z" fill="#8ABDF0"/>
<path d="M47.5867 17.0434C45.5958 17.0185 43.9815 15.4042 43.9566 13.4132H47.5867V17.0434Z" fill="#D30000"/>
<path d="M18.0433 13.4132C18.0184 15.4042 16.4042 17.0185 14.4132 17.0434V13.4132H18.0433Z" fill="#D30000"/>
<path d="M14.4132 28.7668C16.404 28.7917 18.0183 30.4058 18.0433 32.3969H14.4132V28.7668Z" fill="#D30000"/>
<path d="M43.9566 32.3969C43.9816 30.4059 45.5959 28.7917 47.5867 28.7668V32.3969H43.9566Z" fill="#D30000"/>
<path d="M39.6782 43.1644V40.2075H36.3411C34.0139 40.2075 31.9909 41.5299 30.9804 43.4619L29.1497 51.0417L33.6316 49.211C36.9657 49.211 39.6782 46.4986 39.6782 43.1644Z" fill="#00CC66"/>
<path d="M25.6197 40.2075H22.2826V43.1644C22.2826 46.4986 24.9951 49.211 28.3292 49.211L30.9804 51.0417V43.4619C29.9699 41.5298 27.9469 40.2075 25.6197 40.2075Z" fill="#00CC66"/>
<path d="M42.0075 52.3576L42.7741 48.5251H30.9804L29.1497 54.1883L42.0075 52.3576Z" fill="#F7A079"/>
<path d="M19.9533 52.3576L30.9804 54.1883V48.5251H19.1867L19.9533 52.3576Z" fill="#F7A079"/>
<path d="M42.0075 52.3574H30.9804L29.1497 57.5201L30.9804 62.6828H39.9424L42.0075 52.3574Z" fill="#FBC08B"/>
<path d="M19.9533 52.3574L22.0183 62.6828H30.9804V52.3574H19.9533Z" fill="#FBC08B"/>
<path d="M23.9798 25.9287V26.8537H19.9798V25.9287H21.4448V21.7137C21.4448 21.547 21.4498 21.3754 21.4598 21.1987L20.4198 22.0687C20.3598 22.1154 20.2998 22.1454 20.2398 22.1587C20.1832 22.1687 20.1282 22.1687 20.0748 22.1587C20.0248 22.1487 19.9798 22.132 19.9398 22.1087C19.8998 22.082 19.8698 22.0537 19.8498 22.0237L19.4598 21.4887L21.6648 19.6137H22.6798V25.9287H23.9798Z" fill="white"/>
<path d="M30.1556 23.2387C30.1556 23.8687 30.0873 24.417 29.9506 24.8837C29.8173 25.347 29.6306 25.7304 29.3906 26.0337C29.154 26.337 28.8723 26.5637 28.5456 26.7137C28.2223 26.8604 27.8723 26.9337 27.4956 26.9337C27.119 26.9337 26.769 26.8604 26.4456 26.7137C26.1256 26.5637 25.8473 26.337 25.6106 26.0337C25.374 25.7304 25.189 25.347 25.0556 24.8837C24.9223 24.417 24.8556 23.8687 24.8556 23.2387C24.8556 22.6054 24.9223 22.057 25.0556 21.5937C25.189 21.1304 25.374 20.747 25.6106 20.4437C25.8473 20.1404 26.1256 19.9154 26.4456 19.7687C26.769 19.6187 27.119 19.5437 27.4956 19.5437C27.8723 19.5437 28.2223 19.6187 28.5456 19.7687C28.8723 19.9154 29.154 20.1404 29.3906 20.4437C29.6306 20.747 29.8173 21.1304 29.9506 21.5937C30.0873 22.057 30.1556 22.6054 30.1556 23.2387ZM28.8806 23.2387C28.8806 22.7154 28.8423 22.282 28.7656 21.9387C28.689 21.5954 28.5856 21.322 28.4556 21.1187C28.329 20.9154 28.1823 20.7737 28.0156 20.6937C27.849 20.6104 27.6756 20.5687 27.4956 20.5687C27.319 20.5687 27.1473 20.6104 26.9806 20.6937C26.8173 20.7737 26.6723 20.9154 26.5456 21.1187C26.419 21.322 26.3173 21.5954 26.2406 21.9387C26.1673 22.282 26.1306 22.7154 26.1306 23.2387C26.1306 23.762 26.1673 24.1954 26.2406 24.5387C26.3173 24.882 26.419 25.1554 26.5456 25.3587C26.6723 25.562 26.8173 25.7054 26.9806 25.7887C27.1473 25.8687 27.319 25.9087 27.4956 25.9087C27.6756 25.9087 27.849 25.8687 28.0156 25.7887C28.1823 25.7054 28.329 25.562 28.4556 25.3587C28.5856 25.1554 28.689 24.882 28.7656 24.5387C28.8423 24.1954 28.8806 23.762 28.8806 23.2387Z" fill="white"/>
<path d="M35.9564 23.2387C35.9564 23.8687 35.8881 24.417 35.7514 24.8837C35.6181 25.347 35.4314 25.7304 35.1914 26.0337C34.9547 26.337 34.6731 26.5637 34.3464 26.7137C34.0231 26.8604 33.6731 26.9337 33.2964 26.9337C32.9197 26.9337 32.5697 26.8604 32.2464 26.7137C31.9264 26.5637 31.6481 26.337 31.4114 26.0337C31.1747 25.7304 30.9897 25.347 30.8564 24.8837C30.7231 24.417 30.6564 23.8687 30.6564 23.2387C30.6564 22.6054 30.7231 22.057 30.8564 21.5937C30.9897 21.1304 31.1747 20.747 31.4114 20.4437C31.6481 20.1404 31.9264 19.9154 32.2464 19.7687C32.5697 19.6187 32.9197 19.5437 33.2964 19.5437C33.6731 19.5437 34.0231 19.6187 34.3464 19.7687C34.6731 19.9154 34.9547 20.1404 35.1914 20.4437C35.4314 20.747 35.6181 21.1304 35.7514 21.5937C35.8881 22.057 35.9564 22.6054 35.9564 23.2387ZM34.6814 23.2387C34.6814 22.7154 34.6431 22.282 34.5664 21.9387C34.4897 21.5954 34.3864 21.322 34.2564 21.1187C34.1297 20.9154 33.9831 20.7737 33.8164 20.6937C33.6497 20.6104 33.4764 20.5687 33.2964 20.5687C33.1197 20.5687 32.9481 20.6104 32.7814 20.6937C32.6181 20.7737 32.4731 20.9154 32.3464 21.1187C32.2197 21.322 32.1181 21.5954 32.0414 21.9387C31.9681 22.282 31.9314 22.7154 31.9314 23.2387C31.9314 23.762 31.9681 24.1954 32.0414 24.5387C32.1181 24.882 32.2197 25.1554 32.3464 25.3587C32.4731 25.562 32.6181 25.7054 32.7814 25.7887C32.9481 25.8687 33.1197 25.9087 33.2964 25.9087C33.4764 25.9087 33.6497 25.8687 33.8164 25.7887C33.9831 25.7054 34.1297 25.562 34.2564 25.3587C34.3864 25.1554 34.4897 24.882 34.5664 24.5387C34.6431 24.1954 34.6814 23.762 34.6814 23.2387Z" fill="white"/>
<path d="M38.3572 22.6537H38.6722C38.7988 22.6537 38.9038 22.637 38.9872 22.6037C39.0705 22.567 39.1422 22.5104 39.2022 22.4337L41.1972 19.9087C41.2805 19.802 41.3672 19.7287 41.4572 19.6887C41.5505 19.6454 41.6672 19.6237 41.8072 19.6237H42.9672L40.5322 22.6287C40.3888 22.812 40.2405 22.942 40.0872 23.0187C40.1972 23.0587 40.2955 23.1154 40.3822 23.1887C40.4722 23.2587 40.5572 23.352 40.6372 23.4687L43.1472 26.8537H41.9622C41.8022 26.8537 41.6822 26.832 41.6022 26.7887C41.5255 26.742 41.4605 26.6754 41.4072 26.5887L39.3622 23.9187C39.2988 23.8287 39.2255 23.7654 39.1422 23.7287C39.0588 23.692 38.9388 23.6737 38.7822 23.6737H38.3572V26.8537H37.0122V19.6237H38.3572V22.6537Z" fill="white"/>
<path d="M13.8357 44.5256C11.15 42.8368 5.51069 40.3023 4.43917 43.6746C3.09977 47.89 13.1033 44.065 13.8357 44.5256Z" fill="#8ABDF0"/>
<path d="M15.2366 49.1842C12.6761 49.5915 6.842 52.1999 9.50705 53.6756C11.9889 55.0498 14.5382 49.2953 15.2366 49.1842Z" fill="#8ABDF0"/>
<path d="M17.5625 41.906C16.9352 40.2983 15.3047 37.4134 13.8009 38.7354C11.9212 40.3878 17.3914 41.4676 17.5625 41.906Z" fill="#8ABDF0"/>
<defs>
<linearGradient id="paint0_linear" x1="4.01286" y1="14.9196" x2="62.5595" y2="55.6656" gradientUnits="userSpaceOnUse">
<stop offset="0.0001" stop-color="#D8E9FA"/>
<stop offset="0.708333" stop-color="#E2EFFB" stop-opacity="0.8"/>
<stop offset="1" stop-color="#EBF4FC" stop-opacity="0"/>
</linearGradient>
<clipPath id="clip0">
<rect width="27" height="4.32" fill="white" transform="matrix(1 0 0 -1 37 32.32)"/>
</clipPath>
<clipPath id="clip1">
<rect width="27" height="4.32" fill="white" transform="matrix(1 0 0 -1 37 39.1601)"/>
</clipPath>
<clipPath id="clip2">
<rect width="27" height="4.32" fill="white" transform="matrix(1 0 0 -1 37 46.0002)"/>
</clipPath>
</defs>
</svg>
