<svg width="66" height="64" viewBox="0 0 66 64" fill="none" xmlns="http://www.w3.org/2000/svg">
<rect x="64" y="64" width="64" height="64" rx="32" transform="rotate(-180 64 64)" fill="url(#paint0_linear)"/>
<g clip-path="url(#clip0)">
<path d="M26.6256 33.1266L24.2247 35.9071C24.0626 36.0799 23.8122 36.0799 23.6649 35.9071L21.2492 33.1423C21.0872 32.9695 20.8368 32.9695 20.6895 33.1423L18.2738 35.9071C18.1117 36.0799 17.8613 36.0799 17.714 35.9071L15.2983 33.1266C15.1363 32.9538 14.8859 32.9538 14.7386 33.1266L12.3229 35.9071C12.1608 36.0799 11.9104 36.0799 11.7631 35.9071L9.34741 33.1266C9.18538 32.9538 8.93497 32.9538 8.78767 33.1266L6.37196 35.9071C6.20993 36.0799 5.95952 36.0799 5.81222 35.9071L3.67638 33.4565C3.51435 33.2837 3.26394 33.2837 3.11664 33.4565C2.95461 33.6293 2.95461 33.9277 3.11664 34.1005L5.81222 37.1952C5.97425 37.368 6.22466 37.368 6.37196 37.1952L8.78767 34.4304C8.9497 34.2576 9.20011 34.2576 9.34741 34.4304L11.7631 37.1952C11.9252 37.368 12.1756 37.368 12.3229 37.1952L14.7386 34.4304C14.9006 34.2576 15.151 34.2576 15.2983 34.4304L17.714 37.1952C17.8761 37.368 18.1265 37.368 18.2738 37.1952L20.6895 34.4304C20.8515 34.2576 21.1019 34.2576 21.2492 34.4304L23.6649 37.1952C23.827 37.368 24.0774 37.368 24.2247 37.1952L26.6404 34.4304C26.8024 34.2576 27.0528 34.2576 27.2001 34.4304L29.336 36.881C29.498 37.0538 29.7484 37.0538 29.8957 36.881C30.043 36.7082 30.043 36.4098 29.8957 36.237L27.2001 33.1423C27.0381 32.9538 26.7877 32.9538 26.6256 33.1266Z" fill="#F6CCCC"/>
</g>
<g clip-path="url(#clip1)">
<path d="M26.6256 39.9667L24.2247 42.7472C24.0626 42.92 23.8122 42.92 23.6649 42.7472L21.2492 39.9824C21.0872 39.8096 20.8368 39.8096 20.6895 39.9824L18.2738 42.7472C18.1117 42.92 17.8613 42.92 17.714 42.7472L15.2983 39.9667C15.1363 39.7939 14.8859 39.7939 14.7386 39.9667L12.3229 42.7472C12.1608 42.92 11.9104 42.92 11.7631 42.7472L9.34741 39.9667C9.18538 39.7939 8.93497 39.7939 8.78767 39.9667L6.37196 42.7472C6.20993 42.92 5.95952 42.92 5.81222 42.7472L3.67638 40.2966C3.51435 40.1238 3.26394 40.1238 3.11664 40.2966C2.95461 40.4694 2.95461 40.7678 3.11664 40.9406L5.81222 44.0353C5.97425 44.2081 6.22466 44.2081 6.37196 44.0353L8.78767 41.2705C8.9497 41.0977 9.20011 41.0977 9.34741 41.2705L11.7631 44.0353C11.9252 44.2081 12.1756 44.2081 12.3229 44.0353L14.7386 41.2705C14.9006 41.0977 15.151 41.0977 15.2983 41.2705L17.714 44.0353C17.8761 44.2081 18.1265 44.2081 18.2738 44.0353L20.6895 41.2705C20.8515 41.0977 21.1019 41.0977 21.2492 41.2705L23.6649 44.0353C23.827 44.2081 24.0774 44.2081 24.2247 44.0353L26.6404 41.2705C26.8024 41.0977 27.0528 41.0977 27.2001 41.2705L29.336 43.7211C29.498 43.8939 29.7484 43.8939 29.8957 43.7211C30.043 43.5483 30.043 43.2499 29.8957 43.0771L27.2001 39.9824C27.0381 39.7939 26.7877 39.7939 26.6256 39.9667Z" fill="#F6CCCC"/>
</g>
<g clip-path="url(#clip2)">
<path d="M26.6256 46.8068L24.2247 49.5873C24.0626 49.7601 23.8122 49.7601 23.6649 49.5873L21.2492 46.8225C21.0872 46.6497 20.8368 46.6497 20.6895 46.8225L18.2738 49.5873C18.1117 49.7601 17.8613 49.7601 17.714 49.5873L15.2983 46.8068C15.1363 46.634 14.8859 46.634 14.7386 46.8068L12.3229 49.5873C12.1608 49.7601 11.9104 49.7601 11.7631 49.5873L9.34741 46.8068C9.18538 46.634 8.93497 46.634 8.78767 46.8068L6.37196 49.5873C6.20993 49.7601 5.95952 49.7601 5.81222 49.5873L3.67638 47.1366C3.51435 46.9638 3.26394 46.9638 3.11664 47.1366C2.95461 47.3094 2.95461 47.6079 3.11664 47.7807L5.81222 50.8754C5.97425 51.0482 6.22466 51.0482 6.37196 50.8754L8.78767 48.1106C8.9497 47.9378 9.20011 47.9378 9.34741 48.1106L11.7631 50.8754C11.9252 51.0482 12.1756 51.0482 12.3229 50.8754L14.7386 48.1106C14.9006 47.9378 15.151 47.9378 15.2983 48.1106L17.714 50.8754C17.8761 51.0482 18.1265 51.0482 18.2738 50.8754L20.6895 48.1106C20.8515 47.9378 21.1019 47.9378 21.2492 48.1106L23.6649 50.8754C23.827 51.0482 24.0774 51.0482 24.2247 50.8754L26.6404 48.1106C26.8024 47.9378 27.0528 47.9378 27.2001 48.1106L29.336 50.5612C29.498 50.734 29.7484 50.734 29.8957 50.5612C30.043 50.3884 30.043 50.09 29.8957 49.9172L27.2001 46.8225C27.0381 46.634 26.7877 46.634 26.6256 46.8068Z" fill="#F6CCCC"/>
</g>
<rect x="7" y="8" width="16" height="3" rx="1.5" fill="#8ABDF0"/>
<rect x="7" y="14" width="16" height="3" rx="1.5" fill="#8ABDF0"/>
<rect x="16.1429" y="21.7143" width="6.85714" height="2.28571" rx="1.14286" fill="#D30000"/>
<rect x="20.7143" y="19.4286" width="6.85714" height="2.28571" rx="1.14286" transform="rotate(90 20.7143 19.4286)" fill="#D30000"/>
<circle cx="11.5" cy="9.5" r="2.5" fill="#D30000"/>
<circle cx="17.5" cy="15.5" r="2.5" fill="#D30000"/>
<rect x="7" y="19" width="7" height="7" rx="1" fill="#8ABDF0"/>
<g clip-path="url(#clip3)">
<path d="M46.762 12.016L41.5606 12.0157L41.58 14.8707L46.7813 14.8711L46.762 12.016Z" fill="#3C91E6"/>
<path d="M54.0686 17.7227C53.6491 17.442 53.4429 16.7579 53.5574 16.2485L53.9623 14.7018C54.0768 14.1924 54.5067 14.0628 54.9263 14.3434L57.8768 16.575C58.2964 16.8557 58.2433 17.3466 57.8508 17.6005L56.5079 18.4801C56.054 18.7526 55.3836 18.7511 55.0067 18.3898L54.0686 17.7227Z" fill="#D30000"/>
<path d="M34.5641 17.6981C34.9378 17.382 35.2178 16.7548 35.0679 16.2573L34.6607 14.6839C34.5108 14.1863 34.1287 14.0301 33.6936 14.3648L30.7516 16.6082C30.3779 16.9244 30.3862 17.3967 30.8058 17.6774L32.1072 18.4385C32.5267 18.7191 33.2586 18.7021 33.6323 18.3859L34.5641 17.6981Z" fill="#D30000"/>
<path d="M49.2926 47.4523C58.1464 44.7842 63.1338 35.3536 60.4321 26.3885C57.7304 17.4233 48.3628 12.3186 39.509 14.9868C30.6552 17.6549 25.6679 27.0855 28.3695 36.0506C31.0712 45.0157 40.4388 50.1205 49.2926 47.4523Z" fill="#3C91E6"/>
<path d="M57.1394 31.2478C57.2033 38.352 51.51 44.1383 44.4796 44.1538C37.4304 44.1071 31.6834 38.3763 31.6008 31.2099C31.5369 24.1056 37.2303 18.3193 44.2607 18.3038C51.3712 18.332 57.0756 24.1435 57.1394 31.2478Z" fill="white"/>
<path d="M44.9218 20.2756C44.9541 20.605 44.6845 20.822 44.3586 20.8523C44.0328 20.8827 43.8162 20.6087 43.7839 20.2793C43.7516 19.9498 44.0213 19.7328 44.3471 19.7025C44.673 19.6721 44.951 19.9276 44.9218 20.2756Z" fill="#D30000"/>
<path d="M39.4552 21.9229C39.4875 22.2524 39.2179 22.4694 38.892 22.4997C38.5662 22.5301 38.3496 22.2561 38.3173 21.9266C38.285 21.5971 38.5547 21.3802 38.8805 21.3499C39.2064 21.3195 39.4844 21.5749 39.4552 21.9229Z" fill="#D30000"/>
<path d="M35.2193 26.3202C35.5246 26.2282 35.6966 25.903 35.6034 25.5939C35.5102 25.2847 35.1872 25.1087 34.8819 25.2007C34.5766 25.2927 34.4046 25.6179 34.4978 25.927C34.591 26.2362 34.914 26.4122 35.2193 26.3202Z" fill="#D30000"/>
<path d="M33.5591 31.7052C33.8644 31.6132 34.0363 31.288 33.9432 30.9789C33.85 30.6697 33.527 30.4937 33.2217 30.5857C32.9164 30.6777 32.7444 31.0029 32.8376 31.312C32.9307 31.6212 33.2538 31.7972 33.5591 31.7052Z" fill="#D30000"/>
<path d="M35.2834 37.4271C35.5887 37.3351 35.7607 37.0099 35.6675 36.7008C35.5743 36.3916 35.2513 36.2156 34.946 36.3076C34.6407 36.3996 34.4687 36.7248 34.5619 37.0339C34.6551 37.3431 34.9781 37.5191 35.2834 37.4271Z" fill="#D30000"/>
<path d="M39.2074 41.3328C39.5127 41.2408 39.6847 40.9156 39.5915 40.6065C39.4984 40.2973 39.1754 40.1213 38.87 40.2133C38.5647 40.3053 38.3928 40.6305 38.4859 40.9396C38.5791 41.2488 38.9021 41.4248 39.2074 41.3328Z" fill="#D30000"/>
<path d="M45.0978 42.2035C45.1301 42.533 44.8605 42.75 44.5346 42.7803C44.2088 42.8107 43.9922 42.5367 43.9599 42.2072C43.9276 41.8778 44.1973 41.6608 44.5231 41.6305C44.8063 41.6808 45.0843 41.9363 45.0978 42.2035Z" fill="#D30000"/>
<path d="M49.865 22.4494C50.1703 22.3574 50.3422 22.0322 50.2491 21.7231C50.1559 21.414 49.8329 21.2379 49.5276 21.3299C49.2223 21.4219 49.0503 21.7471 49.1435 22.0563C49.2366 22.3654 49.5597 22.5414 49.865 22.4494Z" fill="#D30000"/>
<path d="M53.0539 25.6947C53.0862 26.0242 53.3028 26.2981 53.6286 26.2678C53.9545 26.2374 54.2241 26.0205 54.1918 25.691C54.1595 25.3615 53.943 25.0875 53.6171 25.1179C53.2913 25.1483 53.0404 25.4274 53.0539 25.6947Z" fill="#D30000"/>
<path d="M55.5424 31.729C55.8477 31.637 56.0197 31.3118 55.9265 31.0027C55.8334 30.6935 55.5103 30.5175 55.205 30.6095C54.8997 30.7015 54.7278 31.0267 54.8209 31.3359C54.9141 31.645 55.2371 31.821 55.5424 31.729Z" fill="#D30000"/>
<path d="M53.8531 37.462C54.1584 37.37 54.3304 37.0448 54.2372 36.7357C54.144 36.4265 53.821 36.2505 53.5157 36.3425C53.2104 36.4345 53.0384 36.7597 53.1316 37.0688C53.2247 37.378 53.5478 37.554 53.8531 37.462Z" fill="#D30000"/>
<path d="M49.9961 41.338C50.3014 41.246 50.4734 40.9208 50.3802 40.6117C50.287 40.3025 49.964 40.1265 49.6587 40.2185C49.3534 40.3105 49.1814 40.6357 49.2746 40.9449C49.3678 41.254 49.6908 41.43 49.9961 41.338Z" fill="#D30000"/>
<path d="M44.8185 32.383C45.5987 32.1478 46.0382 31.3168 45.8001 30.5268C45.562 29.7367 44.7365 29.2869 43.9563 29.522C43.1761 29.7571 42.7366 30.5882 42.9747 31.3782C43.2128 32.1682 44.0382 32.6181 44.8185 32.383Z" fill="#D30000"/>
<path d="M42.8852 33.3048C44.3666 31.7729 52.4647 23.2945 51.9359 23.3182C51.3882 23.2797 43.6503 31.1746 42.2116 32.6258L40.9967 33.2633L41.4913 33.7927L41.6891 34.0044L42.1836 34.5338L42.8852 33.3048Z" fill="#D30000"/>
<path d="M40.1805 12.5459C42.8623 12.5518 45.4827 12.5763 48.1458 12.52C49.5481 12.5045 49.5626 10.3292 48.1415 10.2825C45.4597 10.2766 42.8393 10.2521 40.1762 10.3084C38.7926 10.3861 38.7782 12.5614 40.1805 12.5459Z" fill="#3C91E6"/>
</g>
<defs>
<linearGradient id="paint0_linear" x1="68.0129" y1="78.9196" x2="126.559" y2="119.666" gradientUnits="userSpaceOnUse">
<stop offset="0.0001" stop-color="#D8E9FA"/>
<stop offset="0.708333" stop-color="#E2EFFB" stop-opacity="0.8"/>
<stop offset="1" stop-color="#EBF4FC" stop-opacity="0"/>
</linearGradient>
<clipPath id="clip0">
<rect width="27" height="4.32" fill="white" transform="matrix(1 0 0 -1 3 37.32)"/>
</clipPath>
<clipPath id="clip1">
<rect width="27" height="4.32" fill="white" transform="matrix(1 0 0 -1 3 44.1601)"/>
</clipPath>
<clipPath id="clip2">
<rect width="27" height="4.32" fill="white" transform="matrix(1 0 0 -1 3 51.0002)"/>
</clipPath>
<clipPath id="clip3">
<rect width="34" height="38" fill="white" transform="translate(22.2408 15.7132) rotate(-16.7704)"/>
</clipPath>
</defs>
</svg>
