<svg width="64" height="64" viewBox="0 0 64 64" fill="none" xmlns="http://www.w3.org/2000/svg">
<rect width="64" height="64" rx="32" fill="url(#paint0_linear)"/>
<g clip-path="url(#clip0)">
<path d="M57.6256 43.1266L55.2247 45.9071C55.0626 46.0799 54.8122 46.0799 54.6649 45.9071L52.2492 43.1423C52.0872 42.9695 51.8368 42.9695 51.6895 43.1423L49.2738 45.9071C49.1117 46.0799 48.8613 46.0799 48.714 45.9071L46.2983 43.1266C46.1363 42.9538 45.8859 42.9538 45.7386 43.1266L43.3229 45.9071C43.1608 46.0799 42.9104 46.0799 42.7631 45.9071L40.3474 43.1266C40.1854 42.9538 39.935 42.9538 39.7877 43.1266L37.372 45.9071C37.2099 46.0799 36.9595 46.0799 36.8122 45.9071L34.6764 43.4565C34.5143 43.2837 34.2639 43.2837 34.1166 43.4565C33.9546 43.6293 33.9546 43.9278 34.1166 44.1006L36.8122 47.1953C36.9742 47.3681 37.2247 47.3681 37.372 47.1953L39.7877 44.4305C39.9497 44.2577 40.2001 44.2577 40.3474 44.4305L42.7631 47.1953C42.9252 47.3681 43.1756 47.3681 43.3229 47.1953L45.7386 44.4305C45.9006 44.2577 46.151 44.2577 46.2983 44.4305L48.714 47.1953C48.8761 47.3681 49.1265 47.3681 49.2738 47.1953L51.6895 44.4305C51.8515 44.2577 52.1019 44.2577 52.2492 44.4305L54.6649 47.1953C54.827 47.3681 55.0774 47.3681 55.2247 47.1953L57.6404 44.4305C57.8024 44.2577 58.0528 44.2577 58.2001 44.4305L60.336 46.8811C60.498 47.0539 60.7484 47.0539 60.8957 46.8811C61.043 46.7083 61.043 46.4098 60.8957 46.237L58.2001 43.1423C58.0381 42.9538 57.7877 42.9538 57.6256 43.1266Z" fill="#F6CCCC"/>
</g>
<g clip-path="url(#clip1)">
<path d="M57.6256 36.1266L55.2247 38.9071C55.0626 39.0799 54.8122 39.0799 54.6649 38.9071L52.2492 36.1423C52.0872 35.9695 51.8368 35.9695 51.6895 36.1423L49.2738 38.9071C49.1117 39.0799 48.8613 39.0799 48.714 38.9071L46.2983 36.1266C46.1363 35.9538 45.8859 35.9538 45.7386 36.1266L43.3229 38.9071C43.1608 39.0799 42.9104 39.0799 42.7631 38.9071L40.3474 36.1266C40.1854 35.9538 39.935 35.9538 39.7877 36.1266L37.372 38.9071C37.2099 39.0799 36.9595 39.0799 36.8122 38.9071L34.6764 36.4565C34.5143 36.2837 34.2639 36.2837 34.1166 36.4565C33.9546 36.6293 33.9546 36.9277 34.1166 37.1005L36.8122 40.1952C36.9742 40.368 37.2247 40.368 37.372 40.1952L39.7877 37.4304C39.9497 37.2576 40.2001 37.2576 40.3474 37.4304L42.7631 40.1952C42.9252 40.368 43.1756 40.368 43.3229 40.1952L45.7386 37.4304C45.9006 37.2576 46.151 37.2576 46.2983 37.4304L48.714 40.1952C48.8761 40.368 49.1265 40.368 49.2738 40.1952L51.6895 37.4304C51.8515 37.2576 52.1019 37.2576 52.2492 37.4304L54.6649 40.1952C54.827 40.368 55.0774 40.368 55.2247 40.1952L57.6404 37.4304C57.8024 37.2576 58.0528 37.2576 58.2001 37.4304L60.336 39.881C60.498 40.0538 60.7484 40.0538 60.8957 39.881C61.043 39.7082 61.043 39.4098 60.8957 39.237L58.2001 36.1423C58.0381 35.9538 57.7877 35.9538 57.6256 36.1266Z" fill="#F6CCCC"/>
</g>
<g clip-path="url(#clip2)">
<path d="M57.6256 49.9667L55.2247 52.7472C55.0626 52.92 54.8122 52.92 54.6649 52.7472L52.2492 49.9824C52.0872 49.8096 51.8368 49.8096 51.6895 49.9824L49.2738 52.7472C49.1117 52.92 48.8613 52.92 48.714 52.7472L46.2983 49.9667C46.1363 49.7939 45.8859 49.7939 45.7386 49.9667L43.3229 52.7472C43.1608 52.92 42.9104 52.92 42.7631 52.7472L40.3474 49.9667C40.1854 49.7939 39.935 49.7939 39.7877 49.9667L37.372 52.7472C37.2099 52.92 36.9595 52.92 36.8122 52.7472L34.6764 50.2966C34.5143 50.1238 34.2639 50.1238 34.1166 50.2966C33.9546 50.4694 33.9546 50.7678 34.1166 50.9406L36.8122 54.0353C36.9742 54.2081 37.2247 54.2081 37.372 54.0353L39.7877 51.2705C39.9497 51.0977 40.2001 51.0977 40.3474 51.2705L42.7631 54.0353C42.9252 54.2081 43.1756 54.2081 43.3229 54.0353L45.7386 51.2705C45.9006 51.0977 46.151 51.0977 46.2983 51.2705L48.714 54.0353C48.8761 54.2081 49.1265 54.2081 49.2738 54.0353L51.6895 51.2705C51.8515 51.0977 52.1019 51.0977 52.2492 51.2705L54.6649 54.0353C54.827 54.2081 55.0774 54.2081 55.2247 54.0353L57.6404 51.2705C57.8024 51.0977 58.0528 51.0977 58.2001 51.2705L60.336 53.7211C60.498 53.8939 60.7484 53.8939 60.8957 53.7211C61.043 53.5483 61.043 53.2499 60.8957 53.0771L58.2001 49.9824C58.0381 49.7939 57.7877 49.7939 57.6256 49.9667Z" fill="#F6CCCC"/>
</g>
<g clip-path="url(#clip3)">
<path d="M57.6256 56.8068L55.2247 59.5873C55.0626 59.7601 54.8122 59.7601 54.6649 59.5873L52.2492 56.8225C52.0872 56.6497 51.8368 56.6497 51.6895 56.8225L49.2738 59.5873C49.1117 59.7601 48.8613 59.7601 48.714 59.5873L46.2983 56.8068C46.1363 56.634 45.8859 56.634 45.7386 56.8068L43.3229 59.5873C43.1608 59.7601 42.9104 59.7601 42.7631 59.5873L40.3474 56.8068C40.1854 56.634 39.935 56.634 39.7877 56.8068L37.372 59.5873C37.2099 59.7601 36.9595 59.7601 36.8122 59.5873L34.6764 57.1366C34.5143 56.9638 34.2639 56.9638 34.1166 57.1366C33.9546 57.3094 33.9546 57.6079 34.1166 57.7807L36.8122 60.8754C36.9742 61.0482 37.2247 61.0482 37.372 60.8754L39.7877 58.1106C39.9497 57.9378 40.2001 57.9378 40.3474 58.1106L42.7631 60.8754C42.9252 61.0482 43.1756 61.0482 43.3229 60.8754L45.7386 58.1106C45.9006 57.9378 46.151 57.9378 46.2983 58.1106L48.714 60.8754C48.8761 61.0482 49.1265 61.0482 49.2738 60.8754L51.6895 58.1106C51.8515 57.9378 52.1019 57.9378 52.2492 58.1106L54.6649 60.8754C54.827 61.0482 55.0774 61.0482 55.2247 60.8754L57.6404 58.1106C57.8024 57.9378 58.0528 57.9378 58.2001 58.1106L60.336 60.5612C60.498 60.734 60.7484 60.734 60.8957 60.5612C61.043 60.3884 61.043 60.09 60.8957 59.9172L58.2001 56.8225C58.0381 56.634 57.7877 56.634 57.6256 56.8068Z" fill="#F6CCCC"/>
</g>
<path d="M14.3503 49.9628L23.9629 53.5407C24.7793 53.8446 25.6434 54.0002 26.5146 54.0002H36.4211C37.8074 54.0002 39.1652 53.6063 40.3363 52.8642L52.7403 45.0043C53.5587 44.2777 53.7103 43.0565 53.0947 42.1517C52.421 41.1617 51.3067 40.9896 50.0804 41.5694L38.004 46.8867L38.0182 44.9274C37.8583 43.3192 36.62 42.0285 35.0199 41.8021L27.6657 40.9554C25.9692 40.7154 25.1215 40.1468 23.6425 39.2817C21.6234 38.1006 19.3263 37.478 16.9871 37.478H14.3503V49.9628Z" fill="#FBC08B"/>
<path d="M23.3791 51.6343C24.2374 51.9537 25.1458 52.1173 26.0616 52.1173H36.476C37.5848 52.1173 38.6758 51.877 39.6766 51.4189L46.9588 46.8044C47.6354 46.3757 48.0649 45.6294 48.0429 44.8287C48.0312 44.4041 47.9015 43.979 47.6472 43.6054C47.6472 43.6054 47.4255 43.2254 47.1977 42.8387L38.004 46.8867L38.0182 44.9274C37.8583 43.3192 36.62 42.0285 35.0199 41.8021L27.6657 40.9554C25.9692 40.7154 25.1215 40.1468 23.6425 39.2817C21.6234 38.1006 19.3263 37.478 16.9871 37.478H14.3503V48.2736L23.3791 51.6343Z" fill="#FBC08B"/>
<path d="M53.0947 42.1514C52.421 41.1614 51.3066 40.9894 50.0804 41.5692L46.7587 43.0318C46.9195 43.2864 47.0475 43.4897 47.0475 43.4897C47.6632 44.3945 47.5115 45.6157 46.6931 46.3424L39.4655 50.9221C38.5136 51.3579 37.4757 51.5865 36.421 51.5865H26.5146C25.6435 51.5865 24.7794 51.4309 23.963 51.127L14.3503 47.549V49.9625L23.963 53.5405C24.7794 53.8444 25.6435 54 26.5146 54H34.6084H36.4212C37.8076 54 39.1654 53.6061 40.3365 52.864L52.7404 45.0041C53.5586 44.2774 53.7104 43.0562 53.0947 42.1514Z" fill="#F7A079"/>
<path d="M37.1167 42.9087L37.1164 42.956L37.1476 42.9422C37.1374 42.9309 37.1269 42.9199 37.1167 42.9087Z" fill="#F5DBCC"/>
<path d="M38.004 46.8853H30.4949C30.1282 46.8853 29.8309 46.5881 29.8309 46.2213C29.8309 45.8545 30.1281 45.5574 30.4949 45.5574H38.0137L38.004 46.8853Z" fill="#F7A079"/>
<path fill-rule="evenodd" clip-rule="evenodd" d="M7.69907 53C3.45811 48.1278 0.667544 41.9598 0 35.1686C0.63266 35.0614 1.36695 35 2.1501 35H12.5401C14.9177 35 16.8451 35.5657 16.8451 36.2636V51.7364C16.8451 52.4343 14.9177 53 12.5401 53H7.69907Z" fill="#D30000"/>
<path d="M46.2378 19.2826C44.7061 16.5248 41.2167 15.6239 38.4595 17.2741L35.4928 19.0497L33.8448 16.0825C32.3132 13.3249 28.8239 12.4239 26.0664 14.0741C23.3048 15.7271 22.3068 19.3021 23.8434 22.0689L30.4818 34.0222C30.6316 34.292 30.8824 34.4867 31.1791 34.5633C31.4759 34.6399 31.7941 34.5922 32.0638 34.4307L44.0148 27.2774C46.7812 25.6216 47.7718 22.0448 46.2378 19.2826Z" fill="#3C91E6"/>
<path d="M50.2979 34.2012L48.2422 32.3489C47.7682 31.9218 47.7362 31.1725 48.1709 30.6754C48.6055 30.1782 49.3421 30.1214 49.8161 30.5486L51.8718 32.4008C52.3458 32.828 52.3778 33.5773 51.9431 34.0744C51.5079 34.5723 50.7713 34.6278 50.2979 34.2012Z" fill="#8ABDF0"/>
<path d="M50.4656 22.0261C50.3471 21.3861 50.7635 20.7526 51.3956 20.6111L54.1367 19.9977C54.7688 19.8561 55.3772 20.2604 55.4957 20.9004C55.6142 21.5404 55.1979 22.1739 54.5657 22.3153L51.8246 22.9288C51.1951 23.0697 50.5846 22.6687 50.4656 22.0261Z" fill="#8ABDF0"/>
<path d="M46.2548 19.4053C44.7354 16.666 41.2745 15.7712 38.5397 17.4103L35.5971 19.174L31.3185 34.5835C31.6128 34.6596 31.9284 34.6122 32.196 34.4519L44.0498 27.3465C46.7937 25.7018 47.7763 22.149 46.2548 19.4053Z" fill="#8ABDF0"/>
<path d="M14.9531 24.7441L17.6941 24.1307C18.3262 23.9893 18.7426 23.3558 18.6241 22.7157C18.5056 22.0757 17.8971 21.6716 17.2651 21.813L14.5241 22.4264C13.892 22.5679 13.4756 23.2014 13.5941 23.8414C13.7127 24.4823 14.3219 24.8854 14.9531 24.7441Z" fill="#3C91E6"/>
<path d="M20.9191 14.0663C21.3537 13.5691 21.3218 12.8198 20.8477 12.3927L18.7921 10.5403C18.318 10.1131 17.5814 10.17 17.1469 10.6671C16.7123 11.1643 16.7442 11.9136 17.2183 12.3407L19.2739 14.193C19.746 14.6185 20.4827 14.5654 20.9191 14.0663Z" fill="#3C91E6"/>
<defs>
<linearGradient id="paint0_linear" x1="4.01286" y1="14.9196" x2="62.5595" y2="55.6656" gradientUnits="userSpaceOnUse">
<stop offset="0.0001" stop-color="#D8E9FA"/>
<stop offset="0.708333" stop-color="#E2EFFB" stop-opacity="0.8"/>
<stop offset="1" stop-color="#EBF4FC" stop-opacity="0"/>
</linearGradient>
<clipPath id="clip0">
<rect width="27" height="4.32" fill="white" transform="matrix(1 0 0 -1 34 47.3201)"/>
</clipPath>
<clipPath id="clip1">
<rect width="27" height="4.32" fill="white" transform="matrix(1 0 0 -1 34 40.32)"/>
</clipPath>
<clipPath id="clip2">
<rect width="27" height="4.32" fill="white" transform="matrix(1 0 0 -1 34 54.1601)"/>
</clipPath>
<clipPath id="clip3">
<rect width="27" height="4.32" fill="white" transform="matrix(1 0 0 -1 34 61.0002)"/>
</clipPath>
</defs>
</svg>
