<svg width="65" height="65" viewBox="0 0 65 65" fill="none" xmlns="http://www.w3.org/2000/svg">
<rect x="64.1439" y="64.8555" width="64" height="64" rx="32" transform="rotate(-180 64.1439 64.8555)" fill="url(#paint0_linear)"/>
<path d="M50.1117 9.3841L49.1204 11.3678L46.9284 11.6973C46.7025 11.7314 46.5154 11.8902 46.4448 12.1067C46.3742 12.3238 46.4325 12.5621 46.5948 12.7221L48.1744 14.2781L47.8103 16.4653C47.7726 16.6901 47.8656 16.9171 48.0503 17.0513C48.2338 17.1854 48.4786 17.2025 48.6821 17.099L50.6505 16.0777L52.619 17.099C52.826 17.2059 53.0704 17.1831 53.2508 17.0513C53.4355 16.9171 53.5284 16.6901 53.4908 16.4653L53.1267 14.2781L54.7062 12.7221C54.8686 12.5621 54.9268 12.3238 54.8562 12.1067C54.7856 11.8902 54.5986 11.7314 54.3727 11.6973L52.1807 11.3678L51.1894 9.3841C51.0876 9.17997 50.8691 9.07788 50.6505 9.07788C50.432 9.07788 50.2134 9.17997 50.1117 9.3841Z" fill="#F9D466"/>
<path d="M57.6864 17.8284C57.4276 17.689 57.1093 17.7531 56.927 17.9808C55.5439 19.7109 53.4579 20.7028 51.253 20.7028C51.0497 20.7028 50.8497 20.6888 50.6506 20.6723C46.9458 20.3645 44.0241 17.2568 44.0241 13.4739C44.0241 9.9971 46.5032 6.97076 49.9193 6.33365C50.207 6.27952 50.4141 6.02715 50.4112 5.73478C50.4082 5.44241 50.1953 5.19413 49.9064 5.14707C49.3063 5.04823 48.7616 5 48.241 5C42.594 5 38 9.63413 38 15.2811C38 20.9281 42.594 25.5622 48.241 25.5622C49.0698 25.5622 49.8706 25.3928 50.6506 25.2032C54.008 24.3873 56.8278 21.9339 57.9683 18.5497C58.0618 18.2726 57.943 17.9684 57.6864 17.8284Z" fill="#F9D466"/>
<path d="M57.9682 18.5497C58.0618 18.2726 57.9429 17.9685 57.6864 17.8285C57.4276 17.689 57.1093 17.7531 56.927 17.9808C55.5439 19.711 53.4579 20.7028 51.253 20.7028C51.0496 20.7028 50.8497 20.6888 50.6506 20.6723V25.2032C54.008 24.3873 56.8278 21.9339 57.9682 18.5497Z" fill="#F5B700"/>
<path d="M53.2509 17.0513C53.4356 16.9171 53.5285 16.6901 53.4909 16.4653L53.1268 14.2781L54.7063 12.7221C54.8687 12.5621 54.9269 12.3238 54.8563 12.1067C54.7857 11.8902 54.5987 11.7314 54.3728 11.6973L52.1808 11.3678L51.1895 9.3841C51.0877 9.17997 50.8692 9.07788 50.6506 9.07788V16.0776L52.6191 17.0989C52.8261 17.2059 53.0705 17.1831 53.2509 17.0513Z" fill="#F5B700"/>
<g clip-path="url(#clip0)">
<path d="M60.6256 37.1266L58.2247 39.9071C58.0626 40.0799 57.8122 40.0799 57.6649 39.9071L55.2492 37.1423C55.0872 36.9695 54.8368 36.9695 54.6895 37.1423L52.2738 39.9071C52.1117 40.0799 51.8613 40.0799 51.714 39.9071L49.2983 37.1266C49.1363 36.9538 48.8859 36.9538 48.7386 37.1266L46.3229 39.9071C46.1608 40.0799 45.9104 40.0799 45.7631 39.9071L43.3474 37.1266C43.1854 36.9538 42.935 36.9538 42.7877 37.1266L40.372 39.9071C40.2099 40.0799 39.9595 40.0799 39.8122 39.9071L37.6764 37.4565C37.5143 37.2837 37.2639 37.2837 37.1166 37.4565C36.9546 37.6293 36.9546 37.9277 37.1166 38.1005L39.8122 41.1952C39.9742 41.368 40.2247 41.368 40.372 41.1952L42.7877 38.4304C42.9497 38.2576 43.2001 38.2576 43.3474 38.4304L45.7631 41.1952C45.9252 41.368 46.1756 41.368 46.3229 41.1952L48.7386 38.4304C48.9006 38.2576 49.151 38.2576 49.2983 38.4304L51.714 41.1952C51.8761 41.368 52.1265 41.368 52.2738 41.1952L54.6895 38.4304C54.8515 38.2576 55.1019 38.2576 55.2492 38.4304L57.6649 41.1952C57.827 41.368 58.0774 41.368 58.2247 41.1952L60.6404 38.4304C60.8024 38.2576 61.0528 38.2576 61.2001 38.4304L63.336 40.881C63.498 41.0538 63.7484 41.0538 63.8957 40.881C64.043 40.7082 64.043 40.4098 63.8957 40.237L61.2001 37.1423C61.0381 36.9538 60.7877 36.9538 60.6256 37.1266Z" fill="#F6CCCC"/>
</g>
<g clip-path="url(#clip1)">
<path d="M60.6256 43.9667L58.2247 46.7472C58.0626 46.92 57.8122 46.92 57.6649 46.7472L55.2492 43.9824C55.0872 43.8096 54.8368 43.8096 54.6895 43.9824L52.2738 46.7472C52.1117 46.92 51.8613 46.92 51.714 46.7472L49.2983 43.9667C49.1363 43.7939 48.8859 43.7939 48.7386 43.9667L46.3229 46.7472C46.1608 46.92 45.9104 46.92 45.7631 46.7472L43.3474 43.9667C43.1854 43.7939 42.935 43.7939 42.7877 43.9667L40.372 46.7472C40.2099 46.92 39.9595 46.92 39.8122 46.7472L37.6764 44.2966C37.5143 44.1238 37.2639 44.1238 37.1166 44.2966C36.9546 44.4694 36.9546 44.7678 37.1166 44.9406L39.8122 48.0353C39.9742 48.2081 40.2247 48.2081 40.372 48.0353L42.7877 45.2705C42.9497 45.0977 43.2001 45.0977 43.3474 45.2705L45.7631 48.0353C45.9252 48.2081 46.1756 48.2081 46.3229 48.0353L48.7386 45.2705C48.9006 45.0977 49.151 45.0977 49.2983 45.2705L51.714 48.0353C51.8761 48.2081 52.1265 48.2081 52.2738 48.0353L54.6895 45.2705C54.8515 45.0977 55.1019 45.0977 55.2492 45.2705L57.6649 48.0353C57.827 48.2081 58.0774 48.2081 58.2247 48.0353L60.6404 45.2705C60.8024 45.0977 61.0528 45.0977 61.2001 45.2705L63.336 47.7211C63.498 47.8939 63.7484 47.8939 63.8957 47.7211C64.043 47.5483 64.043 47.2499 63.8957 47.0771L61.2001 43.9824C61.0381 43.7939 60.7877 43.7939 60.6256 43.9667Z" fill="#F6CCCC"/>
</g>
<g clip-path="url(#clip2)">
<path d="M60.6256 50.8068L58.2247 53.5873C58.0626 53.7601 57.8122 53.7601 57.6649 53.5873L55.2492 50.8225C55.0872 50.6497 54.8368 50.6497 54.6895 50.8225L52.2738 53.5873C52.1117 53.7601 51.8613 53.7601 51.714 53.5873L49.2983 50.8068C49.1363 50.634 48.8859 50.634 48.7386 50.8068L46.3229 53.5873C46.1608 53.7601 45.9104 53.7601 45.7631 53.5873L43.3474 50.8068C43.1854 50.634 42.935 50.634 42.7877 50.8068L40.372 53.5873C40.2099 53.7601 39.9595 53.7601 39.8122 53.5873L37.6764 51.1366C37.5143 50.9638 37.2639 50.9638 37.1166 51.1366C36.9546 51.3094 36.9546 51.6079 37.1166 51.7807L39.8122 54.8754C39.9742 55.0482 40.2247 55.0482 40.372 54.8754L42.7877 52.1106C42.9497 51.9378 43.2001 51.9378 43.3474 52.1106L45.7631 54.8754C45.9252 55.0482 46.1756 55.0482 46.3229 54.8754L48.7386 52.1106C48.9006 51.9378 49.151 51.9378 49.2983 52.1106L51.714 54.8754C51.8761 55.0482 52.1265 55.0482 52.2738 54.8754L54.6895 52.1106C54.8515 51.9378 55.1019 51.9378 55.2492 52.1106L57.6649 54.8754C57.827 55.0482 58.0774 55.0482 58.2247 54.8754L60.6404 52.1106C60.8024 51.9378 61.0528 51.9378 61.2001 52.1106L63.336 54.5612C63.498 54.734 63.7484 54.734 63.8957 54.5612C64.043 54.3884 64.043 54.09 63.8957 53.9172L61.2001 50.8225C61.0381 50.634 60.7877 50.634 60.6256 50.8068Z" fill="#F6CCCC"/>
</g>
<path d="M17.7987 25.8396C17.5257 25.8396 17.2563 25.7143 17.082 25.4774C16.2736 24.379 14.835 23.1189 12.5714 23.3607C9.90634 23.6445 7.92723 22.7964 6.73608 22.035C6.32242 21.7706 6.20149 21.2209 6.46579 20.8073C6.7301 20.3935 7.27999 20.2727 7.69353 20.537C8.645 21.145 10.2309 21.8224 12.3831 21.5927C15.6496 21.2459 17.6263 23.2172 18.514 24.4236C18.805 24.819 18.7203 25.3756 18.3248 25.6666C18.1661 25.7832 17.9817 25.8396 17.7987 25.8396Z" fill="#3C91E6"/>
<path d="M8.49149 30.5604C8.33282 30.5604 8.17242 30.518 8.02721 30.4288C7.60872 30.172 7.47789 29.6246 7.73471 29.2062C8.8742 27.3498 10.9624 26.074 13.7737 25.5166C15.8234 25.1103 17.5433 25.2216 17.6153 25.2266C18.1051 25.2602 18.475 25.6845 18.4414 26.1743C18.4078 26.6638 17.9825 27.0309 17.4947 27.0005C17.4331 26.9963 11.3968 26.6385 9.24988 30.1362C9.08212 30.4097 8.7902 30.5604 8.49149 30.5604Z" fill="#3C91E6"/>
<path d="M21.8914 64.6248C36.4909 64.6248 44.5636 43.2101 21.5087 26.6703C20.9352 26.2588 20.5946 25.5964 20.6023 24.8906C20.6086 24.3074 20.7934 23.7411 21.1279 23.2633C22.2072 21.722 23.7608 19.0854 24.6925 16.9617C24.9156 16.4532 24.5963 15.9061 23.9995 15.9061C22.6147 15.9062 22.6147 15 21.2299 15C19.8451 15 19.8451 15.9062 18.4602 15.9062C17.28 15.9062 16.7959 14.8909 16.2221 15.6294C14.5489 17.783 20.28 25.3562 20.28 25.3562C-5.03123 41.9957 3.12996 64.6249 18.0741 64.6249H21.8914V64.6248Z" fill="#8ABDF0"/>
<path d="M27.6306 25.3561C27.6306 25.3561 33.4468 17.8073 31.7743 15.6419C31.2043 14.9039 30.7183 15.9062 29.5394 15.9062C28.1544 15.9061 28.1544 15 26.7694 15C25.3845 15 25.3845 15.9061 23.9995 15.9061C23.9313 15.9061 23.8691 15.9023 23.8073 15.8981C23.2508 18.2834 20.7432 21.9994 19.3082 23.9891C19.8733 24.8184 20.2802 25.3559 20.2802 25.3559C19.9426 25.5779 19.6121 25.8011 19.2864 26.0252C43.4696 42.6473 35.3778 64.6246 20.5878 64.6246H29.9262C44.9155 64.6248 53.0262 42.0509 27.6306 25.3561Z" fill="#3C91E6"/>
<path d="M28.7121 28.0411C25.3325 28.8946 21.9937 28.8946 18.6135 28.0411C17.4371 27.744 16.7702 26.4211 17.1935 25.2185C17.1982 25.2051 17.2029 25.1916 17.2077 25.1781C17.5626 24.1699 18.5693 23.6042 19.556 23.8519C22.3233 24.5467 25.0013 24.5469 27.7695 23.8519C28.7561 23.6042 29.7628 24.1699 30.1178 25.1781C30.1225 25.1916 30.1272 25.2051 30.132 25.2185C30.5554 26.4211 29.8885 27.744 28.7121 28.0411Z" fill="#D30000"/>
<path d="M16.88 49.216C16.88 50.224 16.7707 51.1013 16.552 51.848C16.3387 52.5893 16.04 53.2026 15.656 53.688C15.2774 54.1733 14.8267 54.536 14.304 54.776C13.7867 55.0106 13.2267 55.128 12.624 55.128C12.0214 55.128 11.4614 55.0106 10.944 54.776C10.432 54.536 9.98669 54.1733 9.60802 53.688C9.22936 53.2026 8.93336 52.5893 8.72002 51.848C8.50669 51.1013 8.40002 50.224 8.40002 49.216C8.40002 48.2026 8.50669 47.3253 8.72002 46.584C8.93336 45.8426 9.22936 45.2293 9.60802 44.744C9.98669 44.2586 10.432 43.8986 10.944 43.664C11.4614 43.424 12.0214 43.304 12.624 43.304C13.2267 43.304 13.7867 43.424 14.304 43.664C14.8267 43.8986 15.2774 44.2586 15.656 44.744C16.04 45.2293 16.3387 45.8426 16.552 46.584C16.7707 47.3253 16.88 48.2026 16.88 49.216ZM14.84 49.216C14.84 48.3786 14.7787 47.6853 14.656 47.136C14.5334 46.5866 14.368 46.1493 14.16 45.824C13.9574 45.4986 13.7227 45.272 13.456 45.144C13.1894 45.0106 12.912 44.944 12.624 44.944C12.3414 44.944 12.0667 45.0106 11.8 45.144C11.5387 45.272 11.3067 45.4986 11.104 45.824C10.9014 46.1493 10.7387 46.5866 10.616 47.136C10.4987 47.6853 10.44 48.3786 10.44 49.216C10.44 50.0533 10.4987 50.7466 10.616 51.296C10.7387 51.8453 10.9014 52.2826 11.104 52.608C11.3067 52.9333 11.5387 53.1626 11.8 53.296C12.0667 53.424 12.3414 53.488 12.624 53.488C12.912 53.488 13.1894 53.424 13.456 53.296C13.7227 53.1626 13.9574 52.9333 14.16 52.608C14.368 52.2826 14.5334 51.8453 14.656 51.296C14.7787 50.7466 14.84 50.0533 14.84 49.216Z" fill="white"/>
<path d="M23.2413 46.232C23.2413 46.6693 23.1666 47.064 23.0173 47.416C22.8733 47.768 22.6786 48.0693 22.4333 48.32C22.1879 48.5653 21.9026 48.7546 21.5773 48.888C21.2519 49.0213 20.9133 49.088 20.5613 49.088C20.1773 49.088 19.8226 49.0213 19.4973 48.888C19.1719 48.7546 18.8893 48.5653 18.6493 48.32C18.4146 48.0693 18.2306 47.768 18.0973 47.416C17.9639 47.064 17.8973 46.6693 17.8973 46.232C17.8973 45.784 17.9639 45.3786 18.0973 45.016C18.2306 44.6533 18.4146 44.3466 18.6493 44.096C18.8893 43.8453 19.1719 43.6533 19.4973 43.52C19.8226 43.3813 20.1773 43.312 20.5613 43.312C20.9453 43.312 21.2999 43.3813 21.6253 43.52C21.9559 43.6533 22.2413 43.8453 22.4813 44.096C22.7213 44.3466 22.9079 44.6533 23.0413 45.016C23.1746 45.3786 23.2413 45.784 23.2413 46.232ZM21.7213 46.232C21.7213 45.9226 21.6893 45.664 21.6253 45.456C21.5666 45.248 21.4839 45.08 21.3773 44.952C21.2759 44.824 21.1533 44.7333 21.0093 44.68C20.8706 44.6213 20.7213 44.592 20.5613 44.592C20.4013 44.592 20.2519 44.6213 20.1133 44.68C19.9746 44.7333 19.8546 44.824 19.7533 44.952C19.6573 45.08 19.5799 45.248 19.5213 45.456C19.4626 45.664 19.4333 45.9226 19.4333 46.232C19.4333 46.5306 19.4626 46.7813 19.5213 46.984C19.5799 47.1813 19.6573 47.3413 19.7533 47.464C19.8546 47.5866 19.9746 47.6746 20.1133 47.728C20.2519 47.7813 20.4013 47.808 20.5613 47.808C20.7213 47.808 20.8706 47.7813 21.0093 47.728C21.1533 47.6746 21.2759 47.5866 21.3773 47.464C21.4839 47.3413 21.5666 47.1813 21.6253 46.984C21.6893 46.7813 21.7213 46.5306 21.7213 46.232ZM27.0893 43.744C27.1586 43.664 27.2386 43.592 27.3293 43.528C27.4253 43.464 27.5586 43.432 27.7293 43.432H29.1693L20.5773 54.704C20.5079 54.7893 20.4253 54.8613 20.3293 54.92C20.2333 54.9733 20.1159 55 19.9773 55H18.5053L27.0893 43.744ZM29.7773 52.28C29.7773 52.7173 29.7026 53.112 29.5533 53.464C29.4093 53.816 29.2146 54.1173 28.9693 54.368C28.7239 54.6133 28.4386 54.8053 28.1133 54.944C27.7879 55.0773 27.4493 55.144 27.0973 55.144C26.7133 55.144 26.3586 55.0773 26.0333 54.944C25.7079 54.8053 25.4253 54.6133 25.1853 54.368C24.9506 54.1173 24.7666 53.816 24.6333 53.464C24.4999 53.112 24.4333 52.7173 24.4333 52.28C24.4333 51.832 24.4999 51.4266 24.6333 51.064C24.7666 50.7013 24.9506 50.3946 25.1853 50.144C25.4253 49.8933 25.7079 49.7013 26.0333 49.568C26.3586 49.4293 26.7133 49.36 27.0973 49.36C27.4813 49.36 27.8359 49.4293 28.1613 49.568C28.4919 49.7013 28.7746 49.8933 29.0093 50.144C29.2493 50.3946 29.4359 50.7013 29.5693 51.064C29.7079 51.4266 29.7773 51.832 29.7773 52.28ZM28.2493 52.28C28.2493 51.9706 28.2199 51.712 28.1613 51.504C28.1026 51.296 28.0199 51.128 27.9133 51C27.8119 50.872 27.6893 50.7813 27.5453 50.728C27.4066 50.6693 27.2573 50.64 27.0973 50.64C26.9373 50.64 26.7879 50.6693 26.6493 50.728C26.5106 50.7813 26.3906 50.872 26.2893 51C26.1879 51.128 26.1079 51.296 26.0493 51.504C25.9959 51.712 25.9693 51.9706 25.9693 52.28C25.9693 52.5786 25.9959 52.8293 26.0493 53.032C26.1079 53.2346 26.1879 53.3973 26.2893 53.52C26.3906 53.6426 26.5106 53.7306 26.6493 53.784C26.7879 53.8373 26.9373 53.864 27.0973 53.864C27.2573 53.864 27.4066 53.8373 27.5453 53.784C27.6893 53.7306 27.8119 53.6426 27.9133 53.52C28.0199 53.3973 28.1026 53.2346 28.1613 53.032C28.2199 52.8293 28.2493 52.5786 28.2493 52.28Z" fill="white"/>
<defs>
<linearGradient id="paint0_linear" x1="68.1568" y1="79.7751" x2="126.703" y2="120.521" gradientUnits="userSpaceOnUse">
<stop offset="0.0001" stop-color="#D8E9FA"/>
<stop offset="0.708333" stop-color="#E2EFFB" stop-opacity="0.8"/>
<stop offset="1" stop-color="#EBF4FC" stop-opacity="0"/>
</linearGradient>
<clipPath id="clip0">
<rect width="27" height="4.32" fill="white" transform="matrix(1 0 0 -1 37 41.32)"/>
</clipPath>
<clipPath id="clip1">
<rect width="27" height="4.32" fill="white" transform="matrix(1 0 0 -1 37 48.1601)"/>
</clipPath>
<clipPath id="clip2">
<rect width="27" height="4.32" fill="white" transform="matrix(1 0 0 -1 37 55.0002)"/>
</clipPath>
</defs>
</svg>
