<svg width="64" height="64" viewBox="0 0 64 64" fill="none" xmlns="http://www.w3.org/2000/svg">
<rect x="64" y="64" width="64" height="64" rx="32" transform="rotate(-180 64 64)" fill="url(#paint0_linear)"/>
<g clip-path="url(#clip0)">
<path d="M25.6256 33.1266L23.2247 35.9071C23.0626 36.0799 22.8122 36.0799 22.6649 35.9071L20.2492 33.1423C20.0872 32.9695 19.8368 32.9695 19.6895 33.1423L17.2738 35.9071C17.1117 36.0799 16.8613 36.0799 16.714 35.9071L14.2983 33.1266C14.1363 32.9538 13.8859 32.9538 13.7386 33.1266L11.3229 35.9071C11.1608 36.0799 10.9104 36.0799 10.7631 35.9071L8.34741 33.1266C8.18538 32.9538 7.93497 32.9538 7.78767 33.1266L5.37196 35.9071C5.20993 36.0799 4.95952 36.0799 4.81222 35.9071L2.67638 33.4565C2.51435 33.2837 2.26394 33.2837 2.11664 33.4565C1.95461 33.6293 1.95461 33.9278 2.11664 34.1006L4.81222 37.1953C4.97425 37.3681 5.22466 37.3681 5.37196 37.1953L7.78767 34.4305C7.9497 34.2577 8.20011 34.2577 8.34741 34.4305L10.7631 37.1953C10.9252 37.3681 11.1756 37.3681 11.3229 37.1953L13.7386 34.4305C13.9006 34.2577 14.151 34.2577 14.2983 34.4305L16.714 37.1953C16.8761 37.3681 17.1265 37.3681 17.2738 37.1953L19.6895 34.4305C19.8515 34.2577 20.1019 34.2577 20.2492 34.4305L22.6649 37.1953C22.827 37.3681 23.0774 37.3681 23.2247 37.1953L25.6404 34.4305C25.8024 34.2577 26.0528 34.2577 26.2001 34.4305L28.336 36.8811C28.498 37.0539 28.7484 37.0539 28.8957 36.8811C29.043 36.7083 29.043 36.4098 28.8957 36.237L26.2001 33.1423C26.0381 32.9538 25.7877 32.9538 25.6256 33.1266Z" fill="#F6CCCC"/>
</g>
<g clip-path="url(#clip1)">
<path d="M25.6256 26.1266L23.2247 28.9071C23.0626 29.0799 22.8122 29.0799 22.6649 28.9071L20.2492 26.1423C20.0872 25.9695 19.8368 25.9695 19.6895 26.1423L17.2738 28.9071C17.1117 29.0799 16.8613 29.0799 16.714 28.9071L14.2983 26.1266C14.1363 25.9538 13.8859 25.9538 13.7386 26.1266L11.3229 28.9071C11.1608 29.0799 10.9104 29.0799 10.7631 28.9071L8.34741 26.1266C8.18538 25.9538 7.93497 25.9538 7.78767 26.1266L5.37196 28.9071C5.20993 29.0799 4.95952 29.0799 4.81222 28.9071L2.67638 26.4565C2.51435 26.2837 2.26394 26.2837 2.11664 26.4565C1.95461 26.6293 1.95461 26.9277 2.11664 27.1005L4.81222 30.1952C4.97425 30.368 5.22466 30.368 5.37196 30.1952L7.78767 27.4304C7.9497 27.2576 8.20011 27.2576 8.34741 27.4304L10.7631 30.1952C10.9252 30.368 11.1756 30.368 11.3229 30.1952L13.7386 27.4304C13.9006 27.2576 14.151 27.2576 14.2983 27.4304L16.714 30.1952C16.8761 30.368 17.1265 30.368 17.2738 30.1952L19.6895 27.4304C19.8515 27.2576 20.1019 27.2576 20.2492 27.4304L22.6649 30.1952C22.827 30.368 23.0774 30.368 23.2247 30.1952L25.6404 27.4304C25.8024 27.2576 26.0528 27.2576 26.2001 27.4304L28.336 29.881C28.498 30.0538 28.7484 30.0538 28.8957 29.881C29.043 29.7082 29.043 29.4098 28.8957 29.237L26.2001 26.1423C26.0381 25.9538 25.7877 25.9538 25.6256 26.1266Z" fill="#F6CCCC"/>
</g>
<g clip-path="url(#clip2)">
<path d="M25.6256 39.9667L23.2247 42.7472C23.0626 42.92 22.8122 42.92 22.6649 42.7472L20.2492 39.9824C20.0872 39.8096 19.8368 39.8096 19.6895 39.9824L17.2738 42.7472C17.1117 42.92 16.8613 42.92 16.714 42.7472L14.2983 39.9667C14.1363 39.7939 13.8859 39.7939 13.7386 39.9667L11.3229 42.7472C11.1608 42.92 10.9104 42.92 10.7631 42.7472L8.34741 39.9667C8.18538 39.7939 7.93497 39.7939 7.78767 39.9667L5.37196 42.7472C5.20993 42.92 4.95952 42.92 4.81222 42.7472L2.67638 40.2966C2.51435 40.1238 2.26394 40.1238 2.11664 40.2966C1.95461 40.4694 1.95461 40.7678 2.11664 40.9406L4.81222 44.0353C4.97425 44.2081 5.22466 44.2081 5.37196 44.0353L7.78767 41.2705C7.9497 41.0977 8.20011 41.0977 8.34741 41.2705L10.7631 44.0353C10.9252 44.2081 11.1756 44.2081 11.3229 44.0353L13.7386 41.2705C13.9006 41.0977 14.151 41.0977 14.2983 41.2705L16.714 44.0353C16.8761 44.2081 17.1265 44.2081 17.2738 44.0353L19.6895 41.2705C19.8515 41.0977 20.1019 41.0977 20.2492 41.2705L22.6649 44.0353C22.827 44.2081 23.0774 44.2081 23.2247 44.0353L25.6404 41.2705C25.8024 41.0977 26.0528 41.0977 26.2001 41.2705L28.336 43.7211C28.498 43.8939 28.7484 43.8939 28.8957 43.7211C29.043 43.5483 29.043 43.2499 28.8957 43.0771L26.2001 39.9824C26.0381 39.7939 25.7877 39.7939 25.6256 39.9667Z" fill="#F6CCCC"/>
</g>
<g clip-path="url(#clip3)">
<path d="M25.6256 46.8068L23.2247 49.5873C23.0626 49.7601 22.8122 49.7601 22.6649 49.5873L20.2492 46.8225C20.0872 46.6497 19.8368 46.6497 19.6895 46.8225L17.2738 49.5873C17.1117 49.7601 16.8613 49.7601 16.714 49.5873L14.2983 46.8068C14.1363 46.634 13.8859 46.634 13.7386 46.8068L11.3229 49.5873C11.1608 49.7601 10.9104 49.7601 10.7631 49.5873L8.34741 46.8068C8.18538 46.634 7.93497 46.634 7.78767 46.8068L5.37196 49.5873C5.20993 49.7601 4.95952 49.7601 4.81222 49.5873L2.67638 47.1366C2.51435 46.9638 2.26394 46.9638 2.11664 47.1366C1.95461 47.3094 1.95461 47.6079 2.11664 47.7807L4.81222 50.8754C4.97425 51.0482 5.22466 51.0482 5.37196 50.8754L7.78767 48.1106C7.9497 47.9378 8.20011 47.9378 8.34741 48.1106L10.7631 50.8754C10.9252 51.0482 11.1756 51.0482 11.3229 50.8754L13.7386 48.1106C13.9006 47.9378 14.151 47.9378 14.2983 48.1106L16.714 50.8754C16.8761 51.0482 17.1265 51.0482 17.2738 50.8754L19.6895 48.1106C19.8515 47.9378 20.1019 47.9378 20.2492 48.1106L22.6649 50.8754C22.827 51.0482 23.0774 51.0482 23.2247 50.8754L25.6404 48.1106C25.8024 47.9378 26.0528 47.9378 26.2001 48.1106L28.336 50.5612C28.498 50.734 28.7484 50.734 28.8957 50.5612C29.043 50.3884 29.043 50.09 28.8957 49.9172L26.2001 46.8225C26.0381 46.634 25.7877 46.634 25.6256 46.8068Z" fill="#F6CCCC"/>
</g>
<path d="M35.9914 29.7551C35.6597 29.7551 35.3397 29.6234 35.1047 29.3867L31.2497 25.5134C31.008 25.2717 30.878 24.9417 30.8864 24.6001C30.8947 24.2584 31.043 23.9367 31.2964 23.7067L37.503 18.0817C37.873 17.7467 38.403 17.6651 38.858 17.8701C39.3114 18.0767 39.5997 18.5317 39.5914 19.0301C39.5314 22.4484 39.2747 26.3401 36.973 29.2751C36.753 29.5567 36.4197 29.7301 36.063 29.7517C36.0414 29.7534 36.0147 29.7551 35.9914 29.7551Z" fill="#3C91E6"/>
<path d="M21.2497 31.4167C20.923 31.4167 20.603 31.2884 20.3664 31.05C20.0414 30.7267 19.9214 30.2484 20.053 29.8084C20.5014 28.31 21.6547 24.7117 22.6747 23.6934C24.0647 22.3017 26.3297 22.3017 27.723 23.6917C29.1147 25.085 29.1147 27.35 27.723 28.7417C26.703 29.76 23.1064 30.915 21.608 31.3634L21.2497 31.4167Z" fill="#DD403A"/>
<path d="M24.6396 18.9068L30.1646 12.7818C33.6463 8.75847 38.9746 6.09013 43.7246 6.0018C44.0596 5.98513 44.3913 6.12847 44.6313 6.36847C44.8713 6.60847 45.0046 6.9368 44.998 7.27513C44.908 12.0251 42.2396 17.3535 38.198 20.8501L32.093 26.3618L24.6396 18.9068Z" fill="#EBEAEA"/>
<path d="M31.5329 11.3567C28.2112 11.4317 24.4962 11.7517 21.6679 13.9684C21.3862 14.1884 21.2129 14.52 21.1912 14.8784C21.1696 15.235 21.3029 15.585 21.5562 15.8384L24.7179 18.985L24.6396 18.9067L30.1646 12.7817C30.5946 12.285 31.0529 11.81 31.5329 11.3567Z" fill="#3C91E6"/>
<path d="M25.198 22.6501C24.283 22.6501 23.3697 22.9985 22.6747 23.6935C21.6547 24.7118 20.5013 28.3101 20.053 29.8085C19.9347 30.2001 20.018 30.6235 20.268 30.9401L27.618 23.5901C26.9347 22.9635 26.0663 22.6501 25.198 22.6501Z" fill="#D30000"/>
<path d="M43.7796 6C43.7613 6 43.743 6 43.7263 6.00167C39.5613 6.08 34.953 8.14 31.533 11.3567C31.053 11.81 30.5946 12.285 30.1646 12.7817L24.6396 18.9067L24.718 18.985L28.4713 22.7383L44.7313 6.47833C44.7013 6.44 44.668 6.40333 44.633 6.36833C44.4046 6.14 44.0963 6 43.7796 6V6Z" fill="#D6D4D5"/>
<path d="M31.0834 52H23.5834C22.8934 52 22.3334 51.44 22.3334 50.75V43.25C22.3334 42.56 22.8934 42 23.5834 42H31.0834C31.7734 42 32.3334 42.56 32.3334 43.25V50.75C32.3334 51.44 31.7734 52 31.0834 52Z" fill="#8ABDF0"/>
<path d="M44.4166 52.0001H36.9166C36.2266 52.0001 35.6666 51.4401 35.6666 50.7501V34.9167C35.6666 34.2267 36.2266 33.6667 36.9166 33.6667H44.4166C45.1066 33.6667 45.6666 34.2267 45.6666 34.9167V50.7501C45.6666 51.4401 45.1066 52.0001 44.4166 52.0001Z" fill="#8ABDF0"/>
<path d="M57.75 51.9999H50.25C49.56 51.9999 49 51.4399 49 50.7499V26.5833C49 25.8933 49.56 25.3333 50.25 25.3333H57.75C58.44 25.3333 59 25.8933 59 26.5833V50.7499C59 51.4399 58.44 51.9999 57.75 51.9999Z" fill="#8ABDF0"/>
<path d="M40.6666 33.6667H36.9166C36.2266 33.6667 35.6666 34.2267 35.6666 34.9167V50.7501C35.6666 51.4401 36.2266 52.0001 36.9166 52.0001H40.6666V33.6667Z" fill="#3C91E6"/>
<path d="M27.3334 42H23.5834C22.8934 42 22.3334 42.56 22.3334 43.25V50.75C22.3334 51.44 22.8934 52 23.5834 52H27.3334V42Z" fill="#3C91E6"/>
<path d="M54 25.3333H50.25C49.56 25.3333 49 25.8933 49 26.5833V50.7499C49 51.4399 49.56 51.9999 50.25 51.9999H54V25.3333Z" fill="#3C91E6"/>
<defs>
<linearGradient id="paint0_linear" x1="68.0129" y1="78.9196" x2="126.559" y2="119.666" gradientUnits="userSpaceOnUse">
<stop offset="0.0001" stop-color="#D8E9FA"/>
<stop offset="0.708333" stop-color="#E2EFFB" stop-opacity="0.8"/>
<stop offset="1" stop-color="#EBF4FC" stop-opacity="0"/>
</linearGradient>
<clipPath id="clip0">
<rect width="27" height="4.32" fill="white" transform="matrix(1 0 0 -1 2 37.3201)"/>
</clipPath>
<clipPath id="clip1">
<rect width="27" height="4.32" fill="white" transform="matrix(1 0 0 -1 2 30.32)"/>
</clipPath>
<clipPath id="clip2">
<rect width="27" height="4.32" fill="white" transform="matrix(1 0 0 -1 2 44.1601)"/>
</clipPath>
<clipPath id="clip3">
<rect width="27" height="4.32" fill="white" transform="matrix(1 0 0 -1 2 51.0002)"/>
</clipPath>
</defs>
</svg>
