<svg width="65" height="66" viewBox="0 0 65 66" fill="none" xmlns="http://www.w3.org/2000/svg">
<rect x="0.143921" y="65.1438" width="64" height="64" rx="32" transform="rotate(-90 0.143921 65.1438)" fill="url(#paint0_linear)"/>
<g clip-path="url(#clip0)">
<path fill-rule="evenodd" clip-rule="evenodd" d="M16.5994 19.9675C16.3952 20.1557 16.0978 20.2339 15.8278 20.169C8.41629 18.3861 6.26251 11.6901 5.79097 9.76432C5.75341 9.61067 5.76081 9.44946 5.81229 9.2999C5.86377 9.15034 5.95716 9.01873 6.08134 8.92075L11.7806 4.3681C11.8719 4.29546 11.9774 4.2427 12.0903 4.2132C12.2032 4.1837 12.321 4.17811 12.4361 4.19678L19.6764 5.3844C19.8347 5.40889 19.9824 5.47901 20.1014 5.58616C20.2204 5.69331 20.3056 5.83284 20.3465 5.98767C20.8536 7.91456 22.1584 14.8158 16.5994 19.9675Z" fill="#3C91E6"/>
<path d="M10.5559 12.108L14.2144 14.2564L17.437 8.76867" stroke="#EBF4FC" stroke-width="1.5" stroke-linecap="round" stroke-linejoin="round"/>
</g>
<path d="M55.9995 20C55.9343 19.9999 55.8696 19.9842 55.8083 19.9536C55.69 19.8941 55.5897 19.7819 55.5234 19.6347C55.4572 19.4876 55.4287 19.3142 55.4427 19.1423L55.8757 13.6637H52.5632C52.4611 13.6639 52.3608 13.6258 52.2732 13.5536C52.1855 13.4815 52.1139 13.3778 52.0659 13.2539C52.0179 13.13 51.9954 12.9904 52.0008 12.8502C52.0062 12.71 52.0392 12.5745 52.0965 12.4582L56.5337 3.34007C56.6039 3.19738 56.7068 3.09099 56.826 3.03779C56.9452 2.98459 57.0739 2.98764 57.1917 3.04644C57.305 3.10421 57.4017 3.21055 57.4675 3.34972C57.5334 3.4889 57.5649 3.6535 57.5573 3.81916L57.1243 9.33641H60.4368C60.5389 9.3362 60.6392 9.37423 60.7268 9.44643C60.8145 9.51862 60.8861 9.62225 60.9341 9.74618C60.9821 9.87011 61.0046 10.0097 60.9992 10.1498C60.9938 10.29 60.9608 10.4256 60.9035 10.5419L56.4663 19.66C56.4147 19.7649 56.3451 19.8507 56.2637 19.91C56.1823 19.9693 56.0916 20.0002 55.9995 20Z" fill="#F5B700"/>
<g opacity="0.4">
<circle cx="31.5" cy="35.5" r="1.5" fill="#66C7EF"/>
<circle cx="38.5" cy="35.5" r="1.5" fill="#66C7EF"/>
<circle cx="45.5" cy="35.5" r="1.5" fill="#66C7EF"/>
<circle cx="52.5" cy="35.5" r="1.5" fill="#66C7EF"/>
<circle cx="59.5" cy="35.5" r="1.5" fill="#66C7EF"/>
</g>
<g opacity="0.4">
<circle cx="31.5" cy="42.5" r="1.5" fill="#66C7EF"/>
<circle cx="38.5" cy="42.5" r="1.5" fill="#66C7EF"/>
<circle cx="45.5" cy="42.5" r="1.5" fill="#66C7EF"/>
<circle cx="52.5" cy="42.5" r="1.5" fill="#66C7EF"/>
<circle cx="59.5" cy="42.5" r="1.5" fill="#66C7EF"/>
</g>
<g opacity="0.4">
<circle cx="31.5" cy="49.5" r="1.5" fill="#66C7EF"/>
<circle cx="38.5" cy="49.5" r="1.5" fill="#66C7EF"/>
<circle cx="45.5" cy="49.5" r="1.5" fill="#66C7EF"/>
<circle cx="52.5" cy="49.5" r="1.5" fill="#66C7EF"/>
<circle cx="59.5" cy="49.5" r="1.5" fill="#66C7EF"/>
</g>
<g opacity="0.4">
<circle cx="31.5" cy="56.5" r="1.5" fill="#66C7EF"/>
<circle cx="38.5" cy="56.5" r="1.5" fill="#66C7EF"/>
<circle cx="45.5" cy="56.5" r="1.5" fill="#66C7EF"/>
<circle cx="52.5" cy="56.5" r="1.5" fill="#66C7EF"/>
<circle cx="59.5" cy="56.5" r="1.5" fill="#66C7EF"/>
</g>
<path d="M9.56547 44.7251C10.012 43.9844 10.3261 43.1717 10.4938 42.3231L11.5837 36.2662C12.0679 33.8074 13.1177 31.5045 14.7959 29.6433C19.1217 24.8454 18.6088 24.2752 20.2778 18.7267C20.5998 17.5935 21.7795 16.9357 22.9128 17.2577C24.046 17.5796 24.7038 18.7594 24.3818 19.8927C24.1738 20.6247 18.4982 40.6024 18.5205 40.5242C18.4271 40.8528 18.3722 41.1829 18.3512 41.5103L17.5203 44.4353C16.8132 46.9242 18.2627 49.5243 20.7516 50.2313C22.4045 50.7009 28.1036 52.32 31.9825 53.422C29.5741 55.334 26.6775 56.5441 23.6124 56.9038C23.5933 56.906 23.5744 56.9083 23.5554 56.9107C21.0011 57.2259 18.857 58.9349 17.9241 61.2968C12.7939 59.1091 8.63613 55.4356 5.81846 50.94L9.56547 44.7251Z" fill="#FBC08B"/>
<path d="M48.409 24.5786L49.1985 24.1771C50.4156 23.5582 51.9178 24.0475 52.5367 25.2645C53.1557 26.4816 52.6664 27.9838 51.4493 28.6028L46.5591 31.0898L48.4089 24.5786L48.409 24.5786Z" fill="#FBC08B"/>
<path d="M50.8962 26.1906C51.5193 25.8737 51.95 25.3248 52.1405 24.7017C52.2946 24.8668 52.4296 25.054 52.5368 25.2648C53.1557 26.4819 52.6664 27.9841 51.4493 28.603L46.5592 31.0901L47.4537 27.9414L50.8962 26.1906Z" fill="#F7A079"/>
<path d="M32.399 8.84342C33.9554 9.28559 45.3994 12.5368 46.9419 12.975C49.4308 13.6821 50.8803 16.2822 50.1732 18.771L40.9589 51.2051C40.2518 53.694 37.6516 55.1435 35.1628 54.4364C32.8893 53.7905 22.9009 50.9529 20.6199 50.3049C18.131 49.5978 16.6815 46.9976 17.3886 44.5088L26.6029 12.0748C27.31 9.58601 29.9102 8.13637 32.399 8.84342Z" fill="#D30000"/>
<path d="M36.1367 49.8351L45.351 17.4011C46.0581 14.9122 44.6084 12.3121 42.1196 11.605C44.4189 12.2582 46.3673 12.8118 46.9419 12.975C49.4308 13.6821 50.8803 16.2822 50.1732 18.771L40.9589 51.2051C40.2518 53.694 37.6516 55.1435 35.1628 54.4365C34.3332 54.2008 32.4757 53.673 30.3406 53.0665C32.8295 53.7737 35.4296 52.324 36.1367 49.8351Z" fill="#D30000"/>
<path d="M19.8895 45.2195C19.5736 46.3312 20.2188 47.4884 21.3305 47.8043C22.8701 48.2416 34.3172 51.4937 35.8734 51.9358C36.9851 52.2517 38.1423 51.6065 38.4582 50.4948C38.7493 49.47 47.3759 19.1048 47.6725 18.0608C47.9884 16.9491 47.3432 15.7918 46.2315 15.476L45.1225 15.1609C44.7065 15.0428 44.2734 15.2842 44.1553 15.7002L44.0196 16.1778C43.8375 16.8187 43.1642 17.1941 42.5234 17.0121C40.7775 16.5161 35.7807 15.0965 34.0354 14.6007C33.3945 14.4186 33.0192 13.7453 33.2013 13.1044L33.3369 12.6267C33.4551 12.2108 33.2137 11.7777 32.7977 11.6595L31.6887 11.3445C30.577 11.0286 29.4198 11.6738 29.1039 12.7855C27.1205 19.7668 21.7383 38.7119 19.8895 45.2195Z" fill="#8ABDF0"/>
<path d="M36.1942 13.4121L38.688 14.1206C39.0905 14.2349 39.5096 14.0013 39.624 13.5988C39.7383 13.1962 39.5047 12.7772 39.1022 12.6628L36.6083 11.9543C36.2058 11.84 35.7867 12.0736 35.6724 12.4761C35.558 12.8787 35.7916 13.2977 36.1942 13.4121Z" fill="#00171F"/>
<path d="M41.2457 14.847C41.6539 14.963 42.0698 14.7191 42.1817 14.3252C42.3157 13.8533 41.974 13.3971 41.5129 13.3632C41.1701 13.3317 40.8253 13.5541 40.7239 13.9111C40.6115 14.3067 40.8364 14.7308 41.2457 14.847Z" fill="#00171F"/>
<path d="M41.3555 36.1861C41.9001 37.257 43.2097 37.6835 44.2804 37.1389L48.708 34.8871C49.7789 34.3425 50.2054 33.0329 49.6608 31.9621C49.1162 30.8912 47.8065 30.4647 46.7358 31.0093L42.3082 33.2612C41.2373 33.8057 40.8108 35.1152 41.3555 36.1861Z" fill="#FBC08B"/>
<path d="M43.3761 35.149L47.8037 32.8972C48.4888 32.5487 48.9084 31.8868 48.9804 31.175C49.2587 31.3722 49.4953 31.637 49.6607 31.9621C50.2053 33.0329 49.7787 34.3425 48.7079 34.8871L44.2804 37.1389C43.2095 37.6835 41.9 37.2569 41.3554 36.1862C41.1592 35.8004 41.0909 35.3841 41.1314 34.9833C41.7696 35.4355 42.6304 35.5282 43.3761 35.149Z" fill="#F7A079"/>
<path d="M39.734 41.8934C40.2786 42.9643 41.5882 43.3908 42.659 42.8462L47.0865 40.5944C48.1574 40.0498 48.5839 38.7401 48.0393 37.6694C47.4947 36.5985 46.1851 36.172 45.1143 36.7166L40.6868 38.9684C39.6159 39.513 39.1893 40.8225 39.734 41.8934Z" fill="#FBC08B"/>
<path d="M41.7546 40.8565L46.1822 38.6047C46.8674 38.2562 47.2869 37.5943 47.3589 36.8825C47.6373 37.0797 47.8739 37.3445 48.0392 37.6697C48.5839 38.7404 48.1572 40.05 47.0865 40.5946L42.6589 42.8464C41.5881 43.391 40.2786 42.9644 39.7339 41.8937C39.5377 41.508 39.4694 41.0916 39.51 40.6909C40.1482 41.143 41.0089 41.2357 41.7546 40.8565Z" fill="#F7A079"/>
<path d="M38.1124 47.6012C38.657 48.672 39.9666 49.0986 41.0374 48.5539L45.465 46.3021C46.5358 45.7575 46.9623 44.4479 46.4177 43.3771C45.8731 42.3063 44.5635 41.8798 43.4927 42.4244L39.0652 44.6762C37.9943 45.2208 37.5677 46.5304 38.1124 47.6012Z" fill="#FBC08B"/>
<path d="M40.1332 46.564L44.5607 44.3122C45.2459 43.9637 45.6654 43.3018 45.7374 42.59C46.0158 42.7873 46.2524 43.052 46.4178 43.3772C46.9624 44.448 46.5358 45.7575 45.465 46.3021L41.0375 48.554C39.9666 49.0986 38.6571 48.672 38.1125 47.6012C37.9163 47.2155 37.848 46.7991 37.8885 46.3984C38.5267 46.8504 39.3875 46.9432 40.1332 46.564Z" fill="#F7A079"/>
<path d="M9.99586 43.8974C11.6308 49.3814 15.9474 53.9384 21.8599 55.6181C23.4267 56.0632 25.0044 56.2771 26.5569 56.2809C25.6008 56.5757 24.616 56.7863 23.6126 56.9041C23.5936 56.9063 23.5746 56.9086 23.5556 56.911C21.0013 57.2262 18.9329 59.6381 18 62C13.1293 59.8213 8.5907 55.5066 5.5 51L9.56578 44.7253C9.72675 44.4581 9.8699 44.1815 9.99586 43.8974Z" fill="#F7A079"/>
<path d="M27.9975 47.2633L30.4941 47.9726C30.897 48.087 31.3166 47.8532 31.4311 47.4502C31.5456 47.0471 31.3118 46.6277 30.9087 46.5132L28.4121 45.8039C28.0092 45.6894 27.5896 45.9233 27.4751 46.3263C27.3606 46.7293 27.5945 47.1488 27.9975 47.2633Z" fill="#3C91E6"/>
<path d="M37.3224 21.7736L37.0633 21.2563L36.3536 23.7545C36.3012 23.939 36.1776 24.0952 36.01 24.1886C35.8424 24.2821 35.6446 24.3051 35.46 24.2527C35.2755 24.2002 35.1193 24.0766 35.0259 23.909C34.9324 23.7415 34.9094 23.5436 34.9618 23.3591L35.6716 20.8609L35.1871 21.1369C35.1036 21.1903 35.0101 21.226 34.9123 21.2417C34.8145 21.2575 34.7145 21.253 34.6185 21.2286C34.5225 21.2041 34.4326 21.1602 34.3543 21.0996C34.2759 21.039 34.2109 20.9629 34.1632 20.8761C34.1163 20.7929 34.0864 20.7012 34.0752 20.6063C34.064 20.5115 34.0716 20.4154 34.0977 20.3235C34.1238 20.2317 34.1678 20.1459 34.2272 20.0711C34.2867 19.9964 34.3603 19.9341 34.4439 19.8879L36.4902 18.7471C36.5744 18.7026 36.6665 18.6751 36.7613 18.6662C36.9505 18.6447 37.1405 18.6987 37.2902 18.8165C37.3662 18.8738 37.4301 18.9457 37.4783 19.0278L38.627 21.0463C38.7235 21.2193 38.7473 21.4235 38.6931 21.614C38.639 21.8046 38.5114 21.9658 38.3384 22.0622C38.1654 22.1587 37.9612 22.1825 37.7707 22.1283C37.5801 22.0742 37.4189 21.9466 37.3224 21.7736ZM35.0646 25.6444C35.4775 25.7617 35.8464 25.9988 36.1245 26.3257C36.4026 26.6526 36.5776 27.0547 36.6272 27.4811C36.6769 27.9074 36.5989 28.3389 36.4033 28.721C36.2078 29.1031 35.9032 29.4185 35.5283 29.6276C35.1534 29.8366 34.725 29.9297 34.2971 29.8952C33.8693 29.8607 33.4613 29.7001 33.1247 29.4338C32.7881 29.1674 32.5381 28.8072 32.4063 28.3987C32.2744 27.9902 32.2666 27.5518 32.3839 27.1389C32.5412 26.5853 32.912 26.1168 33.4148 25.8365C33.9175 25.5562 34.511 25.4871 35.0646 25.6444ZM34.2739 28.4279C34.4115 28.467 34.5576 28.4644 34.6938 28.4204C34.8299 28.3765 34.95 28.2932 35.0388 28.181C35.1276 28.0688 35.1811 27.9328 35.1926 27.7902C35.2041 27.6475 35.1731 27.5047 35.1034 27.3797C35.0337 27.2548 34.9286 27.1533 34.8012 27.0881C34.6738 27.0229 34.53 26.9969 34.3879 27.0135C34.2458 27.03 34.1118 27.0883 34.0028 27.181C33.8938 27.2737 33.8148 27.3967 33.7757 27.5343C33.7232 27.7189 33.7463 27.9167 33.8397 28.0843C33.9331 28.2519 34.0893 28.3755 34.2739 28.4279ZM39.3427 29.1159C39.3036 29.2535 39.2245 29.3765 39.1155 29.4692C39.0066 29.5619 38.8726 29.6202 38.7304 29.6367C38.5883 29.6533 38.4445 29.6273 38.3171 29.5621C38.1898 29.4969 38.0846 29.3954 38.0149 29.2704C37.9453 29.1455 37.9142 29.0027 37.9257 28.86C37.9372 28.7174 37.9907 28.5814 38.0795 28.4692C38.1683 28.357 38.2884 28.2737 38.4246 28.2298C38.5607 28.1858 38.7068 28.1832 38.8445 28.2223C39.029 28.2747 39.1852 28.3983 39.2786 28.5659C39.3721 28.7335 39.3951 28.9313 39.3427 29.1159ZM29.6004 26.3482C29.6395 26.2105 29.7186 26.0876 29.8275 25.9949C29.9365 25.9022 30.0705 25.8438 30.2127 25.8273C30.3548 25.8107 30.4986 25.8367 30.626 25.9019C30.7533 25.9671 30.8585 26.0686 30.9282 26.1936C30.9978 26.3186 31.0289 26.4614 31.0174 26.604C31.0059 26.7466 30.9524 26.8826 30.8636 26.9948C30.7748 27.107 30.6547 27.1903 30.5185 27.2343C30.3824 27.2782 30.2362 27.2808 30.0986 27.2417C29.9141 27.1893 29.7579 27.0657 29.6645 26.8981C29.571 26.7305 29.548 26.5327 29.6004 26.3482ZM30.2884 21.2793L33.0719 22.0701C33.2565 22.1226 33.4126 22.2462 33.5061 22.4137C33.5995 22.5813 33.6225 22.7791 33.5701 22.9637C33.5177 23.1483 33.3941 23.3044 33.2265 23.3978C33.0589 23.4913 32.8611 23.5143 32.6765 23.4619L29.893 22.6711C29.7085 22.6187 29.5107 22.6417 29.3431 22.7351C29.1755 22.8285 29.0519 22.9847 28.9995 23.1693L27.4179 28.7363C27.3655 28.9208 27.3885 29.1186 27.4819 29.2862C27.5754 29.4538 27.7315 29.5774 27.9161 29.6298L39.0501 32.7929C39.2346 32.8454 39.4324 32.8223 39.6 32.7289C39.7676 32.6355 39.8912 32.4793 39.9436 32.2948L41.5252 26.7278C41.5776 26.5432 41.5546 26.3454 41.4612 26.1778C41.3677 26.0102 41.2116 25.8866 41.027 25.8342L38.2435 25.0434C38.059 24.991 37.9028 24.8674 37.8094 24.6998C37.7159 24.5322 37.6929 24.3344 37.7453 24.1499C37.7978 23.9653 37.9214 23.8091 38.0889 23.7157C38.2565 23.6223 38.4543 23.5993 38.6389 23.6517L41.4224 24.4425C41.9761 24.5998 42.4446 24.9706 42.7249 25.4733C43.0051 25.976 43.0742 26.5695 42.9169 27.1232L41.3354 32.6901C41.1781 33.2438 40.8073 33.7123 40.3045 33.9926C39.8018 34.2729 39.2083 34.342 38.6547 34.1847L27.5207 31.0216C26.967 30.8643 26.4985 30.4935 26.2182 29.9907C25.938 29.488 25.8689 28.8945 26.0262 28.3409L27.6077 22.7739C27.765 22.2202 28.1358 21.7517 28.6385 21.4714C29.1413 21.1911 29.7348 21.1221 30.2884 21.2793Z" fill="white"/>
<defs>
<linearGradient id="paint0_linear" x1="4.15678" y1="80.0634" x2="62.7034" y2="120.809" gradientUnits="userSpaceOnUse">
<stop offset="0.0001" stop-color="#D8E9FA"/>
<stop offset="0.708333" stop-color="#E2EFFB" stop-opacity="0.8"/>
<stop offset="1" stop-color="#EBF4FC" stop-opacity="0"/>
</linearGradient>
<clipPath id="clip0">
<rect width="20" height="20" fill="white" transform="translate(2 5.0337) rotate(-14.5772)"/>
</clipPath>
</defs>
</svg>
