<svg width="64" height="68" viewBox="0 0 64 68" fill="none" xmlns="http://www.w3.org/2000/svg">
<rect x="64" y="67.1438" width="64" height="64" rx="32" transform="rotate(180 64 67.1438)" fill="url(#paint0_linear)"/>
<g clip-path="url(#clip0)">
<path fill-rule="evenodd" clip-rule="evenodd" d="M48.413 20.522C48.1387 20.5655 47.8479 20.4658 47.6591 20.262C42.4786 14.67 44.3975 7.90296 45.0725 6.03869C45.1264 5.88999 45.2219 5.75991 45.3476 5.66397C45.4734 5.56802 45.6241 5.51024 45.7817 5.49752L53.0489 4.86731C53.1651 4.85746 53.2822 4.87201 53.3925 4.91002C53.5028 4.94803 53.6039 5.00867 53.6894 5.08805L59.0574 10.0898C59.1755 10.1979 59.2596 10.3381 59.2993 10.4932C59.3389 10.6484 59.3325 10.8117 59.2807 10.9633C58.6348 12.8482 55.8954 19.3155 48.413 20.522Z" fill="#3C91E6"/>
<path d="M47.7393 10.6306L49.5936 14.4466L55.3176 11.6653" stroke="#EBF4FC" stroke-width="1.5" stroke-linecap="round" stroke-linejoin="round"/>
</g>
<path d="M5.99947 27C5.93426 26.9999 5.86956 26.9842 5.80826 26.9536C5.69001 26.8941 5.58972 26.7819 5.52344 26.6347C5.45716 26.4876 5.42873 26.3142 5.4427 26.1423L5.87574 20.6637H2.56324C2.46107 20.6639 2.36079 20.6258 2.27317 20.5536C2.18554 20.4815 2.11389 20.3778 2.0659 20.2539C2.01791 20.13 1.9954 19.9904 2.00078 19.8502C2.00616 19.71 2.03924 19.5745 2.09646 19.4582L6.53374 10.3401C6.60392 10.1974 6.70678 10.091 6.826 10.0378C6.94521 9.98459 7.07394 9.98764 7.19175 10.0464C7.305 10.1042 7.4017 10.2106 7.46754 10.3497C7.53338 10.4889 7.56485 10.6535 7.5573 10.8192L7.12426 16.3364H10.4368C10.5389 16.3362 10.6392 16.3742 10.7268 16.4464C10.8145 16.5186 10.8861 16.6222 10.9341 16.7462C10.9821 16.8701 11.0046 17.0097 10.9992 17.1498C10.9938 17.29 10.9608 17.4256 10.9035 17.5419L6.46626 26.66C6.41467 26.7649 6.34512 26.8507 6.26373 26.91C6.18234 26.9693 6.09159 27.0002 5.99947 27Z" fill="#F5B700"/>
<g opacity="0.4">
<circle r="1.5" transform="matrix(-1 0 0 1 32.8979 37.5)" fill="#66C7EF"/>
<circle r="1.5" transform="matrix(-1 0 0 1 25.8979 37.5)" fill="#66C7EF"/>
<circle r="1.5" transform="matrix(-1 0 0 1 18.8979 37.5)" fill="#66C7EF"/>
<circle r="1.5" transform="matrix(-1 0 0 1 11.8979 37.5)" fill="#66C7EF"/>
<circle r="1.5" transform="matrix(-1 0 0 1 4.89795 37.5)" fill="#66C7EF"/>
</g>
<g opacity="0.4">
<circle r="1.5" transform="matrix(-1 0 0 1 32.8979 44.5)" fill="#66C7EF"/>
<circle r="1.5" transform="matrix(-1 0 0 1 25.8979 44.5)" fill="#66C7EF"/>
<circle r="1.5" transform="matrix(-1 0 0 1 18.8979 44.5)" fill="#66C7EF"/>
<circle r="1.5" transform="matrix(-1 0 0 1 11.8979 44.5)" fill="#66C7EF"/>
<circle r="1.5" transform="matrix(-1 0 0 1 4.89795 44.5)" fill="#66C7EF"/>
</g>
<g opacity="0.4">
<circle r="1.5" transform="matrix(-1 0 0 1 32.8979 51.5)" fill="#66C7EF"/>
<circle r="1.5" transform="matrix(-1 0 0 1 25.8979 51.5)" fill="#66C7EF"/>
<circle r="1.5" transform="matrix(-1 0 0 1 18.8979 51.5)" fill="#66C7EF"/>
<circle r="1.5" transform="matrix(-1 0 0 1 11.8979 51.5)" fill="#66C7EF"/>
<circle r="1.5" transform="matrix(-1 0 0 1 4.89795 51.5)" fill="#66C7EF"/>
</g>
<g opacity="0.4">
<circle r="1.5" transform="matrix(-1 0 0 1 32.8979 58.5)" fill="#66C7EF"/>
<circle r="1.5" transform="matrix(-1 0 0 1 25.8979 58.5)" fill="#66C7EF"/>
<circle r="1.5" transform="matrix(-1 0 0 1 18.8979 58.5)" fill="#66C7EF"/>
<circle r="1.5" transform="matrix(-1 0 0 1 11.8979 58.5)" fill="#66C7EF"/>
<circle r="1.5" transform="matrix(-1 0 0 1 4.89795 58.5)" fill="#66C7EF"/>
</g>
<path d="M54.8325 46.7251C54.3859 45.9844 54.0718 45.1716 53.9042 44.3231L52.8142 38.2661C52.3301 35.8074 51.2802 33.5045 49.6021 31.6433C45.2762 26.8454 45.7892 26.2752 44.1201 20.7267C43.7982 19.5935 42.6184 18.9357 41.4852 19.2577C40.3519 19.5796 39.6942 20.7594 40.0161 21.8926C40.2241 22.6247 45.8997 42.6024 45.8775 42.5242C45.9708 42.8527 46.0258 43.1828 46.0467 43.5103L46.8777 46.4353C47.5848 48.9242 46.1352 51.5242 43.6463 52.2313C41.9934 52.7009 36.2943 54.32 32.4154 55.422C34.8239 57.334 37.7204 58.5441 40.7856 58.9037C40.8046 58.906 40.8236 58.9083 40.8426 58.9106C43.3969 59.2259 45.541 60.9349 46.4738 63.2967C51.604 61.109 55.7618 57.4356 58.5795 52.94L54.8325 46.7251Z" fill="#FBC08B"/>
<path d="M15.9889 26.5786L15.1995 26.1771C13.9824 25.5582 12.4802 26.0475 11.8612 27.2645C11.2423 28.4816 11.7316 29.9838 12.9487 30.6027L17.8388 33.0898L15.989 26.5786L15.9889 26.5786Z" fill="#FBC08B"/>
<path d="M13.5017 28.1905C12.8787 27.8736 12.448 27.3247 12.2574 26.7016C12.1034 26.8667 11.9683 27.0539 11.8612 27.2647C11.2422 28.4818 11.7315 29.984 12.9486 30.603L17.8388 33.0901L16.9442 29.9414L13.5017 28.1905Z" fill="#F7A079"/>
<path d="M31.999 10.8434C30.4426 11.2856 18.9985 14.5368 17.4561 14.975C14.9672 15.6821 13.5177 18.2822 14.2247 20.771L23.4391 53.2051C24.1462 55.694 26.7463 57.1435 29.2351 56.4364C31.5087 55.7905 41.497 52.9529 43.778 52.3049C46.2669 51.5978 47.7165 48.9976 47.0094 46.5088L37.795 14.0748C37.088 11.586 34.4878 10.1364 31.999 10.8434Z" fill="#D30000"/>
<path d="M28.2613 51.8351L19.0469 19.4011C18.3398 16.9122 19.7895 14.3121 22.2783 13.605C19.9791 14.2582 18.0306 14.8118 17.4561 14.975C14.9672 15.6821 13.5177 18.2822 14.2247 20.771L23.4391 53.2051C24.1462 55.694 26.7463 57.1435 29.2351 56.4365C30.0648 56.2008 31.9223 55.673 34.0573 55.0665C31.5684 55.7737 28.9684 54.324 28.2613 51.8351Z" fill="#D30000"/>
<path d="M44.5085 47.2195C44.8243 48.3312 44.1791 49.4884 43.0674 49.8042C41.5279 50.2416 30.0807 53.4937 28.5245 53.9358C27.4128 54.2516 26.2556 53.6065 25.9398 52.4948C25.6486 51.47 17.022 21.1048 16.7254 20.0607C16.4096 18.949 17.0548 17.7918 18.1665 17.476L19.2755 17.1609C19.6915 17.0427 20.1245 17.2842 20.2427 17.7001L20.3784 18.1778C20.5605 18.8187 21.2338 19.1941 21.8746 19.012C23.6204 18.516 28.6172 17.0965 30.3626 16.6006C31.0034 16.4186 31.3788 15.7453 31.1967 15.1043L31.061 14.6267C30.9428 14.2107 31.1843 13.7777 31.6002 13.6595L32.7093 13.3444C33.8209 13.0286 34.9782 13.6738 35.294 14.7855C37.2775 21.7668 42.6597 40.7119 44.5085 47.2195Z" fill="#8ABDF0"/>
<path d="M28.2038 15.4121L25.7099 16.1206C25.3074 16.2349 24.8883 16.0013 24.774 15.5988C24.6596 15.1962 24.8933 14.7772 25.2958 14.6628L27.7896 13.9543C28.1921 13.84 28.6112 14.0736 28.7256 14.4761C28.8399 14.8786 28.6064 15.2977 28.2038 15.4121Z" fill="#00171F"/>
<path d="M23.1522 16.847C22.7441 16.963 22.3282 16.7191 22.2163 16.3252C22.0822 15.8533 22.424 15.3971 22.8851 15.3632C23.2278 15.3316 23.5726 15.5541 23.674 15.9111C23.7864 16.3067 23.5615 16.7308 23.1522 16.847Z" fill="#00171F"/>
<path d="M23.0425 38.1861C22.4979 39.257 21.1883 39.6835 20.1175 39.1389L15.6899 36.8871C14.6191 36.3425 14.1926 35.0329 14.7372 33.9621C15.2818 32.8912 16.5914 32.4647 17.6622 33.0093L22.0897 35.2611C23.1606 35.8057 23.5872 37.1152 23.0425 38.1861Z" fill="#FBC08B"/>
<path d="M21.0219 37.149L16.5943 34.8972C15.9091 34.5487 15.4896 33.8868 15.4176 33.175C15.1392 33.3722 14.9026 33.637 14.7372 33.9621C14.1926 35.0329 14.6192 36.3425 15.69 36.8871L20.1176 39.1389C21.1884 39.6835 22.4979 39.2569 23.0426 38.1862C23.2388 37.8004 23.307 37.3841 23.2665 36.9833C22.6283 37.4355 21.7676 37.5282 21.0219 37.149Z" fill="#F7A079"/>
<path d="M24.664 43.8934C24.1194 44.9643 22.8097 45.3908 21.739 44.8462L17.3114 42.5943C16.2405 42.0498 15.814 40.7401 16.3586 39.6694C16.9032 38.5985 18.2129 38.172 19.2836 38.7166L23.7112 40.9684C24.7821 41.513 25.2087 42.8225 24.664 43.8934Z" fill="#FBC08B"/>
<path d="M22.6433 42.8565L18.2158 40.6047C17.5306 40.2562 17.111 39.5943 17.039 38.8825C16.7607 39.0797 16.5241 39.3445 16.3587 39.6697C15.8141 40.7404 16.2407 42.05 17.3115 42.5946L21.739 44.8464C22.8099 45.391 24.1194 44.9644 24.664 43.8937C24.8602 43.508 24.9285 43.0916 24.888 42.6909C24.2498 43.143 23.389 43.2357 22.6433 42.8565Z" fill="#F7A079"/>
<path d="M26.2855 49.6012C25.7409 50.672 24.4313 51.0986 23.3606 50.5539L18.933 48.3021C17.8621 47.7575 17.4356 46.4479 17.9802 45.3771C18.5248 44.3063 19.8344 43.8797 20.9052 44.4244L25.3328 46.6762C26.4036 47.2208 26.8303 48.5304 26.2855 49.6012Z" fill="#FBC08B"/>
<path d="M24.2648 48.564L19.8372 46.3122C19.152 45.9637 18.7325 45.3018 18.6605 44.59C18.3821 44.7873 18.1456 45.052 17.9802 45.3772C17.4356 46.448 17.8622 47.7575 18.9329 48.3021L23.3605 50.554C24.4314 51.0986 25.7409 50.672 26.2855 49.6012C26.4817 49.2155 26.55 48.7991 26.5094 48.3984C25.8712 48.8504 25.0105 48.9432 24.2648 48.564Z" fill="#F7A079"/>
<path d="M54.4021 45.8974C52.7672 51.3814 48.4505 55.9384 42.5381 57.6181C40.9712 58.0632 39.3935 58.2771 37.841 58.2809C38.7971 58.5757 39.782 58.7863 40.7854 58.9041C40.8043 58.9063 40.8234 58.9086 40.8424 58.911C43.3967 59.2262 45.4651 61.6381 46.398 64C51.2687 61.8213 55.8073 57.5066 58.898 53L54.8322 46.7253C54.6712 46.4581 54.5281 46.1815 54.4021 45.8974Z" fill="#F7A079"/>
<path d="M36.4004 49.2633L33.9038 49.9726C33.5009 50.087 33.0813 49.8532 32.9668 49.4502C32.8523 49.0471 33.0862 48.6277 33.4892 48.5132L35.9858 47.8039C36.3888 47.6894 36.8083 47.9233 36.9228 48.3263C37.0373 48.7293 36.8035 49.1488 36.4004 49.2633Z" fill="#3C91E6"/>
<path d="M31.6151 31.5051L31.3591 32.0239L30.6345 29.53C30.581 29.3458 30.4565 29.1903 30.2883 29.0979C30.1202 29.0055 29.9223 28.9836 29.738 29.0372C29.5538 29.0907 29.3983 29.2152 29.3059 29.3833C29.2135 29.5515 29.1916 29.7494 29.2452 29.9337L29.9697 32.4276L29.4836 32.1545C29.3998 32.1016 29.3061 32.0665 29.2082 32.0513C29.1103 32.0361 29.0104 32.0411 28.9145 32.0662C28.8187 32.0912 28.729 32.1356 28.651 32.1967C28.5731 32.2578 28.5085 32.3343 28.4613 32.4214C28.4149 32.5049 28.3856 32.5967 28.3749 32.6916C28.3642 32.7865 28.3724 32.8826 28.3991 32.9743C28.4257 33.066 28.4703 33.1515 28.5301 33.2259C28.59 33.3004 28.664 33.3622 28.7479 33.4078L30.8009 34.5365C30.8853 34.5805 30.9776 34.6075 31.0725 34.6158C31.2618 34.6361 31.4515 34.581 31.6005 34.4624C31.6761 34.4045 31.7396 34.3323 31.7873 34.2499L32.924 32.2247C33.0195 32.0511 33.042 31.8467 32.9868 31.6565C32.9315 31.4663 32.803 31.3058 32.6294 31.2104C32.4558 31.115 32.2514 31.0924 32.0612 31.1477C31.871 31.203 31.7106 31.3315 31.6151 31.5051ZM29.3344 27.6478C29.7466 27.528 30.114 27.2887 30.3902 26.9602C30.6664 26.6316 30.8389 26.2285 30.886 25.8019C30.9331 25.3752 30.8526 24.9442 30.6548 24.5633C30.4569 24.1824 30.1505 23.8687 29.7744 23.6619C29.3983 23.4552 28.9693 23.3646 28.5416 23.4016C28.114 23.4386 27.7069 23.6016 27.372 23.87C27.037 24.1384 26.7891 24.5001 26.6597 24.9093C26.5302 25.3186 26.5251 25.757 26.6448 26.1692C26.8054 26.7219 27.179 27.1882 27.6834 27.4655C28.1878 27.7428 28.7816 27.8084 29.3344 27.6478ZM28.5271 24.869C28.6645 24.8291 28.8106 24.8308 28.947 24.874C29.0834 24.9171 29.204 24.9998 29.2935 25.1114C29.3829 25.2231 29.4373 25.3588 29.4496 25.5013C29.4619 25.6439 29.4317 25.7869 29.3628 25.9122C29.2939 26.0376 29.1893 26.1397 29.0624 26.2057C28.9354 26.2717 28.7917 26.2985 28.6495 26.2828C28.5073 26.2671 28.3729 26.2096 28.2634 26.1175C28.1539 26.0254 28.0741 25.903 28.0342 25.7656C27.9807 25.5813 28.0025 25.3834 28.095 25.2152C28.1874 25.0471 28.3428 24.9226 28.5271 24.869ZM33.5917 24.1509C33.5518 24.0136 33.472 23.8911 33.3625 23.799C33.253 23.7069 33.1186 23.6494 32.9764 23.6337C32.8342 23.618 32.6905 23.6449 32.5635 23.7108C32.4366 23.7768 32.332 23.8789 32.2631 24.0043C32.1941 24.1296 32.1639 24.2727 32.1763 24.4152C32.1886 24.5577 32.243 24.6934 32.3324 24.8051C32.4219 24.9167 32.5425 24.9994 32.6789 25.0425C32.8153 25.0857 32.9614 25.0874 33.0988 25.0475C33.2831 24.9939 33.4385 24.8694 33.5309 24.7013C33.6234 24.5331 33.6452 24.3352 33.5917 24.1509ZM23.8661 26.9765C23.906 27.1139 23.9858 27.2364 24.0953 27.3284C24.2048 27.4205 24.3392 27.478 24.4814 27.4937C24.6236 27.5094 24.7673 27.4826 24.8942 27.4167C25.0212 27.3507 25.1258 27.2486 25.1947 27.1232C25.2636 26.9978 25.2938 26.8548 25.2815 26.7123C25.2691 26.5697 25.2148 26.434 25.1253 26.3224C25.0359 26.2107 24.9153 26.1281 24.7789 26.085C24.6425 26.0418 24.4963 26.0401 24.3589 26.08C24.1747 26.1335 24.0193 26.2581 23.9268 26.4262C23.8344 26.5943 23.8126 26.7923 23.8661 26.9765ZM24.5842 32.0411L27.3629 31.2338C27.5472 31.1803 27.7026 31.0558 27.795 30.8877C27.8875 30.7195 27.9093 30.5216 27.8558 30.3373C27.8023 30.1531 27.6777 29.9977 27.5096 29.9052C27.3415 29.8128 27.1435 29.7909 26.9593 29.8445L24.1805 30.6518C23.9963 30.7053 23.7983 30.6834 23.6302 30.591C23.4621 30.4986 23.3375 30.3432 23.284 30.1589L21.6694 24.6014C21.6159 24.4172 21.6377 24.2192 21.7302 24.0511C21.8226 23.883 21.978 23.7584 22.1623 23.7049L33.2772 20.4757C33.4615 20.4222 33.6594 20.444 33.8276 20.5364C33.9957 20.6289 34.1202 20.7843 34.1738 20.9685L35.7884 26.526C35.8419 26.7103 35.82 26.9082 35.7276 27.0764C35.6352 27.2445 35.4797 27.369 35.2955 27.4225L32.5168 28.2299C32.3325 28.2834 32.1771 28.4079 32.0847 28.576C31.9922 28.7442 31.9704 28.9421 32.0239 29.1264C32.0774 29.3106 32.202 29.466 32.3701 29.5585C32.5382 29.6509 32.7362 29.6728 32.9204 29.6192L35.6992 28.8119C36.2519 28.6513 36.7182 28.2778 36.9955 27.7734C37.2728 27.269 37.3383 26.6751 37.1777 26.1224L35.5631 20.5649C35.4025 20.0122 35.029 19.5459 34.5246 19.2686C34.0202 18.9913 33.4263 18.9257 32.8736 19.0863L21.7586 22.3155C21.2059 22.4761 20.7396 22.8497 20.4623 23.3541C20.185 23.8585 20.1195 24.4524 20.28 25.0051L21.8946 30.5626C22.0552 31.1153 22.4288 31.5816 22.9332 31.8589C23.4376 32.1362 24.0315 32.2017 24.5842 32.0411Z" fill="white"/>
<defs>
<linearGradient id="paint0_linear" x1="68.0129" y1="82.0634" x2="126.559" y2="122.809" gradientUnits="userSpaceOnUse">
<stop offset="0.0001" stop-color="#D8E9FA"/>
<stop offset="0.708333" stop-color="#E2EFFB" stop-opacity="0.8"/>
<stop offset="1" stop-color="#EBF4FC" stop-opacity="0"/>
</linearGradient>
<clipPath id="clip0">
<rect width="20" height="20" fill="white" transform="translate(44.5393) rotate(19.0847)"/>
</clipPath>
</defs>
</svg>
