<svg width="32" height="22" viewBox="0 0 32 22" fill="none" xmlns="http://www.w3.org/2000/svg">
<path d="M7.032 8C8.41647 8 9.76985 8.41054 10.921 9.17971C12.0721 9.94888 12.9693 11.0421 13.4992 12.3212C14.029 13.6003 14.1676 15.0078 13.8975 16.3656C13.6274 17.7235 12.9607 18.9708 11.9817 19.9497C11.0028 20.9287 9.7555 21.5954 8.39763 21.8655C7.03977 22.1356 5.6323 21.997 4.35322 21.4672C3.07413 20.9373 1.98088 20.0401 1.21171 18.889C0.442543 17.7378 0.032 16.3845 0.032 15L0 14C0 10.287 1.475 6.72601 4.1005 4.1005C6.72601 1.475 10.287 0 14 0V4C12.6862 3.99647 11.3847 4.25342 10.1709 4.756C8.95699 5.25857 7.85479 5.9968 6.928 6.928C6.56779 7.28753 6.2355 7.67398 5.934 8.084C6.292 8.028 6.658 7.998 7.03 7.998L7.032 8ZM25.032 8C26.4165 8 27.7698 8.41054 28.921 9.17971C30.0721 9.94888 30.9693 11.0421 31.4992 12.3212C32.029 13.6003 32.1676 15.0078 31.8975 16.3656C31.6274 17.7235 30.9607 18.9708 29.9817 19.9497C29.0028 20.9287 27.7555 21.5954 26.3976 21.8655C25.0398 22.1356 23.6323 21.997 22.3532 21.4672C21.0741 20.9373 19.9809 20.0401 19.2117 18.889C18.4425 17.7378 18.032 16.3845 18.032 15L18 14C18 10.287 19.475 6.72601 22.1005 4.1005C24.726 1.475 28.287 0 32 0V4C30.6862 3.99647 29.3847 4.25342 28.1709 4.756C26.957 5.25857 25.8548 5.9968 24.928 6.928C24.5678 7.28753 24.2355 7.67398 23.934 8.084C24.292 8.028 24.658 7.998 25.032 7.998V8Z" fill="#00A1E4"/>
</svg>
