<svg width="32" height="32" viewBox="0 0 32 32" fill="none" xmlns="http://www.w3.org/2000/svg">
<g clip-path="url(#clip0)">
<rect width="32" height="4.16" transform="matrix(-1 1.04948e-07 1.04948e-07 1 32 17.92)" fill="#EBF4FC"/>
<rect width="6.72" height="7.35999" transform="matrix(-1 1.04948e-07 1.04948e-07 1 10.2383 7.35977)" fill="#EBF4FC"/>
<path d="M-7.69484e-07 23.9999C-5.65404e-07 25.0607 0.421427 26.0781 1.17157 26.8283C1.92172 27.5784 2.93913 27.9999 4 27.9999L28 27.9999C29.0609 27.9999 30.0783 27.5784 30.8284 26.8283C31.5786 26.0781 32 25.0607 32 23.9999L32 21.9999L-1.15423e-06 21.9999L-7.69484e-07 23.9999Z" fill="#3C91E6"/>
<path fill-rule="evenodd" clip-rule="evenodd" d="M0 18.0001L-1.92371e-06 8.00006C-2.12779e-06 6.9392 0.421425 5.92178 1.17157 5.17164C1.92172 4.42149 2.93913 4.00006 4 4.00006L28 4.00006C29.0609 4.00006 30.0783 4.42148 30.8284 5.17163C31.5786 5.92177 32 6.93919 32 8.00006L32 18.0001L0 18.0001ZM6 14.0001C5.46957 14.0001 4.96086 13.7893 4.58578 13.4143C4.21071 13.0392 4 12.5305 4 12.0001L4 10.0001C4 9.46963 4.21071 8.96092 4.58578 8.58585C4.96086 8.21077 5.46956 8.00006 6 8.00006L8 8.00006C8.53043 8.00006 9.03914 8.21077 9.41421 8.58585C9.78928 8.96092 10 9.46963 10 10.0001L10 12.0001C10 12.5305 9.78928 13.0392 9.41421 13.4143C9.03914 13.7893 8.53043 14.0001 8 14.0001L6 14.0001Z" fill="#3C91E6"/>
<rect width="9.68157" height="1.5772" rx="0.7886" transform="matrix(-0.999931 -0.0117324 -0.0117323 0.999931 29.3359 7.34659)" fill="#EBF4FC"/>
<rect width="6.83451" height="1.57719" rx="0.788595" transform="matrix(-0.999931 -0.0117323 -0.0117324 0.999931 29.2695 9.78949)" fill="#EBF4FC"/>
</g>
<defs>
<clipPath id="clip0">
<rect width="32" height="32" fill="white" transform="matrix(1 -1.92371e-07 -1.92371e-07 -1 0 32)"/>
</clipPath>
</defs>
</svg>
