<svg width="48" height="48" viewBox="0 0 48 48" fill="none" xmlns="http://www.w3.org/2000/svg">
<path opacity="0.4" d="M33.7687 10.2297H27.8825C26.4161 10.2394 25.024 9.5871 24.0947 8.45501L22.1564 5.77525C21.2427 4.63323 19.8506 3.97789 18.3864 4.00057H14.2252C6.75638 4.00057 4.00002 8.38403 4.00002 15.8377V23.8947C3.99073 24.7808 43.9913 24.7796 43.9939 23.8947V21.5521C44.0294 14.0985 41.3442 10.2297 33.7687 10.2297Z" fill="#8ABDF0"/>
<path fill-rule="evenodd" clip-rule="evenodd" d="M41.6643 13.0869C42.3041 13.835 42.7986 14.6957 43.1225 15.6247C43.7597 17.534 44.0546 19.5405 43.9938 21.5521V32.0582C43.9913 32.9431 43.9259 33.8268 43.7982 34.7025C43.5551 36.2479 43.0114 37.731 42.1978 39.0682C41.8238 39.7141 41.3697 40.3103 40.8463 40.8429C38.4766 43.0177 35.3299 44.1497 32.1148 43.984H15.8612C12.641 44.1485 9.48923 43.0169 7.11202 40.8429C6.59481 40.3093 6.14673 39.7131 5.7783 39.0682C4.9695 37.732 4.43738 36.2475 4.2134 34.7025C4.07098 33.8282 3.99961 32.9439 4 32.0582V21.5521C3.99966 20.6747 4.04715 19.7979 4.14227 18.9256C4.16227 18.7725 4.19227 18.622 4.22196 18.473C4.27146 18.2246 4.3201 17.9806 4.3201 17.7365C4.50061 16.6839 4.82992 15.6621 5.29816 14.7018C6.68523 11.7381 9.5305 10.2297 14.1896 10.2297H33.7509C36.3604 10.0278 38.9506 10.8134 41.0063 12.4303C41.2431 12.631 41.4631 12.8506 41.6643 13.0869ZM13.9407 31.0822H34.071H34.1065C34.5482 31.1014 34.9792 30.9433 35.3033 30.6432C35.6274 30.3431 35.8176 29.926 35.8315 29.485C35.8565 29.0973 35.7288 28.7153 35.4758 28.4202C35.1848 28.0235 34.7236 27.7868 34.231 27.7813H13.9407C13.0273 27.7813 12.2869 28.5202 12.2869 29.4317C12.2869 30.3432 13.0273 31.0822 13.9407 31.0822Z" fill="#3C91E6"/>
</svg>
