<svg width="64" height="64" viewBox="0 0 64 64" fill="none" xmlns="http://www.w3.org/2000/svg">
<rect width="64" height="64" rx="32" transform="matrix(-1.19249e-08 -1 -1 1.19249e-08 64 64)" fill="#FDF1CC"/>
<rect width="40" height="40" rx="20" transform="matrix(-1.19249e-08 -1 -1 1.19249e-08 52 52)" fill="#F5B700"/>
<path d="M29.6 30.7999V27.1999C29.6 25.8799 30.68 24.7999 32 24.7999C33.32 24.7999 34.4 25.8799 34.4 27.1999H36.8C36.8 24.5479 34.652 22.3999 32 22.3999C29.348 22.3999 27.2 24.5479 27.2 27.1999V30.7999H26C25.34 30.7999 24.8 31.3399 24.8 31.9999V40.3999C24.8 41.0599 25.34 41.5999 26 41.5999H38C38.66 41.5999 39.2 41.0599 39.2 40.3999V31.9999C39.2 31.3399 38.66 30.7999 38 30.7999H29.6ZM30.8 39.1999L31.232 36.6199C30.62 36.3319 30.2 35.7199 30.2 34.9999C30.2 34.0039 31.004 33.1999 32 33.1999C32.996 33.1999 33.8 34.0039 33.8 34.9999C33.8 35.7199 33.38 36.3319 32.768 36.6199L33.2 39.1999H30.8Z" fill="white"/>
</svg>
