<svg width="12" height="12" viewBox="0 0 12 12" fill="none" xmlns="http://www.w3.org/2000/svg">
<path d="M6.00083 0.240067C2.81903 0.240067 0.240234 2.81887 0.240234 6.00007C0.240156 6.75658 0.389104 7.5057 0.678574 8.20465C0.968043 8.90359 1.39236 9.53866 1.9273 10.0736C2.46224 10.6085 3.09731 11.0329 3.79625 11.3223C4.4952 11.6118 5.24432 11.7607 6.00083 11.7607C9.18143 11.7607 11.7608 9.18187 11.7608 6.00007C11.7608 2.81887 9.18143 0.240067 6.00083 0.240067ZM6.53843 2.31967C7.10003 2.31967 7.26503 2.64547 7.26503 3.01807C7.26503 3.48307 6.89303 3.91327 6.25763 3.91327C5.72603 3.91327 5.47283 3.64627 5.48843 3.20407C5.48843 2.83147 5.79983 2.31967 6.53843 2.31967ZM5.09963 9.45007C4.71563 9.45007 4.43543 9.21667 4.70363 8.19367L5.14343 6.37867C5.21963 6.08827 5.23223 5.97187 5.14343 5.97187C5.02883 5.97187 4.53023 6.17227 4.23623 6.37027L4.04483 6.05647C4.97783 5.27707 6.05063 4.81987 6.50963 4.81987C6.89363 4.81987 6.95723 5.27347 6.76583 5.97187L6.26183 7.87987C6.17243 8.21707 6.21083 8.33347 6.30023 8.33347C6.41543 8.33347 6.79223 8.19427 7.16303 7.90207L7.38023 8.19367C6.47243 9.10087 5.48303 9.45007 5.09963 9.45007Z" fill="white"/>
</svg>
