<svg width="24" height="24" viewBox="0 0 24 24" fill="none" xmlns="http://www.w3.org/2000/svg">
<path d="M17.1477 7.559C17.8378 7.566 18.7972 7.569 19.6111 7.566C20.0279 7.565 20.2398 7.062 19.9507 6.759C18.9052 5.661 17.0349 3.696 15.9646 2.572C15.6685 2.261 15.1507 2.475 15.1507 2.906V5.542C15.1507 6.648 16.0527 7.559 17.1477 7.559Z" fill="#D6D4D5"/>
<path fill-rule="evenodd" clip-rule="evenodd" d="M14.3119 16.39H8.92574C8.5198 16.39 8.18317 16.05 8.18317 15.64C8.18317 15.23 8.5198 14.9 8.92574 14.9H14.3119C14.7178 14.9 15.0545 15.23 15.0545 15.64C15.0545 16.05 14.7178 16.39 14.3119 16.39ZM8.92574 9.9H12.2723C12.6782 9.9 13.0149 10.24 13.0149 10.65C13.0149 11.06 12.6782 11.39 12.2723 11.39H8.92574C8.5198 11.39 8.18317 11.06 8.18317 10.65C8.18317 10.24 8.5198 9.9 8.92574 9.9ZM20.0545 9.02C19.6287 9.02 19.1238 9.03 18.8168 9.03C18.3614 9.03 17.7673 9.02 17.0149 9.02C15.203 9.01 13.7079 7.51 13.7079 5.68V2.46C13.7079 2.21 13.5099 2 13.2525 2H7.96535C5.5 2 3.5 4.03 3.5 6.51V17.29C3.5 19.89 5.59901 22 8.17327 22H16.0545C18.5099 22 20.5 19.99 20.5 17.51V9.47C20.5 9.22 20.302 9.02 20.0545 9.02Z" fill="#D6D4D5"/>
</svg>
