<svg width="270" height="80" viewBox="0 0 270 80" fill="none" xmlns="http://www.w3.org/2000/svg">
<path opacity="0.3" d="M0.27948 36.8507C9.87216 28.7763 25.634 23.644 40.3518 26.0868C50.4801 27.7722 59.5033 31.7653 68.7638 35.1595C78.0243 38.5478 88.2136 41.4369 98.552 40.6148C121.174 38.812 135.418 20.4495 157.83 17.5721C181.673 14.5126 206.492 30.0858 228.728 23.2094C244.788 18.2474 252.754 3.00887 270 0.912476V80H0.27948V36.8507Z" fill="url(#paint0_linear)"/>
<path opacity="0.45" d="M0.27948 40.9051C14.7728 42.2806 22.8063 40.8639 34.8406 37.1075C42.9294 34.585 49.7451 30.9885 59.3836 29.8964C71.157 28.5665 83.3178 31.4364 92.3871 34.9506C101.464 38.4648 109.158 42.7741 119.816 45.315C141.948 50.5931 170.286 46.6356 190.235 39.9134C198.862 37.007 206.666 33.5979 216.059 31.1805C225.452 28.763 237.139 27.4149 247.378 29.0784C255.791 30.4447 261.982 33.6162 270 35.371V80H0.27948V40.9051Z" fill="url(#paint1_linear)"/>
<defs>
<linearGradient id="paint0_linear" x1="132.201" y1="11.3554" x2="138.16" y2="89.9925" gradientUnits="userSpaceOnUse">
<stop stop-color="white"/>
<stop offset="1" stop-color="white" stop-opacity="0"/>
</linearGradient>
<linearGradient id="paint1_linear" x1="135.14" y1="28.3416" x2="135.14" y2="80" gradientUnits="userSpaceOnUse">
<stop stop-color="#FFAEAE"/>
<stop offset="1" stop-color="#764646" stop-opacity="0"/>
</linearGradient>
</defs>
</svg>
