<svg width="32" height="32" viewBox="0 0 32 32" fill="none" xmlns="http://www.w3.org/2000/svg">
<path fill-rule="evenodd" clip-rule="evenodd" d="M23.6825 11.1668H29.3287V11.1171C29.3287 6.63816 26.6134 4 22.0185 4H9.97816C5.38201 4 2.66675 6.63816 2.66675 11.1171V18.25C3.74145 17.464 5.06653 17 6.5 17C10.0899 17 13 19.9101 13 23.5C13 25.2465 12.3112 26.8321 11.1904 28H22.0232C26.6182 28 29.3334 25.3514 29.3334 20.8725V20.4645H23.6825C21.049 20.4611 18.918 18.3764 18.9216 15.8088C18.9263 13.2469 21.0549 11.1715 23.6825 11.1668ZM16.5062 11.1565H8.98616C8.4232 11.1542 7.96809 10.707 7.97046 10.1581C7.97283 9.61147 8.42675 9.16889 8.98616 9.16658H16.5109C17.0739 9.16427 17.5337 9.60801 17.5361 10.1569C17.5385 10.707 17.0833 11.1542 16.5204 11.1565H16.5109H16.5062Z" fill="#3C91E6"/>
<path d="M10.25 23.25L3.75 23.25" stroke="#3C91E6" stroke-width="2" stroke-linecap="round"/>
<path d="M7 20L7 26.5" stroke="#3C91E6" stroke-width="2" stroke-linecap="round"/>
<path opacity="0.4" d="M21.3834 16.3958C21.6622 17.664 22.7741 18.5563 24.0436 18.5331H28.3769C28.905 18.5331 29.3335 18.0956 29.3335 17.5549V14.1795C29.3324 13.64 28.905 13.2014 28.3769 13.2002H23.9416C22.4976 13.2048 21.3312 14.4035 21.3335 15.8806C21.3335 16.0535 21.3505 16.2263 21.3834 16.3958Z" fill="#8ABDF0"/>
<ellipse cx="24.0001" cy="15.8665" rx="1.33333" ry="1.33333" fill="#3C91E6"/>
</svg>
