<svg width="32" height="32" viewBox="0 0 32 32" fill="none" xmlns="http://www.w3.org/2000/svg">
<circle cx="16" cy="16" r="16" fill="#D8E9FA"/>
<path fill-rule="evenodd" clip-rule="evenodd" d="M25.9964 13.3751H21.7618C19.7911 13.3786 18.1947 14.9351 18.1911 16.8566C18.1884 18.7823 19.7867 20.3458 21.7618 20.3484H26V20.6543C26 24.0136 23.9636 26 20.5173 26H11.4836C8.03644 26 6 24.0136 6 20.6543V13.3379C6 9.97862 8.03644 8 11.4836 8H20.5138C23.96 8 25.9964 9.97862 25.9964 13.3379V13.3751ZM10.7396 13.3673H16.3796H16.3831H16.3902C16.8124 13.3656 17.1538 13.0302 17.152 12.6177C17.1502 12.206 16.8053 11.8732 16.3831 11.8749H10.7396C10.32 11.8766 9.97956 12.2086 9.97778 12.6185C9.976 13.0302 10.3173 13.3656 10.7396 13.3673Z" fill="#3C91E6"/>
<path d="M20.0374 17.2967C20.2465 18.2478 21.0805 18.9171 22.0326 18.8997H25.2825C25.6787 18.8997 26 18.5716 26 18.166V15.6345C25.9991 15.2298 25.6787 14.9009 25.2825 14.9H21.9561C20.8731 14.9035 19.9983 15.8024 20 16.9103C20 17.0399 20.0128 17.1696 20.0374 17.2967Z" fill="#8ABDF0"/>
<circle cx="22" cy="16.9" r="1" fill="#3C91E6"/>
</svg>
