<svg width="24" height="24" viewBox="0 0 24 24" fill="none" xmlns="http://www.w3.org/2000/svg">
<path fill-rule="evenodd" clip-rule="evenodd" d="M9.30365 4.61265C9.46373 3.9848 10.034 3.51898 10.7044 3.51898H13.2856C13.956 3.51898 14.5263 3.9848 14.6863 4.61265H9.30365ZM18.1881 4.61264H16.2071C16.017 3.1443 14.7864 2 13.2856 2H10.7044C9.2036 2 7.97299 3.1443 7.78289 4.61264H5.81191C3.71086 4.61264 2 6.34428 2 8.47085C2 8.47085 2.05003 10.1316 2.08004 10.6481C2.08004 10.7493 2.13007 10.8405 2.21011 10.8911L3.17059 11.5594C4.82141 12.6541 6.75138 13.4369 8.7904 13.8278C8.92346 13.8531 9.05353 13.7853 9.12256 13.6678C9.71586 12.6683 10.8024 12.0253 11.995 12.0253C13.1956 12.0253 14.2721 12.6754 14.8484 13.6739C14.9165 13.7934 15.0485 13.8632 15.1826 13.8369C17.2386 13.447 19.1686 12.6632 20.8294 11.5493C20.8694 11.5291 21.3097 11.2354 21.7909 10.88C21.8699 10.8212 21.918 10.724 21.92 10.6248C21.94 9.3711 22 8.47085 22 8.47085C22 6.34428 20.2891 4.61264 18.1881 4.61264Z" fill="#8ABDF0"/>
<path fill-rule="evenodd" clip-rule="evenodd" d="M21.6198 12.8354L21.6598 12.8152C21.6998 12.7949 21.7599 12.7848 21.8099 12.8152C21.8999 12.8658 21.8999 12.9873 21.8999 12.9873L21.8199 18.1519C21.8199 20.2784 20.119 22 18.018 22H5.97197C3.87092 22 2.17007 20.2784 2.17007 18.1519L2.10004 12.9873C2.10004 12.9873 2.10004 12.8658 2.19008 12.8152C2.27012 12.7646 2.37017 12.8253 2.38018 12.8354C4.40119 14.1924 6.8324 15.0937 9.38368 15.4683C9.74386 15.519 10.104 15.2861 10.2041 14.9215C10.4242 14.0911 11.1346 13.5443 11.985 13.5443H12.005H12.015C12.8654 13.5443 13.5758 14.0911 13.7959 14.9215C13.8959 15.2861 14.2561 15.519 14.6163 15.4683C17.1676 15.0937 19.5988 14.1924 21.6198 12.8354ZM11.995 17.8177C12.4152 17.8177 12.7454 17.4835 12.7454 17.0582V15.7519C12.7454 15.3367 12.4152 14.9924 11.995 14.9924C11.5848 14.9924 11.2446 15.3367 11.2446 15.7519V17.0582C11.2446 17.4835 11.5848 17.8177 11.995 17.8177Z" fill="#3C91E6"/>
</svg>
